<?xml version="1.0" encoding="utf-8"?>
<!-- Uploaded to: SVG Repo, www.svgrepo.com, Generator: SVG Repo Mixer Tools -->
<svg width="800px" height="800px" viewBox="0 -22.71 350.877 350.877" xmlns="http://www.w3.org/2000/svg"><defs><style>.a{fill:#a98a75;}.b{fill:#ffffff;}.c{fill:#241a18;}.d{fill:#211715;}.e{fill:#febe69;}.f{fill:#85807f;}</style></defs><path class="a" d="M315.522,103.462C315.914,92.272,315.407,85,314,76.98a54.917,54.917,0,0,0-5.53-16.355c-3.757-7.814-7.536-12.17-14.571-18.036A54.235,54.235,0,0,0,283.789,36.8c-5.864-2.449-12.523-3.654-20.15-4.113C240.5,30.81,217.942,47.662,212.9,69.51c-1.371,5.895-1.514,16.032-.5,20.781.471,2.2.889,4.393,1.664,6.91l-.166,28.9c-1,4.333-1.8,11.155-1.176,16.133.867,6.867,5.506,11.9,11.233,13.038l34.209,1.311,37.323,11.237a16.359,16.359,0,0,0,8.266-.03c5.539-1.473,10.7-4.895,12.811-10.223,1.9-4.8,1.8-12.708.934-17.733-1.469-8.5-1.988-28.27-1.975-36.372"/><path class="b" d="M238.65,70.725c-.865,5.914-3.378,11.449-6.055,16.792-1.611,3.212-3.577,6.65-6.951,7.885l-5.536,4.7a6.567,6.567,0,0,0-4.7-1.862,6.1,6.1,0,0,0-5.554,2.9c-1.944,3.178-2.021,9.126-.868,12.837.816,2.628,2.161,6.651,5.579,9.6a7.111,7.111,0,0,0,6,1.672,49.945,49.945,0,0,0,9.011,18.127,37.973,37.973,0,0,0,11.957,10.457l-1.221,6.847a3.176,3.176,0,0,1-.341,1.105,4.063,4.063,0,0,1-1.374,1.054c-3.3,2.214-9.362,4.07-16.045,6.262,21.254,14.373,59.279,13.216,79.23,2.816-6.819-2.808-14.55-6.166-17.093-10.289a22.3,22.3,0,0,1-2.6-7.833c9.31-5.54,16.718-17.636,18.155-21.244a42.484,42.484,0,0,0,2.058-5.163l.532.105a7.241,7.241,0,0,0,5.625-1.466c3.567-2.766,5.119-6.714,6.072-9.3,1.344-3.645,1.578-9.589-.2-12.864a6.1,6.1,0,0,0-5.4-3.184,6.5,6.5,0,0,0-5.089,1.9c-.3-3.593-.392-5.96-1.38-8.438-13.6-1.137-51.694-4.889-51.694-4.889a22.279,22.279,0,0,1-3.961-6.071c-2.943-6.382-4.609-10.712-4.695-18.7"/><path class="c" d="M211.582,125.462a62.053,62.053,0,0,0-1.4,10.108,29.982,29.982,0,0,0,.69,9.614c1.651,5.977,6.23,11.131,12.444,12.4a2.46,2.46,0,0,0,2.952-1.677,2.423,2.423,0,0,0-1.676-2.952c-11.776-2.41-10.364-17.426-8.381-26.219.678-3.009-3.948-4.293-4.629-1.277Z"/><path class="c" d="M305.835,104a4.506,4.506,0,0,1,4-.765,4.058,4.058,0,0,1,1.418.63c-.172-.122.321.285.39.355.086.087.539.691.245.262,1.471,2.143,1.451,5.2,1.211,7.722a19.875,19.875,0,0,1-2.524,7.591c-1.342,2.424-3.895,5.9-7.106,5.389a2.475,2.475,0,0,0-2.952,1.677,2.419,2.419,0,0,0,1.676,2.952c7.816,1.242,12.567-6.3,14.753-12.73,1.8-5.284,1.988-13.586-3.05-17.207a9.474,9.474,0,0,0-11.452.73,2.42,2.42,0,0,0,0,3.394,2.449,2.449,0,0,0,3.394,0Z"/><path class="c" d="M300.854,123.689a40.328,40.328,0,0,1-1.611,5.136c-.234.617-.475,1.229-.73,1.79-.111.244-.236.483-.347.727-.093.206-.175.419-.264.627-.108.254.261-.54.071-.171-.881,1.708-1.768,3.379-2.809,5a51.058,51.058,0,0,1-11.533,13.064,21.093,21.093,0,0,1-8.544,4.162,2.4,2.4,0,0,0,1.276,4.629c6.508-1.333,12.02-5.968,16.355-10.779a56.966,56.966,0,0,0,9.187-13.194c.091-.191.18-.385.266-.579.1-.216.536-1.148.231-.518.4-.82.747-1.661,1.088-2.5a41.828,41.828,0,0,0,1.993-6.112c.7-3.005-3.926-4.288-4.629-1.276Z"/><path class="c" d="M217.5,122.64a52.912,52.912,0,0,0,7.072,17.812c3.686,5.835,8.6,11.312,14.6,14.826a29.692,29.692,0,0,0,9.849,3.619,2.47,2.47,0,0,0,2.952-1.676,2.421,2.421,0,0,0-1.676-2.953c-7.6-1.332-13.532-5.9-18.349-11.752a48.083,48.083,0,0,1-9.82-21.152,2.423,2.423,0,0,0-2.952-1.676,2.448,2.448,0,0,0-1.676,2.952Z"/><path class="c" d="M251.809,136.593a17.376,17.376,0,0,0,8.2,2.128c2.725.072,5.929-.3,8.2-1.974a2.459,2.459,0,0,0,.861-3.283,2.425,2.425,0,0,0-3.284-.861,6.369,6.369,0,0,1-.878.541c-.088.045-.178.086-.266.129-.356.175.023-.049.158-.063a4.791,4.791,0,0,0-.763.264c-.3.089-.6.165-.9.23-.153.032-.306.061-.459.088-.244.042-.386.055-.057.017a18.764,18.764,0,0,1-2.607.112q-.635-.015-1.266-.071c-.231-.02-.461-.043-.691-.073.342.044.1.009-.1-.026a13.619,13.619,0,0,1-1.855-.449c-.259-.083-.51-.186-.766-.275-.286-.1.512.241.15.063-.107-.052-.217-.1-.325-.151-.313-.152-.618-.32-.922-.491a2.4,2.4,0,0,0-2.422,4.145Z"/><path class="c" d="M259.32,117.227c.294,1.253.569,2.52.747,3.8l-.086-.638c.043.32.088.641.132.961l-.085-.638a2.643,2.643,0,0,1,.009.647l.086-.638a1.393,1.393,0,0,1-.07.257l.241-.573a1.029,1.029,0,0,1-.095.164l.375-.486a.589.589,0,0,1-.088.092l.486-.376a1.812,1.812,0,0,1-.386.206l.573-.242a2.63,2.63,0,0,1-.487.138l.638-.086a2.136,2.136,0,0,1-.536,0l.638.085c-.217-.031-.427-.09-.644-.125a2.611,2.611,0,0,0-1.849.242,2.4,2.4,0,0,0-.861,3.283,2.326,2.326,0,0,0,1.434,1.1c.474.077.92.19,1.406.224a4.465,4.465,0,0,0,2.2-.52,3.078,3.078,0,0,0,1.641-2.046,5.3,5.3,0,0,0-.029-2.2l.086.638a45.251,45.251,0,0,0-.847-4.547,2.4,2.4,0,0,0-4.629,1.276Z"/><path class="c" d="M237.839,104.73c-.755,2.243-.437,7.455,3.834,8.01,5.663.114,6.128-6.167,4.3-9.173C244.475,101.106,239.913,99.979,237.839,104.73Z"/><path class="c" d="M283.174,105.913c.636,2.279.047,7.468-4.247,7.8-5.661-.182-5.8-6.478-3.815-9.385C276.735,101.947,281.349,101.061,283.174,105.913Z"/><path class="c" d="M294.015,39.738a50.8,50.8,0,0,0-13.279-6.6,67.2,67.2,0,0,0-14.566-2.667A52.086,52.086,0,0,0,241.4,33.927c-15,6.227-27.763,19.6-31,35.829a58.341,58.341,0,0,0,1.357,28.083c.89,2.949,5.524,1.692,4.629-1.277a47.417,47.417,0,0,1-2.16-11.364,66.184,66.184,0,0,1,.42-11.858,41.578,41.578,0,0,1,8.455-19.678c9.209-11.987,24.266-19.5,39.456-18.649A72.071,72.071,0,0,1,277.537,37.2a46.571,46.571,0,0,1,14.055,6.68c2.554,1.751,4.958-2.406,2.423-4.144Z"/><path class="c" d="M317.922,103.462a133.229,133.229,0,0,0-1-23.267,70.636,70.636,0,0,0-2.3-10.9,70.023,70.023,0,0,0-5.282-12.246,47.662,47.662,0,0,0-7.7-10.628c-2.142-2.234-5.533,1.163-3.394,3.394,10.272,10.716,14.087,25.709,14.833,40.151.233,4.494.188,9,.035,13.492-.105,3.089,4.695,3.085,4.8,0Z"/><path class="c" d="M236.336,70.087a49.34,49.34,0,0,1-4.625,13.8c-1.489,3.1-3.208,7.826-6.705,9.2a2.472,2.472,0,0,0-1.676,2.953,2.417,2.417,0,0,0,2.952,1.676c4.744-1.864,7.059-6.25,9.182-10.6,2.447-5.01,4.65-10.211,5.5-15.756a2.477,2.477,0,0,0-1.677-2.952,2.418,2.418,0,0,0-2.952,1.676Z"/><path class="d" d="M239.712,64.491a40.784,40.784,0,0,0,2.436,13.863c1.664,4.427,3.595,9.153,6.923,12.605,2.148,2.228,5.54-1.169,3.394-3.394-2.8-2.9-4.438-7.076-5.81-10.813a36.579,36.579,0,0,1-2.143-12.261c-.045-3.086-4.845-3.095-4.8,0Z"/><path class="d" d="M255.959,64.644a53.455,53.455,0,0,0,4.181,16.738c2.032,4.662,4.394,9.378,9.183,11.645a2.468,2.468,0,0,0,3.284-.861,2.421,2.421,0,0,0-.861-3.284,8.828,8.828,0,0,1-3.909-3.158,43.191,43.191,0,0,1-3.552-6.764,46.749,46.749,0,0,1-3.526-14.316,2.464,2.464,0,0,0-2.4-2.4,2.417,2.417,0,0,0-2.4,2.4Z"/><path class="d" d="M273.062,73.352c.979,4.662,2.476,9.352,5.409,13.174,3.195,4.163,7.847,6.53,12.709,8.253a2.4,2.4,0,0,0,1.276-4.629,32.183,32.183,0,0,1-6.375-3.022,14.382,14.382,0,0,1-3.915-3.621c-2.47-3.372-3.623-7.373-4.475-11.431a2.4,2.4,0,1,0-4.629,1.276Z"/><path class="c" d="M221.805,98.41a9.525,9.525,0,0,0-10.42-1.709,9.2,9.2,0,0,0-4.834,6.133c-1.755,6.081-.337,13.165,2.986,18.476,2.28,3.643,5.979,6.912,10.565,6.426a2.469,2.469,0,0,0,2.4-2.4,2.416,2.416,0,0,0-2.4-2.4c-3.508.372-5.8-2.67-7.233-5.488a19.9,19.9,0,0,1-2.212-7.862,17.4,17.4,0,0,1,.274-4.47,10.839,10.839,0,0,1,.566-1.959,6.093,6.093,0,0,1,.426-.8c.062-.1.509-.678.152-.253a3.717,3.717,0,0,1,2.419-1.392,4.492,4.492,0,0,1,3.917,1.094c2.245,2.121,5.645-1.267,3.394-3.394Z"/><path class="c" d="M294.005,85.7a19.4,19.4,0,0,1,6.2,9.251c1.311,3.914,1.254,8.244,1.651,12.312a2.466,2.466,0,0,0,2.4,2.4,2.417,2.417,0,0,0,2.4-2.4c-.445-4.56-.359-9.5-1.919-13.866-1.516-4.24-3.76-8.265-7.337-11.091a2.476,2.476,0,0,0-3.394,0,2.416,2.416,0,0,0,0,3.394Z"/><path class="d" d="M279.769,154.444c.559,3.061,1.349,6.305,3.175,8.885a19.008,19.008,0,0,0,5.643,4.943c4.912,3.054,10.43,5.075,15.754,7.276a2.416,2.416,0,0,0,2.953-1.676,2.461,2.461,0,0,0-1.677-2.952c-4.756-1.966-9.622-3.811-14.055-6.456a25.427,25.427,0,0,1-2.555-1.708,14.618,14.618,0,0,1-1.135-1.006c-.186-.182-.359-.374-.538-.563-.072-.075-.37-.433-.176-.183-1.705-2.192-2.275-5.174-2.76-7.836a2.422,2.422,0,0,0-2.953-1.676,2.452,2.452,0,0,0-1.676,2.952Z"/><path class="d" d="M225.24,170.747a88.831,88.831,0,0,0,12.638-4.725c1.84-.929,4.01-2.024,4.626-4.131a32.978,32.978,0,0,0,.63-3.431l.68-3.813a2.467,2.467,0,0,0-1.676-2.952,2.42,2.42,0,0,0-2.952,1.676c-.4,2.223-.766,4.454-1.19,6.673-.037.191-.086.38-.121.571a.489.489,0,0,1,.158-.241c-.339.184-.656.405-.981.61a20.32,20.32,0,0,1-2.013,1.1q-.547.266-1.106.509c-.345.152-.4.176-.866.361-.918.368-1.846.711-2.779,1.044-2.094.746-4.21,1.432-6.324,2.122a2.453,2.453,0,0,0-1.677,2.952,2.425,2.425,0,0,0,2.953,1.676Z"/><path class="c" d="M313.122,103.462c-.01,9.49.292,19.023,1.064,28.483.369,4.518,1.3,9,1.473,13.525.19,5.078-.025,10.972-3.66,14.918-3.674,3.987-10.493,6.85-15.875,5.118-2.947-.949-4.209,3.684-1.276,4.629,5.683,1.829,12.663-.251,17.371-3.618a18.452,18.452,0,0,0,5.976-6.742,24.593,24.593,0,0,0,2.15-8.843,45.491,45.491,0,0,0-.166-9.134c-.279-2.376-.624-4.079-.855-6.229-.57-5.318-.839-10.67-1.052-16.012-.213-5.361-.355-10.729-.35-16.095,0-3.089-4.8-3.094-4.8,0Z"/><path class="e" d="M348.467,287.81c-1.215-11.527-4.62-52.285-6.5-66.913a70.959,70.959,0,0,0-8.112-25.739c-6.583-11.587-18.952-18.184-31.286-23.659-19.777,10.816-58.694,12.175-80.192-2.518-4.721,2.16-9.476,4.215-14.162,6.473a47.085,47.085,0,0,0-11.314,7.98c-6.444,5.868-11.714,17.783-13.222,26.375-3.951,22.506-7.507,57.515-8.378,78.158Z"/><path class="b" d="M106.245,254.032c-.609.443-1.255.91-1.966,1.418l-1.386.991c1.588,8.645,3.426,19.912,4.634,28.9,1.318-.78,2.164-1.279,2.164-1.279,3.072-1.812,5.772-4.212,9.072-5.556a25.574,25.574,0,0,1,7.08-1.656c5.414-.492,15.209-1.032,22.421-1.392.313-3.315,1.36-15.367,2.519-28.776q-8.911-.972-17.824-1.968c-4.416-.492-9.012-.96-13.2.516a29.722,29.722,0,0,0-7.1,4.14C110.117,251.174,108.412,252.455,106.245,254.032Z"/><path class="b" d="M3.3,252.12a433.749,433.749,0,0,1,7.259-50.579c1.63-8.257,5.8-25.439,13.707-35.1,11.251-13.74,27.484-19.916,48.194-26.257,16.519,15.043,47.584,19.217,68.2,3.631,13.251,3.128,23.147,6.268,32.9,13.987a29.248,29.248,0,0,1,7.308,9.332c1.683,3.216,3.034,8.468,3.915,11.811,0,0,1.949,7.405,4.128,15.689a57.349,57.349,0,0,0-5.238,15.176c-3.233,18.418-6.2,45.211-7.652,65.649-10.287,0-27.736,0-27.759-.006.313-3.319,1.36-15.366,2.515-28.774q-8.91-.972-17.82-1.968c-4.416-.492-9.012-.96-13.2.516a29.722,29.722,0,0,0-7.1,4.14c-3.252,2.316-5.136,3.768-8.376,6.084l-1.385.99c2.09,11.38,4.613,27.3,5.562,36.582-40.4,8.5-68.754,11.881-79.35,9.043-11.055-2.96-18.474-11.106-22.969-19.231-4.86-8.787-3.858-22.172-2.842-30.714"/><path class="b" d="M156.065,73.633a6.843,6.843,0,0,1,5-1.651,6.349,6.349,0,0,1,5.6,3.35c1.829,3.422,1.548,9.61.125,13.4-1.008,2.683-2.65,6.784-6.382,9.643a7.541,7.541,0,0,1-5.867,1.491l-.555-.113a44.188,44.188,0,0,1-2.174,5.365c-1.615,3.983-10.312,17.907-20.893,23q-.163,4.064-.325,8.133l6.814,9.805c-20.359,12.79-48.843,8.468-64.595-5.545,4.064-1.551,8.963-3.442,9.127-3.489,3.089-1.151,4.146-3.688,4.769-6.413a45.2,45.2,0,0,0,.943-5.436,43.3,43.3,0,0,1-9.5-9.225A52.054,52.054,0,0,1,68.88,97.011a7.4,7.4,0,0,1-6.239-1.779c-3.541-3.092-4.916-7.29-5.75-10.033-1.177-3.872-1.06-10.065.985-13.363a6.352,6.352,0,0,1,5.8-2.984,6.844,6.844,0,0,1,4.886,1.969s-.421-37.344,43.9-37.344C155.513,33.477,156.065,73.633,156.065,73.633Z"/><path class="d" d="M177.7,287.967c.758-17.758,2.536-35.5,4.725-53.136,1.049-8.451,2.064-16.987,3.748-25.34a53.639,53.639,0,0,1,4.169-12.329,41.286,41.286,0,0,1,6.975-10.771A44.237,44.237,0,0,1,210.519,177c5.917-2.807,11.956-5.351,17.856-8.2a2.422,2.422,0,0,0,.861-3.283,2.452,2.452,0,0,0-3.284-.861c-5.39,2.6-10.9,4.946-16.318,7.473a54.786,54.786,0,0,0-13.152,8.459c-6.957,6.069-11.352,14.829-13.932,23.585a93.941,93.941,0,0,0-2.376,12.2c-.712,4.583-1.353,9.177-1.955,13.776q-1.893,14.451-3.239,28.969c-.9,9.6-1.672,19.214-2.083,28.846-.132,3.089,4.668,3.083,4.8,0Z"/><path class="d" d="M296.748,171.562c9.463,4.07,19.313,8.309,27.1,15.219,8.63,7.655,12.888,18.592,15,29.718,1.4,7.373,1.922,14.955,2.65,22.416.86,8.808,1.663,17.622,2.465,26.436.681,7.487,1.316,14.982,2.1,22.459a2.47,2.47,0,0,0,2.4,2.4,2.415,2.415,0,0,0,2.4-2.4C349.226,272.2,348,256.549,346.5,240.928c-1.826-18.906-2.666-40.424-16.56-54.953-8.389-8.771-19.8-13.842-30.765-18.557a2.48,2.48,0,0,0-3.284.861,2.417,2.417,0,0,0,.861,3.283Z"/><path class="d" d="M205.474,220.9c-.03,2.918-.249,5.833-.313,8.75-.1,4.725.041,9.438.251,14.157.4,8.91.788,17.822,1.262,26.728.235,4.406.482,8.812.814,13.211a2.459,2.459,0,0,0,2.4,2.4,2.419,2.419,0,0,0,2.4-2.4c-.631-8.349-1.01-16.718-1.4-25.08-.426-9.052-1.061-18.141-.955-27.205.042-3.523.307-7.04.344-10.561.032-3.089-4.768-3.092-4.8,0Z"/><path class="d" d="M309.456,217.653c.857,17.654.225,35.337-.482,52.983-.2,4.933-.4,9.865-.586,14.8-.114,3.089,4.686,3.084,4.8,0,.658-17.668,1.6-35.338,1.467-53.024q-.054-7.381-.4-14.757c-.149-3.074-4.95-3.092-4.8,0Z"/><path class="d" d="M224.219,172.973c9.26,5.283,19.857,7.808,30.4,8.8a102.616,102.616,0,0,0,32.187-2.039,69.7,69.7,0,0,0,15.3-5.293,2.422,2.422,0,0,0,.861-3.283,2.449,2.449,0,0,0-3.284-.861c-8.261,4.058-17.712,5.994-26.878,6.757a94.549,94.549,0,0,1-30.949-2.264,60.468,60.468,0,0,1-15.217-5.96c-2.687-1.533-5.108,2.613-2.422,4.145Z"/><path class="c" d="M135.6,145.107c8.159,1.853,16.5,3.694,24.164,7.133a59.107,59.107,0,0,1,10.158,5.807,27.667,27.667,0,0,1,8,8.71c2.315,3.948,3.395,8.434,4.552,12.825.786,2.984,5.418,1.719,4.629-1.276-1.091-4.14-2.136-8.4-4.084-12.24a30.816,30.816,0,0,0-8.364-10.436,68.958,68.958,0,0,0-22.4-11.234c-5.061-1.549-10.223-2.746-15.381-3.918-3.008-.683-4.292,3.944-1.276,4.629Z"/><path class="c" d="M71.118,142.207c13.955,12.318,34.612,16.6,52.542,12.2a51.72,51.72,0,0,0,14.961-6.276c2.617-1.629.21-5.784-2.422-4.145-14.829,9.231-34.455,9.464-50.156,2.214a47.335,47.335,0,0,1-11.531-7.384c-2.308-2.038-5.715,1.345-3.394,3.394Z"/><path class="f" d="M62.4,38.823A52.569,52.569,0,0,1,82.909,11.442,51.334,51.334,0,0,1,114.43,2.489,51.6,51.6,0,0,1,143.338,12l6.638,5.443c8.222,7.922,15.487,20.094,15.665,37.711A55.745,55.745,0,0,1,163,72.326a8.464,8.464,0,0,0-1.932-.344,6.843,6.843,0,0,0-5,1.651L149.3,67.912c-2.059-5.71-6.918-12.1-12.049-16.812a28.106,28.106,0,0,0-7.845-5.293L120.75,44.46c-5.942,2.282-14.376,7.2-19.1,9.633a1.589,1.589,0,0,1-2.208-1.778,8.378,8.378,0,0,0-.1-3.055c-.268-1.284-1.23-1.856-2-1.481-6.609,3.2-16.154,11.716-21.589,17.4l-7.182,5.647a6.844,6.844,0,0,0-4.886-1.969,8.32,8.32,0,0,0-2.144.27,57.748,57.748,0,0,1-1.587-17.363A56.615,56.615,0,0,1,62.4,38.823Z"/><path class="c" d="M70.262,69.124A9.762,9.762,0,0,0,59.927,67.15a9.407,9.407,0,0,0-5.366,6.333c-1.936,6.3-.474,13.718,2.926,19.272,2.325,3.8,6.159,7.227,10.913,6.742a2.468,2.468,0,0,0,2.4-2.4,2.415,2.415,0,0,0-2.4-2.4c-3.749.382-6.176-2.967-7.657-5.985A20.85,20.85,0,0,1,58.558,80.5a17.988,17.988,0,0,1,.369-4.761,10.414,10.414,0,0,1,.593-1.907c.146-.324.339-.617.515-.924.049-.086.405-.517.064-.112a3.764,3.764,0,0,1,2.662-1.5,4.792,4.792,0,0,1,4.107,1.214c2.228,2.141,5.627-1.248,3.394-3.394Z"/><path class="c" d="M157.762,75.33a4.748,4.748,0,0,1,4.211-.8,4.487,4.487,0,0,1,1.673.777c-.175-.137.368.377.438.451.345.361-.123-.237.147.18,1.534,2.364,1.517,5.679,1.168,8.393a21.308,21.308,0,0,1-2.849,7.941c-1.446,2.47-4.095,5.824-7.369,5.275a2.472,2.472,0,0,0-2.952,1.677,2.419,2.419,0,0,0,1.676,2.952c7.986,1.337,12.83-6.318,15.2-12.81a22.383,22.383,0,0,0,1.078-10.243c-.377-3.025-1.381-5.927-3.9-7.8a9.758,9.758,0,0,0-11.912.612,2.419,2.419,0,0,0,0,3.394,2.452,2.452,0,0,0,3.394,0Z"/><path class="c" d="M152.6,95.93a42.043,42.043,0,0,1-1.7,5.32c-.236.612-.481,1.218-.753,1.814-.13.283-.277.559-.406.842-.007.014-.415.951-.167.4.18-.4.014-.031-.029.058a47.07,47.07,0,0,1-2.994,5.254,53.655,53.655,0,0,1-11.955,13.4,22.174,22.174,0,0,1-9.1,4.4,2.425,2.425,0,0,0-1.677,2.952,2.449,2.449,0,0,0,2.953,1.676c6.732-1.333,12.46-6.087,16.978-11.022a59.393,59.393,0,0,0,9.693-13.719c.094-.193.185-.388.274-.583.117-.261.594-1.262.261-.577.421-.865.8-1.75,1.16-2.639a43.2,43.2,0,0,0,2.092-6.3c.72-3-3.908-4.284-4.628-1.276Z"/><path class="c" d="M65.8,94.261a54.962,54.962,0,0,0,7.259,18.588c3.779,6.057,8.822,11.743,15,15.431a30.82,30.82,0,0,0,10.284,3.859,2.467,2.467,0,0,0,2.952-1.676,2.422,2.422,0,0,0-1.676-2.953c-7.941-1.438-14.116-6.27-19.107-12.425a50.173,50.173,0,0,1-10.082-22.1,2.423,2.423,0,0,0-2.952-1.677A2.45,2.45,0,0,0,65.8,94.261Z"/><path class="c" d="M144.55,9.929A56.622,56.622,0,0,0,91.636,4.018,55.635,55.635,0,0,0,60.88,35.863a58.652,58.652,0,0,0-1.844,33.1c.669,3.014,5.3,1.739,4.629-1.276-3.6-16.208.01-33.556,11.242-46.033a51.2,51.2,0,0,1,67.22-7.583,2.423,2.423,0,0,0,3.284-.861,2.449,2.449,0,0,0-.861-3.284Z"/><path class="c" d="M165.521,72.239a63.934,63.934,0,0,0,2.443-13.59,62.659,62.659,0,0,0-.781-13.458A51.466,51.466,0,0,0,159.157,24.6a53.357,53.357,0,0,0-7.064-8.406c-2.22-2.15-5.618,1.24-3.394,3.394a47,47,0,0,1,10.474,14.983,53.27,53.27,0,0,1,4.062,22.135,56.6,56.6,0,0,1-2.343,14.254c-.831,2.98,3.8,4.252,4.629,1.276Z"/><path class="c" d="M103.875,109.1a18,18,0,0,0,8.479,2.246c2.824.092,6.138-.278,8.5-2a2.458,2.458,0,0,0,.861-3.284,2.428,2.428,0,0,0-3.284-.861,6.557,6.557,0,0,1-.918.559c-.091.046-.189.083-.278.132-.245.136.537-.2.139-.058-.264.095-.526.191-.8.27-.31.091-.624.169-.94.234-.159.033-.319.062-.479.089-.219.036-.424.051-.086.016a20.364,20.364,0,0,1-2.717.1c-.44-.014-.879-.04-1.318-.082-.022,0-.8-.1-.308-.027-.182-.026-.363-.056-.544-.088a14.2,14.2,0,0,1-1.929-.48c-.27-.088-.531-.194-.8-.291-.286-.1.5.24.134.053-.11-.056-.226-.105-.337-.159-.326-.16-.642-.338-.958-.517a2.4,2.4,0,0,0-2.422,4.145Z"/><path class="c" d="M111.856,89.045c.294,1.286.566,2.587.746,3.895l-.086-.638c.043.321.084.642.131.963l-.086-.638a2.8,2.8,0,0,1,.015.748l.086-.638a1.448,1.448,0,0,1-.074.267l.242-.573a1.12,1.12,0,0,1-.1.17l.375-.486a.635.635,0,0,1-.092.095l.486-.375a1.894,1.894,0,0,1-.4.211l.574-.242a2.736,2.736,0,0,1-.508.141l.638-.086a2.217,2.217,0,0,1-.558,0l.638.086c-.226-.033-.445-.1-.67-.135a2.608,2.608,0,0,0-1.85.242,2.4,2.4,0,0,0-.861,3.284,2.342,2.342,0,0,0,1.435,1.1c.484.081.938.2,1.436.234a4.54,4.54,0,0,0,2.243-.522,3.111,3.111,0,0,0,1.667-2.068,5.411,5.411,0,0,0-.025-2.238l.086.638a46.8,46.8,0,0,0-.854-4.714,2.42,2.42,0,0,0-2.952-1.676,2.453,2.453,0,0,0-1.677,2.952Z"/><path class="c" d="M89.463,75.907c-.8,2.331-.5,7.762,3.943,8.366,5.9.154,6.42-6.384,4.535-9.526C96.4,72.174,91.653,70.972,89.463,75.907Z"/><path class="c" d="M136.67,77.424c.649,2.377,0,7.778-4.472,8.095-5.894-.225-6-6.783-3.914-9.8C129.989,73.253,134.8,72.359,136.67,77.424Z"/><path class="c" d="M128.2,47.88a35.124,35.124,0,0,1,10.987,8.584,38.568,38.568,0,0,1,7.8,12.086,2.465,2.465,0,0,0,2.952,1.676,2.42,2.42,0,0,0,1.677-2.952,44.429,44.429,0,0,0-8.78-13.915,38.965,38.965,0,0,0-12.217-9.624,2.466,2.466,0,0,0-3.284.861,2.422,2.422,0,0,0,.861,3.284Z"/><path class="c" d="M77.444,66.871A98.343,98.343,0,0,1,95.27,51.7c.684-.433,1.379-.85,2.09-1.238.176-.1.364-.18.534-.286.377-.233.419,0,.159-.158-.094-.057-1.569.529-1.014-.242-.065.09.095.8.071.569.087.824-.1,1.632-.067,2.448a4.052,4.052,0,0,0,1.8,3.2c1.958,1.266,3.755.323,5.57-.643,1.658-.883,3.306-1.786,4.96-2.678a108.681,108.681,0,0,1,12.016-5.9,2.471,2.471,0,0,0,1.676-2.952,2.418,2.418,0,0,0-2.952-1.676,106.739,106.739,0,0,0-11.451,5.466c-1.75.932-3.489,1.882-5.233,2.823-.745.4-1.491.8-2.24,1.2-.9.474-.249-.023.306.374.038.027.543.639.331.637-.009,0,.071-.782.076-.831.2-2.21-.267-4.959-2.39-6.115-1.936-1.054-3.867.188-5.533,1.171A75.261,75.261,0,0,0,83.95,54.23a127.067,127.067,0,0,0-9.9,9.247c-2.14,2.229,1.25,5.628,3.395,3.394Z"/><path class="c" d="M73.453,142.824q3.3-1.258,6.591-2.525a34.714,34.714,0,0,0,4.033-1.622c4.6-2.472,5.355-8.369,5.926-13.026a2.4,2.4,0,0,0-2.4-2.4,2.473,2.473,0,0,0-2.4,2.4,31.252,31.252,0,0,1-1.347,6.217c-.043.122-.089.244-.137.364q.18-.412.013-.042c-.087.171-.166.344-.259.513-.108.195-.231.379-.347.57-.052.08-.107.158-.164.235q.274-.348.017-.036c-.136.138-.261.286-.4.421-.1.091-.194.178-.294.263q.337-.249,0-.007c-.179.112-.351.229-.536.332-.127.071-.256.138-.388.2-.228.105-.271.125-.131.059.185-.07-.1.031-.15.047-.215.076-.428.162-.641.243q-1.071.408-2.141.82-3.06,1.173-6.122,2.345a2.455,2.455,0,0,0-1.676,2.952,2.427,2.427,0,0,0,2.952,1.676Z"/><path class="c" d="M.9,252.12c-1.179,9.974-1.862,20.967,2.381,30.348A42.758,42.758,0,0,0,11.74,294.43a37.893,37.893,0,0,0,13.632,8.953c5.6,2.114,11.652,2.208,17.562,2a236.536,236.536,0,0,0,26.1-2.7c13.434-1.981,26.778-4.553,40.065-7.344,3.021-.635,1.743-5.263-1.276-4.629-11.664,2.451-23.371,4.722-35.143,6.59-8.653,1.373-17.358,2.561-26.107,3.1-3.182.2-6.375.311-9.563.214-1.273-.039-2.546-.112-3.814-.244-.284-.029-.566-.064-.85-.1.73.088-.158-.025-.326-.051-.492-.079-.983-.169-1.471-.277C21.382,297.91,14,291.236,9.23,283.383,3.6,274.1,4.47,262.488,5.7,252.12a2.414,2.414,0,0,0-2.4-2.4,2.458,2.458,0,0,0-2.4,2.4Z"/><path class="c" d="M71.289,138.031c-17.961,5.525-37.355,12.086-49.342,27.49-5.644,7.253-8.854,16.313-11.278,25.084a263.123,263.123,0,0,0-5.512,27.087C3.265,229.108,2,240.605.9,252.12a2.417,2.417,0,0,0,2.4,2.4,2.452,2.452,0,0,0,2.4-2.4c.949-9.869,1.982-19.731,3.508-29.53,1.42-9.119,2.965-18.3,5.19-27.258,2.07-8.332,4.753-16.808,9.378-24.107,4.486-7.077,11.357-12.549,18.571-16.649,9.445-5.367,19.885-8.736,30.223-11.916,2.943-.906,1.688-5.541-1.276-4.629Z"/><path class="c" d="M48.1,196.6c-.3,6.1-.71,12.2-1.156,18.293a2.421,2.421,0,0,0,2.4,2.4,2.446,2.446,0,0,0,2.4-2.4c.446-6.093.853-12.191,1.156-18.293a2.4,2.4,0,0,0-4.8,0Z"/><path class="c" d="M128.525,127.971l-.329,8.279a2.418,2.418,0,0,0,2.4,2.4,2.45,2.45,0,0,0,2.4-2.4l.329-8.279a2.419,2.419,0,0,0-2.4-2.4,2.45,2.45,0,0,0-2.4,2.4Z"/><path class="c" d="M36.093,257.659c13.136-.994,26.242-2.775,39.315-4.373,6.732-.823,13.463-1.662,20.186-2.555,1.348-.179,2.705-.327,4.047-.546.682-.112.109-.117-.31-.214-.218-.051-.117-.538-.125.011a2.776,2.776,0,0,0,.1.492q.271,1.335.53,2.672c.77,3.98,1.479,7.971,2.159,11.966,1.577,9.261,3.1,18.562,4.06,27.91a2.469,2.469,0,0,0,2.4,2.4,2.416,2.416,0,0,0,2.4-2.4c-.9-8.736-2.276-17.432-3.712-26.093q-1.079-6.511-2.287-13c-.319-1.7-.614-3.413-1-5.1a4.265,4.265,0,0,0-2.125-2.978,5.272,5.272,0,0,0-3.37-.294q-.829.115-1.659.227c-.133.018-.587.079-.062.008l-.413.055L95.048,246q-2.22.293-4.441.579-5.415.7-10.833,1.366-11.991,1.485-23.995,2.865c-6.551.75-13.11,1.547-19.686,2.045a2.459,2.459,0,0,0-2.4,2.4,2.419,2.419,0,0,0,2.4,2.4Z"/><path class="c" d="M152.249,202.11c-.794,7.993-1.4,16.008-2.092,24.011q-1.609,18.657-3.228,37.316c-.349,4-.688,8.012-1.065,12.014a2.417,2.417,0,0,0,2.4,2.4,2.451,2.451,0,0,0,2.4-2.4c.866-9.191,1.621-18.394,2.417-27.592q1.569-18.158,3.137-36.313c.272-3.145.519-6.294.831-9.436a2.417,2.417,0,0,0-2.4-2.4,2.452,2.452,0,0,0-2.4,2.4Z"/><path class="c" d="M84.375,244.428c-5.171-3.349-10.18-6.959-15.276-10.421-3.113-2.115-6.234-4.221-9.4-6.258-2.209-1.422-4.7-3.354-7.3-3.959a8.959,8.959,0,0,0-8.5,2.369,6.433,6.433,0,0,0,.1,8.4,2.417,2.417,0,0,0,3.394,0,2.456,2.456,0,0,0,0-3.4,2.35,2.35,0,0,1-.155-1.587,3.064,3.064,0,0,1,1.525-1.006,4.656,4.656,0,0,1,3.985.542c2.177,1.214,4.265,2.6,6.349,3.963,5.65,3.7,11.207,7.547,16.776,11.371,2.017,1.385,4.021,2.793,6.075,4.123,2.6,1.684,5.009-2.47,2.423-4.145Z"/><path class="c" d="M58.994,239.937c-3.21-2.583-6.483-5.1-9.871-7.441-3.054-2.113-6.334-4.629-10.175-4.86a7.177,7.177,0,0,0-7.63,7.072,7.99,7.99,0,0,0,2.06,5.48,37.071,37.071,0,0,0,5.1,4.028c3.521,2.685,7.071,5.33,10.628,7.966a2.417,2.417,0,0,0,3.284-.861,2.458,2.458,0,0,0-.861-3.284q-3.9-2.888-7.775-5.8-2.067-1.56-4.122-3.134c-1.1-.842-2.673-1.671-3.246-2.96a2.918,2.918,0,0,1,.206-2.857,2.431,2.431,0,0,1,2.506-.84,9.142,9.142,0,0,1,3.4,1.455c1.375.833,2.717,1.719,4.04,2.631,3.11,2.144,6.117,4.432,9.059,6.8a2.473,2.473,0,0,0,3.394,0,2.418,2.418,0,0,0,0-3.394Z"/><path class="c" d="M41.538,252.539q-.561-.4-1.113-.819c-.184-.138-.366-.278-.549-.417-.434-.329.149.12-.243-.186q-1.086-.849-2.166-1.707c-.335-.264-.693-.514-1.011-.8-.064-.057-.212-.281-.3-.3q.339.452.126.137l-.074-.125c-.277-.493.057-.038-.005.037a2.647,2.647,0,0,0-.137-.433,2.011,2.011,0,0,0-.1-.451c.045.382.053.441.025.175-.008-.077-.013-.155-.017-.233-.016-.307.035-.619.018-.923-.012-.225-.132.578,0,.052.034-.138.059-.277.1-.413.029-.1.22-.541.031-.152s.035-.049.079-.129c.088-.156.194-.3.287-.451s.066-.1-.108.137c.055-.067.113-.132.173-.2.117-.126.252-.235.37-.36q.2-.171-.154.109c.068-.05.138-.1.209-.143.142-.091.3-.162.437-.249.162-.079.1-.054-.19.073q.117-.045.237-.081c.161-.051.325-.08.488-.121q.274-.05-.219.03c.085-.007.171-.01.257-.01s.668.055.291,0,.322.092.392.112a2.4,2.4,0,1,0,1.276-4.628,6.766,6.766,0,0,0-6.483,1.573,7.27,7.27,0,0,0-2.3,5.307,6.543,6.543,0,0,0,2.179,5.286c1.9,1.508,3.8,3.028,5.764,4.447a2.41,2.41,0,0,0,3.284-.861,2.466,2.466,0,0,0-.861-3.283Z"/><path class="d" d="M110.9,286.13c2.961-1.777,5.645-4.182,8.88-5.465a30.117,30.117,0,0,1,8.987-1.66c6.489-.49,12.99-.826,19.489-1.151,3.075-.154,3.093-4.955,0-4.8-6.72.336-13.444.678-20.153,1.2a33.088,33.088,0,0,0-9.981,1.932c-3.527,1.43-6.409,3.856-9.645,5.8-2.646,1.587-.235,5.739,2.423,4.144Z"/><path class="d" d="M105.491,257.522c3.158-2.262,6.258-4.606,9.438-6.839,3.154-2.215,6.272-3.854,10.2-4.027,4.1-.18,8.226.5,12.288.949q6.683.741,13.365,1.473a2.415,2.415,0,0,0,2.4-2.4,2.454,2.454,0,0,0-2.4-2.4q-6.93-.756-13.86-1.528c-4.191-.466-8.479-1.189-12.706-.836a22.8,22.8,0,0,0-11.35,4.375c-3.312,2.3-6.519,4.742-9.8,7.089a2.468,2.468,0,0,0-.861,3.283,2.419,2.419,0,0,0,3.284.861Z"/></svg>