<?xml version="1.0" encoding="utf-8"?>
<!-- Uploaded to: SVG Repo, www.svgrepo.com, Generator: SVG Repo Mixer Tools -->
<svg width="800px" height="800px" viewBox="-54.82 0 362.934 362.934" xmlns="http://www.w3.org/2000/svg"><defs><style>.a{fill:#ffffff;}.b{fill:#211715;}.c{fill:#7a7473;}.d{fill:#febe69;}.e{fill:none;}.f{fill:#a98a75;}</style></defs><path class="a" d="M77.973,322.409c-5.034-7.758-17.9-26.546-23.24-34.571,0,0-.14-.21-.395-.583,8.366-33.434,26.047-105.173,31.492-127.7a9.645,9.645,0,0,0,.259-1.836l.559.239h.525l4.486.682,6.967,3.147a3.1,3.1,0,0,0,4.363-1.715,3.31,3.31,0,0,0-1.715-4.512l-9.091-3.892-5.01-.682-6.968-3.147a3.1,3.1,0,0,0-4.362,1.715,3.31,3.31,0,0,0,1.715,4.513l.959.41C71.6,183.051,48.269,277.646,41.469,304.459a31.729,31.729,0,0,1,25.6,27.943H186.237a32.74,32.74,0,0,1,2.76-10C134.936,322.4,80.218,322.4,77.973,322.409Z"/><path class="b" d="M196.985,307.6c-2.585,3.035-7.433,8.138-10.548,10.426l-5.744,4.381,8.3,0a31.516,31.516,0,0,1,13.926-14.81Z"/><path class="b" d="M90.649,160.371l4.594,2.075c2.021.912,4.267,2.283,6.533,1.4A5.675,5.675,0,0,0,105.3,158.8a5.2,5.2,0,0,0-2.941-4.93c-1.375-.612-2.768-1.185-4.152-1.777l-5.013-2.146a2.056,2.056,0,0,0-2.736.717,2.023,2.023,0,0,0,.717,2.737l8.695,3.722c.129.055.258.109.386.165.222.1.42.221.632.333.19.1-.084-.064-.1-.086.061.066.145.142.215.2.03.027.22.209.033.019s.056.091.094.155a2.035,2.035,0,0,0,.1.19c.152.2-.069-.327-.034-.077a2.116,2.116,0,0,0,.115.421c.1.242.015-.356-.013-.094a2.061,2.061,0,0,0,.01.222,1.2,1.2,0,0,1-.011.3c.048-.052.084-.376.006-.078-.046.177-.1.351-.151.526-.062.208.023-.068.038-.093-.058.1-.1.2-.161.3-.041.069-.095.136-.132.208-.125.24.228-.192.025-.032a2.206,2.206,0,0,0-.154.165c-.063.062-.377.245-.13.124.3-.146-.28.132-.274.134-.048-.021.4-.077.16-.075a.878.878,0,0,0-.2.058c-.392.144.149-.043.129,0a.9.9,0,0,1-.206.015,1.722,1.722,0,0,0-.278,0c-.222.039.332.088.11.024-.16-.046-.334-.086-.5-.124-.137-.031-.272-.1.048.035-.05-.021-.1-.045-.148-.067-.66-.3-1.32-.6-1.98-.894l-4.835-2.184a2.051,2.051,0,0,0-2.736.718,2.022,2.022,0,0,0,.717,2.736Z"/><path class="b" d="M88.182,149.263l-4.593-2.075c-2.021-.912-4.268-2.282-6.534-1.395a5.675,5.675,0,0,0-3.522,5.043,5.2,5.2,0,0,0,2.941,4.93c1.375.612,2.769,1.185,4.152,1.777l5.013,2.146a2.056,2.056,0,0,0,2.736-.717,2.022,2.022,0,0,0-.717-2.737l-8.694-3.722-.387-.165c-.221-.1-.42-.22-.632-.333-.189-.1.084.064.105.086-.062-.066-.146-.142-.215-.2-.031-.027-.22-.209-.034-.02s-.056-.091-.093-.154a1.932,1.932,0,0,0-.1-.191c-.153-.2.068.327.033.077a2.2,2.2,0,0,0-.114-.421c-.1-.242-.016.356.012.094.007-.07-.009-.151-.009-.222a1.112,1.112,0,0,1,.011-.3c-.049.052-.084.376-.007.078.046-.177.1-.351.152-.526.061-.207-.024.068-.039.093.059-.1.1-.2.162-.3.041-.07.094-.137.131-.209.126-.24-.228.192-.025.032a2.218,2.218,0,0,0,.155-.165c.062-.062.376-.245.129-.124-.3.146.28-.132.275-.134.048.021-.4.077-.161.075a.815.815,0,0,0,.2-.058c.393-.144-.148.043-.129,0a.849.849,0,0,1,.206-.014,1.721,1.721,0,0,0,.278,0c.222-.039-.332-.088-.109-.024.159.046.333.087.5.124.138.032.273.1-.047-.035.049.021.1.045.148.067.659.3,1.32.6,1.98.894l4.834,2.184A2.052,2.052,0,0,0,88.9,152a2.024,2.024,0,0,0-.718-2.736Z"/><path class="c" d="M34.643,312.211a23.788,23.788,0,0,0-24.259,24.11c0,14.545,10.128,24.562,24.26,24.562,14.676,0,24.26-10.11,24.26-24.562A23.767,23.767,0,0,0,34.643,312.211Z"/><path class="a" d="M34.643,325.355a10.94,10.94,0,0,0-11.156,11.088c0,6.689,4.658,11.3,11.157,11.3,6.749,0,11.156-4.649,11.156-11.3A10.93,10.93,0,0,0,34.643,325.355Z"/><path class="b" d="M34.643,310.211a26.1,26.1,0,0,0-25.08,18.2c-3.159,10.2-.052,22.389,8.49,29.035,8.475,6.593,21.314,7.264,30.586,1.907,9.428-5.446,13.469-16.726,11.934-27.194a25.76,25.76,0,0,0-8.279-15.411,26.716,26.716,0,0,0-17.651-6.538c-2.574-.017-2.577,3.983,0,4,9.623.063,18.324,5.9,21.22,15.23,2.657,8.567.372,18.974-6.728,24.752-6.99,5.689-18.081,6.221-25.875,1.926-8.16-4.5-12.016-14.153-10.641-23.2a21.728,21.728,0,0,1,22.024-18.711C37.216,314.194,37.222,310.194,34.643,310.211Z"/><path class="b" d="M34.643,323.355a13.133,13.133,0,0,0-12.557,9.107,13.594,13.594,0,0,0,4.227,14.507,14.14,14.14,0,0,0,15.271,1.022c4.773-2.729,6.836-8.426,6.03-13.708a13.07,13.07,0,0,0-12.971-10.928c-2.574-.033-2.576,3.967,0,4a9.031,9.031,0,0,1,8.783,6.43c1.007,3.5.074,7.774-2.856,10.092a10.1,10.1,0,0,1-10.578.757,9.273,9.273,0,0,1-4.442-9.423,9.078,9.078,0,0,1,9.093-7.856C37.215,327.322,37.223,323.322,34.643,323.355Z"/><path class="c" d="M218.655,312.211a23.787,23.787,0,0,0-24.259,24.11c0,14.545,10.128,24.562,24.259,24.562,14.677,0,24.26-10.11,24.26-24.562A23.767,23.767,0,0,0,218.655,312.211Z"/><path class="a" d="M218.655,325.355A10.94,10.94,0,0,0,207.5,336.443c0,6.689,4.658,11.3,11.156,11.3,6.75,0,11.157-4.649,11.157-11.3A10.931,10.931,0,0,0,218.655,325.355Z"/><path class="b" d="M218.655,310.211a26.1,26.1,0,0,0-25.08,18.2c-3.16,10.2-.052,22.389,8.49,29.035,8.475,6.593,21.314,7.264,30.586,1.907,9.427-5.446,13.468-16.726,11.933-27.194a25.764,25.764,0,0,0-8.278-15.411,26.716,26.716,0,0,0-17.651-6.538c-2.575-.017-2.578,3.983,0,4,9.623.063,18.324,5.9,21.219,15.23,2.658,8.567.372,18.974-6.727,24.752-6.99,5.689-18.082,6.221-25.875,1.926-8.16-4.5-12.017-14.153-10.641-23.2a21.728,21.728,0,0,1,22.024-18.711C221.228,314.194,221.233,310.194,218.655,310.211Z"/><path class="b" d="M253.3,336.243a34.4,34.4,0,0,0-22.2-32.293c-13.738-5.081-30.29-1.094-39.493,10.465a35.23,35.23,0,0,0-7.592,21.828c-.013,2.574,3.987,2.577,4,0,.06-12.513,7.612-24.241,19.548-28.537,12.335-4.439,26.761-1.036,35.1,9.243a30.915,30.915,0,0,1,6.64,19.294c.013,2.573,4.013,2.578,4,0Z"/><path class="b" d="M69.288,336.243a34.4,34.4,0,0,0-22.2-32.293c-13.737-5.081-30.289-1.094-39.493,10.465A35.242,35.242,0,0,0,0,336.243c-.012,2.574,3.988,2.577,4,0C4.061,323.73,11.613,312,23.548,307.706c12.335-4.439,26.761-1.036,35.1,9.243a30.922,30.922,0,0,1,6.641,19.294c.012,2.573,4.012,2.578,4,0Z"/><path class="b" d="M218.655,323.355a13.135,13.135,0,0,0-12.558,9.107,13.6,13.6,0,0,0,4.227,14.507,14.14,14.14,0,0,0,15.271,1.022c4.774-2.729,6.837-8.426,6.031-13.708a13.071,13.071,0,0,0-12.971-10.928c-2.575-.033-2.576,3.967,0,4a9.03,9.03,0,0,1,8.782,6.43c1.007,3.5.075,7.774-2.855,10.092a10.1,10.1,0,0,1-10.579.757,9.273,9.273,0,0,1-4.441-9.423,9.076,9.076,0,0,1,9.093-7.856C221.227,327.322,221.234,323.322,218.655,323.355Z"/><path class="b" d="M67.29,334.4H184.23c2.574,0,2.578-4,0-4H67.29c-2.573,0-2.578,4,0,4Z"/><path class="b" d="M77.9,324.4H186.99c2.574,0,2.578-4,0-4H77.9c-2.573,0-2.578,4,0,4Z"/><path class="b" d="M43.4,304.985q3.072-12.114,6.072-24.245,4.3-17.289,8.577-34.584,4.668-18.873,9.316-37.751,4.155-16.871,8.29-33.747,2.763-11.283,5.5-22.572.2-.846.406-1.691c.6-2.5-3.257-3.57-3.857-1.063q-2.475,10.337-5.022,20.655-4,16.371-8.036,32.735-4.632,18.822-9.284,37.641-4.373,17.691-8.767,35.378-3.227,12.975-6.485,25.942-.282,1.119-.566,2.239c-.633,2.5,3.224,3.561,3.857,1.063Z"/><path class="b" d="M53.872,297.315q2.9-11.484,5.75-22.982,3.933-15.807,7.84-31.62Q71.7,225.6,75.91,208.476q3.725-15.132,7.434-30.27,1.449-5.922,2.893-11.846c1.085-4.455,2.819-9.124.951-13.606-.379-.909-.859-1.771-1.316-2.642-1.195-2.281-4.649-.262-3.454,2.018,1.264,2.411,2.041,4.558,1.38,7.328-.349,1.46-.708,2.918-1.062,4.376q-1.359,5.587-2.727,11.174Q76.415,189.7,72.8,204.382q-4.164,16.92-8.345,33.836-3.94,15.944-7.9,31.884-2.985,12.006-6,24.006-.27,1.072-.541,2.144c-.631,2.5,3.226,3.562,3.857,1.063Z"/><path class="b" d="M53.007,288.848c6.122,9.2,12.388,18.3,18.541,27.48,1.474,2.2,2.944,4.4,4.391,6.618,1.4,2.148,4.866.146,3.454-2.018-6.051-9.272-12.343-18.388-18.54-27.562q-2.2-3.263-4.393-6.537c-1.419-2.133-4.885-.132-3.453,2.019Z"/><path class="b" d="M228.085,286.732c5.308,7.239,10.752,14.377,16.112,21.577a2.063,2.063,0,0,0,2.737.718,2.015,2.015,0,0,0,.717-2.737c-5.36-7.2-10.8-14.338-16.112-21.577A2.062,2.062,0,0,0,228.8,284a2.015,2.015,0,0,0-.717,2.736Z"/><path class="b" d="M225.065,304.385l7.945-6.952a2.011,2.011,0,0,0,0-2.828,2.05,2.05,0,0,0-2.829,0l-7.944,6.952a2.011,2.011,0,0,0,0,2.828,2.048,2.048,0,0,0,2.828,0Z"/><path class="a" d="M160.3,53.144c.335-.386.651-.757.934-1.11a31.583,31.583,0,0,0,7.018-22.665,31.154,31.154,0,0,0-6.235-15.522C154.13,3.759,145.905,2.479,140.869,2.192a31.4,31.4,0,0,0-14.077,2.653c-8.92,3.8-12.682,10.54-13.3,12.027A21.65,21.65,0,0,0,111.5,26.61a30.478,30.478,0,0,0,.162,5.255c.148,4.017.369,9.59-3.166,11.821a3.756,3.756,0,0,0-1.589,1.825c-.744,2.054,1.035,2.835,2.178,3.913a6.16,6.16,0,0,1,1.568,2.509,38.106,38.106,0,0,0,1.2,5.724,16.147,16.147,0,0,0,1.565,3.786,7.672,7.672,0,0,0,4.475,3.607,18.478,18.478,0,0,0,9.931.119,1.335,1.335,0,0,1,1.627.681,40.644,40.644,0,0,0,1.872,4.7l2.47,6.021a23.566,23.566,0,0,1,2.571-1.591A64.043,64.043,0,0,1,145.99,71.4c4.657-1.407,7.127-2.039,10.55-2.853-.4-1.264-.694-2.2-.694-2.2a21.233,21.233,0,0,1-.888-4.431C155.044,58.887,158.091,55.692,160.3,53.144Z"/><path class="a" d="M181.236,283.523c-1.966-4.135-4.85-7.761-7.707-11.343-4.52-5.668-12.017-14.68-17-20.866-1.07-1.328-2.023-2.526-2.807-3.532,0,0-1.411-2.1-2.7-4.02a146.036,146.036,0,0,0,22.482-2.8c1.179,2.541,2.327,5.019,2.327,5.019,3.053,5.1,6.068,10.15,6.068,10.15a58.2,58.2,0,0,1,5.128,10.384,55.557,55.557,0,0,0,2.635,6.571,11.381,11.381,0,0,0,4.8,5.056c1.206.592,2.408,1.194,3.607,1.767a49.867,49.867,0,0,1-6.835,10.138c-3.168,3.241-5.339,1.692-6.415.994a1.342,1.342,0,0,0-1.384-.092,23.4,23.4,0,0,0-2.05-7.116C181.334,283.731,181.285,283.627,181.236,283.523Z"/><path class="a" d="M130.394,303.014c-.04-.212-.069-.409-.1-.58,0,0-.018-.11-.045-.3a10.216,10.216,0,0,0,.88-2.754,27.265,27.265,0,0,0,.047-7.033c-1.417-16.2-2.027-32.463-2.668-48.7a213.763,213.763,0,0,0,21.606.164c-.743,15.946-2.469,37.1-3.989,52.705a29.794,29.794,0,0,0-.2,5.461,14.7,14.7,0,0,0,.623,3.128,50.874,50.874,0,0,1-11.228,1.443C131.407,306.378,130.655,304.373,130.394,303.014Z"/><path class="b" d="M153.919,251.234c4.184,5.242,8.47,10.4,12.715,15.6,4.459,5.453,9.488,10.875,12.641,17.221,1.982,3.991,2.94,8.592,1.706,12.95-.7,2.481,3.155,3.541,3.857,1.064,2.417-8.535-1.816-16.778-6.859-23.423-4.455-5.87-9.227-11.508-13.9-17.206-2.458-3-4.916-6-7.336-9.031a2.011,2.011,0,0,0-2.828,0,2.048,2.048,0,0,0,0,2.829Z"/><path class="b" d="M200.338,278.774a43.763,43.763,0,0,1-5.721-2.842,10.173,10.173,0,0,1-3.226-3.854c-1.9-3.574-2.884-7.6-4.636-11.264-1.94-4.053-4.43-7.87-6.735-11.725l-2.46-4.116c-1.32-2.207-4.779-.2-3.454,2.019l5.326,8.91c1.24,2.074,2.493,4.135,3.565,6.305,1.872,3.792,2.9,7.942,4.839,11.693a14.618,14.618,0,0,0,3.876,4.841,32.67,32.67,0,0,0,6.607,3.487,2.059,2.059,0,0,0,2.737-.717,2.017,2.017,0,0,0-.718-2.737Z"/><path class="b" d="M130.31,305.475c2.934-3.18,3.262-7.494,2.989-11.621-.333-5.033-.815-10.056-1.135-15.092-.665-10.462-1.092-20.938-1.5-31.414-.094-2.4-.221-4.791-.344-7.186-.131-2.561-4.131-2.577-4,0,.848,16.576,1.29,33.166,2.656,49.713.327,3.965,1.514,9.517-1.49,12.771-1.744,1.889,1.078,4.725,2.829,2.829Z"/><path class="b" d="M148.177,242.493c-.764,17.23-2.181,34.441-3.816,51.608a48.479,48.479,0,0,0-.465,7.416A17.417,17.417,0,0,0,146.089,309c1.249,2.251,4.705.236,3.454-2.019-2.205-3.975-1.632-8.163-1.218-12.5q.581-6.075,1.1-12.155,1.122-13,1.983-26.022c.3-4.6.561-9.2.765-13.807.113-2.574-3.887-2.568-4,0Z"/><path class="d" d="M147.742,304.753a49.021,49.021,0,0,1-12.419,1.79c-4.528-.191-4.825-2.842-5.025-4.109-.235-1.487-2.11-1.439-3.53-1.048-1.783.492-3.229,2.188-5.923,3.987-2.276,1.159-5.239,2.153-8.157,3.464-1.279.576-5.179,2.48-6.039,3.9-2.286,3.763-.569,8.489,4.122,9.071,3.626.45,11.3.288,15.882.35,7.338.1,20.051-.192,23.283-2.792a11.244,11.244,0,0,0,1.468-7.211,17.163,17.163,0,0,0-.591-3.7,5.515,5.515,0,0,0-3.071-3.7"/><path class="d" d="M197.579,279.388a49.055,49.055,0,0,1-6.623,10.656c-3.06,3.342-5.281,1.864-6.379,1.2-1.289-.778-2.459.688-3.074,2.027-.771,1.681-.4,3.879-.761,7.1-.578,2.488-1.781,5.56-2.655,8.637-.383,1.349-1.258,4.55-1.1,6.112.444,4.381,5.639,5.7,9.45,2.9,3.115-2.288,7.963-7.391,10.548-10.426,4.759-5.586,14.724-17.467,13.631-20.839-.831-2.544-2.993-4.018-5.017-5.411a17.182,17.182,0,0,0-3.214-1.929,5.513,5.513,0,0,0-4.806-.029"/><path class="b" d="M147.21,302.825a38.069,38.069,0,0,1-10.76,1.721,8.6,8.6,0,0,1-2.423-.187,2.857,2.857,0,0,1-.929-.391,3.884,3.884,0,0,1-.355-.326,1.686,1.686,0,0,1-.192-.328c-.151-.312.13.424-.041-.1a6.232,6.232,0,0,1-.167-.631,4.455,4.455,0,0,0-.8-2.078c-1.362-1.644-3.85-1.58-5.706-.915-2.165.776-3.723,2.551-5.611,3.787-4.013,2.628-9.075,3.195-12.973,6.032-3.332,2.426-4.826,6.919-2.629,10.646,2.158,3.661,6.28,3.871,10.079,4.031,4.146.175,8.3.164,12.445.168,4.887,0,9.807.293,14.682-.155a21.78,21.78,0,0,0,6.8-1.509,7.385,7.385,0,0,0,4.287-5.033,17.9,17.9,0,0,0,.128-8.352,8.1,8.1,0,0,0-4.78-6.38,2.013,2.013,0,0,0-2.46,1.4,2.048,2.048,0,0,0,1.4,2.46c1.625.65,1.98,3.2,2.121,4.671a11.324,11.324,0,0,1-.692,6.234c-.56,1.142-1.969,1.575-3.2,1.9a26.037,26.037,0,0,1-5.281.732c-4.331.243-8.676.038-13.011.033-3.634,0-7.268,0-10.9-.113-2.471-.075-6.53.412-8.1-1.987a3.83,3.83,0,0,1-.26-3.546c.652-1.556,2.264-2.419,3.7-3.137,3.863-1.935,8.235-2.782,11.739-5.43,1.269-.959,2.641-2.456,4.255-2.8.315-.066.669-.011.968-.083.1-.025-.2-.278-.188-.192a8.15,8.15,0,0,0,.233,1.149c1.144,3.8,5.041,4.592,8.559,4.4a43.313,43.313,0,0,0,11.112-1.834c2.431-.809,1.389-4.673-1.063-3.857Z"/><path class="b" d="M195.65,278.856a36.986,36.986,0,0,1-2.488,4.609,36.287,36.287,0,0,1-3.307,4.81,5.719,5.719,0,0,1-2.112,1.757,1.623,1.623,0,0,1-1.362-.054,14.643,14.643,0,0,0-1.592-.81,3.719,3.719,0,0,0-3.674,1.122c-1.7,1.718-2.075,4-2.161,6.31a22.876,22.876,0,0,1-.232,3.618,34.446,34.446,0,0,1-1.2,3.94c-.756,2.293-1.516,4.589-2.043,6.948-.488,2.187-.815,4.38.143,6.489,1.832,4.031,6.874,4.674,10.525,2.926a20.935,20.935,0,0,0,4.892-3.8c1.734-1.617,3.39-3.318,5-5.06,2.5-2.707,4.852-5.554,7.161-8.42a89.4,89.4,0,0,0,7.2-9.9,17.28,17.28,0,0,0,2.078-4.466,5.964,5.964,0,0,0-1.247-5.217,21.971,21.971,0,0,0-6.121-5.063c-2.561-1.618-5.735-2.427-8.54-.941-2.276,1.2-.257,4.659,2.018,3.454,1.893-1,4.184.7,5.671,1.729,1.513,1.047,3.19,2.085,4.109,3.737a3.754,3.754,0,0,1,.363.876c-.092-.343.082-.155-.042.117-.11.241.067-.366.007-.08a3.238,3.238,0,0,1-.075.324c-.085.267-.159.533-.256.8-.089.239-.394.879-.644,1.351-.376.71-.788,1.4-1.216,2.081a118.429,118.429,0,0,1-12.473,15.887,64.369,64.369,0,0,1-8.385,8.2c-1.866,1.427-6.047,2.384-6.633-.923-.28-1.578.392-3.439.8-4.947.62-2.283,1.418-4.51,2.126-6.766a25.273,25.273,0,0,0,1.013-6.895,7.745,7.745,0,0,1,.279-2.275c.127-.366.449-.679.555-1.034-.024.083.267-.316.28-.293.2.345-.825-.35-.248.127a5.74,5.74,0,0,0,4.595.869c2.09-.48,3.671-2.1,4.941-3.727a43.34,43.34,0,0,0,6.152-10.348,2.015,2.015,0,0,0-1.4-2.46,2.049,2.049,0,0,0-2.461,1.4Z"/><path class="a" d="M165.262,148.529c10.46,19.15,13.285,55.154,22.515,79.244.75,1.96,2.174,5.23,1.707,6.632-.584,1.75-4.511,3.545-7.067,4.308-18.074,5.4-39.352,6.268-61.518,4.394-4.349-.368-5.945-.541-6.225-4.9-1.8-27.469,2.608-64.2,7.678-89.592,5.093-1.9,9.737-3.966,14.666-6.189l5.381.957a52.855,52.855,0,0,0,16.586.71l5.856-.38Z"/><path class="d" d="M168.471,143.476c.794-15.5-.029-39.532-1.988-52.87a84.549,84.549,0,0,0-4.691-15.082,35.287,35.287,0,0,0-4.009-7.276c-5,1.18-7.574,1.819-15.546,4.3a32.754,32.754,0,0,0-5.737,2.362c-5.085,2.721-6.968,5.468-9.425,10.857-1.822,4-4.1,10.708-4.627,15.336-.835,7.34-.409,14.56,2.061,21.082l17.89,21.2a52.855,52.855,0,0,0,16.586.71l4.273,3.02a2.336,2.336,0,0,0,3.32-.655Z"/><path class="a" d="M84.066,159.146a1.622,1.622,0,0,1-.492,0c-1.324-.224-1.913-2.069-1.895-4.039l0-.461-1.312,1.031a2.345,2.345,0,0,1-2.764-.1,4.081,4.081,0,0,1-.854-3.073c.311-3.058.275-5.39,1.16-8.334a11.377,11.377,0,0,1,5.26-6.734,11.809,11.809,0,0,1,5.857-1.688c2.026-.039,5.735-.139,8.491-.209,2.042-.052,6.363-1.286,8.042-1.718l.829-.213c1.128,4.266,2.832,9.126,4.28,13.33-2.141,1.322-4.564,2.824-4.564,2.824-2.915,2.518-4.121,2.752-8.169,2.687-2.132-.034-4.186-.094-5.195,2.091-.627,1.356-.375,2.139-.757,3.824-.224.989-.853,1.556-2.247,1.686a2.325,2.325,0,0,1-2.27-1.547,8.481,8.481,0,0,1-.5-2.081l-.483,1.037A3.574,3.574,0,0,1,84.066,159.146Z"/><path class="b" d="M105.031,131.888c-2.637.684-5.32,1.59-8.061,1.66q-2.756.07-5.511.141a27.8,27.8,0,0,0-5.117.357,13.883,13.883,0,0,0-8.721,6c-2.094,3.273-2.424,7.133-2.73,10.905-.161,1.991-.351,4.195,1.1,5.809a4.286,4.286,0,0,0,5.387.641c2.151-1.4.148-4.862-2.019-3.454-.466.3-.415.2-.557-.332a7.394,7.394,0,0,1,.07-2.45,34.412,34.412,0,0,1,.729-5.605,10,10,0,0,1,6.932-7.435,17.232,17.232,0,0,1,4.738-.435c1.961-.047,3.923-.091,5.884-.149,3.042-.091,6.012-1.04,8.938-1.8,2.489-.646,1.434-4.5-1.064-3.857Z"/><path class="b" d="M80.87,145.642a40.636,40.636,0,0,0-1.066,6.484c-.169,2.117-.353,4.424.491,6.426a3.839,3.839,0,0,0,5.071,2.29,5.686,5.686,0,0,0,2.7-2.12c.611-.942.5-2.32.609-3.414a28.5,28.5,0,0,1,1.491-6.81,2.01,2.01,0,0,0-1.4-2.46,2.052,2.052,0,0,0-2.46,1.4,36.574,36.574,0,0,0-1.821,10.019l.273-1.01c-.026.051-.251.4-.092.185s-.182.168-.185.171c-.112.112-.184.135-.02.026-.128.085-.26.158-.391.239-.186.113.248-.044-.095.048-.079.021-.5.063-.216.068.384.008-.54-.13.209.006-.246-.045-.028-.017.093.041-.383-.183.2.166.02,0-.141-.131.144.3-.007-.017-.021-.046-.225-.446-.12-.206s-.079-.26-.078-.259c-.035-.119-.066-.24-.093-.362,0,.01-.091-.518-.063-.312.03.223-.022-.294-.025-.34-.01-.174-.014-.348-.015-.522a32.813,32.813,0,0,1,1.048-8.506,2,2,0,1,0-3.857-1.064Z"/><path class="b" d="M84.847,154.358c.116,3.21.83,8.1,5.18,7.652a4.227,4.227,0,0,0,3.565-2.243c.647-1.359.38-2.924.87-4.186.409-1.054,1.152-1.112,2.164-1.141,1.334-.039,2.668.066,4-.043a11.639,11.639,0,0,0,6.9-3.225,2.018,2.018,0,0,0,0-2.829,2.041,2.041,0,0,0-2.828,0,11.107,11.107,0,0,1-2.349,1.639q-.328.151-.063.032c-.12.046-.242.088-.366.127-.187.058-.376.107-.568.15a3.956,3.956,0,0,1-.951.123c-2.369.154-5.072-.417-7.239.818a5.723,5.723,0,0,0-2.513,3.188c-.4,1.136-.281,2.363-.614,3.51-.044.139-.035.138.026,0q-.183.3-.024.056l.1-.072c-.2.119-.239.139-.127.062-.289.042-.382.113-.563-.022-.322-.241-.431-1.258-.481-1.621a19.7,19.7,0,0,1-.111-1.972c-.092-2.567-4.093-2.579-4,0Z"/><path class="b" d="M141.867,145.31a50.818,50.818,0,0,0,17.65.71,2.012,2.012,0,0,0,1.4-2.46,2.052,2.052,0,0,0-2.46-1.4,44.931,44.931,0,0,1-7.928.223,45.858,45.858,0,0,1-7.595-.933,2.046,2.046,0,0,0-2.46,1.4,2.02,2.02,0,0,0,1.4,2.46Z"/><path class="b" d="M163.535,149.538c3.338,6.156,5.456,12.915,7.291,19.645,2.162,7.933,3.867,15.983,5.616,24.014,1.764,8.1,3.537,16.214,5.817,24.189,1.053,3.684,2.217,7.341,3.59,10.919a21.136,21.136,0,0,1,1.719,5.132c.039.4.109.327-.276.66a10.808,10.808,0,0,1-2.261,1.448c-3.693,1.859-8.073,2.656-12.091,3.5a130.811,130.811,0,0,1-13.468,2.075,194.741,194.741,0,0,1-29.648.593q-3.86-.194-7.713-.505a17.475,17.475,0,0,1-4.464-.574c-.376-.155-.41-.214-.509-.365a4.563,4.563,0,0,1-.422-1.554c-.228-1.973-.245-3.994-.315-5.978-.309-8.693-.082-17.4.438-26.085a429.183,429.183,0,0,1,6.363-51.877q.517-2.82,1.079-5.632c.5-2.514-3.354-3.59-3.857-1.064a438.862,438.862,0,0,0-7.26,53.7c-.668,9.135-1.032,18.3-.858,27.464q.061,3.273.227,6.543a18.933,18.933,0,0,0,.671,5.459c1.251,3.438,4.792,3.625,7.937,3.888,20.011,1.673,40.759,1.453,60.217-4.024a30.44,30.44,0,0,0,6.021-2.273c1.557-.822,3.429-2.014,3.992-3.792.547-1.725-.115-3.661-.7-5.291-.658-1.826-1.4-3.619-2.04-5.451A220.893,220.893,0,0,1,182,199.861c-1.91-8.47-3.635-16.983-5.695-25.419a135.652,135.652,0,0,0-7.137-22.449q-1-2.28-2.183-4.474c-1.228-2.263-4.683-.246-3.454,2.019Z"/><path class="d" d="M145.219,138.75a17.97,17.97,0,0,0,8.02-6.357c1.278-1.612,2.936-6.276,3.583-8.542,3.228-11.307,3.248-13.28,3.917-24.347.305-5.056-.25-8.639-2.349-12.544a11.856,11.856,0,0,0-9.8-5.5c-5.106,0-8.638,3.034-10.638,7.256a25.882,25.882,0,0,0-2.259,9.148c-.986,9.22-.841,12.593-3.083,19.414-2.37,3.508-19.743,9.881-26.208,12.039a1.027,1.027,0,0,0-.755,1.131c1.247,6.223,4.523,14.793,6.4,20.566a.929.929,0,0,0,1.078.678c12.242-3.6,20.686-7.925,32.091-12.941"/><path class="b" d="M146.229,140.476a20.725,20.725,0,0,0,7.83-5.928,26.325,26.325,0,0,0,4.242-8.71,82.231,82.231,0,0,0,3.954-18.892c.592-7.315,1.835-16.123-3.095-22.323a13.485,13.485,0,0,0-19.482-1.7c-5.92,5.449-5.939,14.3-6.64,21.7a57.052,57.052,0,0,1-1.337,8.644c-.191.758-.4,1.51-.631,2.258-.072.237-.206.714-.252.835.134-.354.11-.127-.126.088-.134.123-.268.245-.406.363-.322.278.058-.027-.225.173-.423.3-.856.582-1.3.851-4.837,2.934-10.287,4.959-15.564,6.94-2.311.867-4.641,1.672-6.969,2.491a3.3,3.3,0,0,0-2.4,4.217c.379,1.78.861,3.538,1.38,5.283,1.111,3.733,2.407,7.408,3.673,11.09.545,1.586.9,3.978,2.178,5.132,1.694,1.53,4.34.12,6.168-.473a225.737,225.737,0,0,0,23.054-9.381q2.97-1.341,5.95-2.66a2.013,2.013,0,0,0,.717-2.736,2.049,2.049,0,0,0-2.736-.717c-5.19,2.286-10.327,4.693-15.542,6.919q-3.711,1.584-7.5,2.984-2.062.759-4.149,1.452-.974.322-1.953.631a7.912,7.912,0,0,1-2.066.638l.882.515a5.587,5.587,0,0,1-.554-1.626q-.325-.962-.657-1.921c-.494-1.435-.991-2.869-1.48-4.306-1-2.931-1.967-5.875-2.774-8.864-.193-.718-.377-1.438-.545-2.162a4.155,4.155,0,0,0-.228-1.032l-.536.935.274-.092a14.6,14.6,0,0,0,2.436-.842q3.095-1.094,6.159-2.271a117.9,117.9,0,0,0,13.006-5.677,21.348,21.348,0,0,0,4.312-2.82c1.61-1.445,1.974-3.891,2.446-5.914,1.23-5.279,1.463-10.794,1.988-16.173.488-5,2.313-11.4,7.535-13.361a9.387,9.387,0,0,1,7.748.577A10.408,10.408,0,0,1,157.963,91a24.494,24.494,0,0,1,.748,8.963c-.165,2.786-.311,5.577-.577,8.355a76.719,76.719,0,0,1-3.739,16.6,21.153,21.153,0,0,1-3.36,7.035,17.879,17.879,0,0,1-6.825,5.065,2.014,2.014,0,0,0-.718,2.736,2.05,2.05,0,0,0,2.737.717Z"/><path class="b" d="M156.354,66.532c-4.486,1.066-8.941,2.266-13.325,3.7-4.416,1.443-8.9,3.082-12.346,6.319-3.22,3.023-5.068,7.3-6.654,11.339a53.61,53.61,0,0,0-3.766,15.086,45.788,45.788,0,0,0,2.317,19.743c.888,2.392,4.756,1.357,3.857-1.064a41.388,41.388,0,0,1-2.324-16.351,48.693,48.693,0,0,1,3.042-14.4c1.314-3.665,2.855-7.745,5.513-10.666,2.754-3.027,6.6-4.52,10.387-5.8,4.713-1.6,9.523-2.894,14.362-4.044,2.5-.595,1.444-4.453-1.063-3.857Z"/><path class="b" d="M155.763,68.859a47.336,47.336,0,0,1,6.475,13.631,61.266,61.266,0,0,1,2.78,12.262,308.282,308.282,0,0,1,1.732,31.617c.061,5.7.007,11.411-.279,17.107-.13,2.573,3.871,2.566,4,0a323.454,323.454,0,0,0-.183-32.377c-.476-9.489-.9-19.179-3.752-28.3-1.75-5.588-3.82-11.213-7.319-15.963a2.061,2.061,0,0,0-2.736-.718,2.015,2.015,0,0,0-.718,2.737Z"/><path class="e" d="M111.5,26.739a21.7,21.7,0,0,1,1.988-9.867c.62-1.487,4.382-8.232,13.3-12.027a31.4,31.4,0,0,1,14.077-2.653c5.036.287,13.261,1.567,21.149,11.655a31.154,31.154,0,0,1,6.235,15.522,31.583,31.583,0,0,1-7.018,22.665c-2.154,2.687-6.178,6.394-6.277,9.883a21.233,21.233,0,0,0,.888,4.431"/><path class="f" d="M156.373,7.379C151.3,3.639,145.2,1.734,136.515,2.115a33.175,33.175,0,0,0-9.408,2.059,25.109,25.109,0,0,0-13.564,13.255,24.352,24.352,0,0,0-1.382,4.306l.771.646A78.139,78.139,0,0,0,133.9,34.955a13.811,13.811,0,0,0,4.868,1.241l1.741.028a4.22,4.22,0,0,1,1.107-.538,3.828,3.828,0,0,1,3.265.286,5.608,5.608,0,0,1,2.146,4.5,9.617,9.617,0,0,1-3.556,7.995l2.587,7.06a29.746,29.746,0,0,0,4.7,8.37c2.511,3.335,6.963,5.007,10.9,6.507l4.891.427c2.679-1.776,4.476-4.226,4.245-7.826-.1-1.493-.773-2.725-1.987-4.934-1.39-2.529-3.522-3.809-3.211-9.553.141-2.62,2.113-7.664,2.557-10.436a38.618,38.618,0,0,0,.431-9.525A27.588,27.588,0,0,0,162.725,13.5,37.369,37.369,0,0,0,156.373,7.379Z"/><path class="b" d="M140.672,38.841c.155-.191.313-.379.484-.555.053-.054.514-.453.3-.294a2.237,2.237,0,0,1,.945-.451,1.96,1.96,0,0,1,1.1-.02.993.993,0,0,1,.37.178c.34.205-.043-.13.209.185.016.02.37.478.2.227a5.2,5.2,0,0,1,.364.636q.087.186.012.009c.051.133.1.268.14.4.064.2.106.413.161.618.115.424.025-.1.05.294.015.242.023.481.021.723a10.991,10.991,0,0,1-.082,1.333c.05-.388-.046.226-.05.245q-.054.283-.125.562a8.732,8.732,0,0,1-.409,1.243c.16-.377-.089.163-.1.19-.082.162-.169.323-.261.48-.108.184-.228.36-.342.54-.051.075-.1.15-.158.224.13-.16.121-.15-.025.031a11.129,11.129,0,0,1-.757.823q-.206.2-.42.388c-.052.045-.616.491-.355.3a15.269,15.269,0,0,1-2.318,1.388,2.02,2.02,0,0,0-.718,2.736,2.041,2.041,0,0,0,2.737.718,12.732,12.732,0,0,0,6.911-7.721c1.068-3.736.451-9.069-3.768-10.537a6.484,6.484,0,0,0-6.942,2.276,2.06,2.06,0,0,0,0,2.829,2.015,2.015,0,0,0,2.828,0Z"/><path class="b" d="M116.135,37.252c-.393,1.232-.227,4.09,2,4.381,2.948.044,3.19-3.4,2.238-5.045C119.59,35.243,117.215,34.64,116.135,37.252Z"/><path class="b" d="M133.051,69.545a32.514,32.514,0,0,1-1.247-3,8.8,8.8,0,0,0-.8-1.976c-1.534-2.29-3.834-1.045-5.974-.844a17.413,17.413,0,0,1-6.6-.6,6.572,6.572,0,0,1-3.935-3.946,28.45,28.45,0,0,1-1.784-6.885,7.926,7.926,0,0,0-3.077-5.012c-.245-.2-.864-.571-.9-.886-.074-.689,1.4-1.4,1.8-1.749a9.174,9.174,0,0,0,2.7-4.863c1.119-4.773-.1-9.625.372-14.437a2.014,2.014,0,0,0-2-2,2.043,2.043,0,0,0-2,2c-.421,4.277.7,8.652-.126,12.9a5.714,5.714,0,0,1-2.281,3.921c-1.835,1.335-3.1,3.648-2.1,5.891.787,1.758,2.851,2.415,3.552,4.205a19.633,19.633,0,0,1,.458,2.555,35.26,35.26,0,0,0,.949,3.8,13.736,13.736,0,0,0,3.666,6.327,11.237,11.237,0,0,0,5.933,2.539,20.432,20.432,0,0,0,7.731-.107,2.666,2.666,0,0,0,.66-.173q.69-.076-.1-.436-.533-.618-.377-.243c-.068.174.309.9.375,1.086a42.634,42.634,0,0,0,1.65,3.959c1.108,2.322,4.558.3,3.454-2.019Z"/><path class="b" d="M111.169,56.386a11.535,11.535,0,0,0,5.58-1.5,2.1,2.1,0,0,0,.919-1.2,2.042,2.042,0,0,0-.2-1.541,2.018,2.018,0,0,0-1.195-.92,2.046,2.046,0,0,0-1.541.2,6.89,6.89,0,0,1-.937.489l.478-.2a9.617,9.617,0,0,1-2.419.626l.532-.072c-.4.052-.808.086-1.215.107a2.107,2.107,0,0,0-1.414.586,2,2,0,0,0,0,2.828,2,2,0,0,0,1.414.586Z"/><path class="b" d="M167.563,72.562c3.768-2.565,6.452-7.074,4.813-11.72a23.3,23.3,0,0,0-2.811-5.3,9.888,9.888,0,0,1-1.875-4.07c-.7-4.247,1.478-8.242,2.3-12.326a36.839,36.839,0,0,0-.09-15.1,31.532,31.532,0,0,0-16-20.576c-8.219-4.288-18.737-4.492-27.326-1.225A26.744,26.744,0,0,0,113.97,12.5a29.5,29.5,0,0,0-4.6,16.946c.044,2.572,4.044,2.58,4,0A25.952,25.952,0,0,1,116.622,15.8a23.264,23.264,0,0,1,9.211-8.871,28.006,28.006,0,0,1,12.754-2.859A29.871,29.871,0,0,1,150.2,6.125a27.622,27.622,0,0,1,15.3,16.889,32.283,32.283,0,0,1,.9,13.351c-.509,3.979-2.313,7.668-2.757,11.655a13.757,13.757,0,0,0,.736,6.443,27.134,27.134,0,0,0,2.412,4.124c1.044,1.7,2.167,3.524,2.009,5.58a6.711,6.711,0,0,1-3.258,4.941c-2.116,1.44-.117,4.908,2.019,3.454Z"/><path class="b" d="M144.13,56.063a28.338,28.338,0,0,0,2.227,4.86,27.537,27.537,0,0,0,3.9,5.444c2.939,3.008,7.033,4.5,10.877,5.969a2.016,2.016,0,0,0,2.461-1.4,2.046,2.046,0,0,0-1.4-2.461c-3.213-1.223-6.7-2.474-9.112-4.94a24.038,24.038,0,0,1-3.271-4.635c-.4-.685-.768-1.386-1.1-2.1a14.829,14.829,0,0,1-.721-1.8,2.05,2.05,0,0,0-2.46-1.4,2.02,2.02,0,0,0-1.4,2.461Z"/><path class="b" d="M111.518,23.8a81.968,81.968,0,0,0,12.673,8.739q3.258,1.808,6.679,3.3c2.542,1.108,5.089,2.234,7.9,2.361,2.573.117,2.567-3.884,0-4-2.325-.1-4.59-1.23-6.682-2.17q-3.2-1.437-6.26-3.159a76.459,76.459,0,0,1-11.481-7.9c-1.964-1.637-4.808,1.178-2.828,2.829Z"/></svg>