<?xml version="1.0" encoding="utf-8"?>
<!-- Uploaded to: SVG Repo, www.svgrepo.com, Generator: SVG Repo Mixer Tools -->
<svg width="800px" height="800px" viewBox="-97.03 0 437.543 437.543" xmlns="http://www.w3.org/2000/svg"><defs><style>.a{fill:#ffffff;}.b{fill:#3d8dcc;}.c{fill:#211715;}.d{fill:#85807f;}.e{fill:#957f6e;}.f{fill:#7abee6;}.g{fill:#febe69;}.h{fill:#7a7473;}</style></defs><path class="a" d="M209.469,398.425a3.776,3.776,0,0,1-1.334-2.124c-.217-.829-.229-6.593-.252-7.45,0,0,0-.08-.006-.227a82.677,82.677,0,0,1-13.866,1.737c-1.191.058-2.523.055-3.922-.01l-.023.319c-.054,2.037-.112,4.743-.153,6.119l0,.152,2.086.051c2.035.049,6.107.844,7.57,5.117a2.459,2.459,0,0,0,3.7,1.238,43.3,43.3,0,0,1,7.342-4.1Z"/><path class="a" d="M163.006,394.182a8.789,8.789,0,0,0-5.661-2.124v-3.082a81.706,81.706,0,0,0,14.93-1.484c0,.37,0,.62,0,.62.026,1.689.515,5.544,1.626,6.989l.065.112a60.084,60.084,0,0,0-5.347,3.2,2.459,2.459,0,0,1-3.7-1.238A7.176,7.176,0,0,0,163.006,394.182Z"/><path class="a" d="M202.8,51.448a4.849,4.849,0,0,1,3.544-.541,4.378,4.378,0,0,1,3.466,2.737c.9,2.4.117,6.354-1.215,8.651a12.7,12.7,0,0,1-5.154,5.324,9.623,9.623,0,0,1-4.411.8c-.661,1.177-2.176,3.212-2.176,3.212a44.5,44.5,0,0,1-4.348,4.9,49.106,49.106,0,0,0,.436,6.706,14.131,14.131,0,0,0,.867,3.367c.6,1.437,2.231,2.59,4.155,3.517a33.273,33.273,0,0,1-14.276,7.6,34.814,34.814,0,0,1-14.89.53,17.42,17.42,0,0,1-10.437-6.111c1.388-.477,2.675-.942,3.611-1.355,1.777-.611,4.028-1.79,3.993-3.893v-1.5a24.4,24.4,0,0,1-14.883-6.923c-5.057-4.718-6.933-11.762-7.274-19.438-.2-4.425-.306-9.23-.625-14.044,0,0-3.943-24.219,26.335-24.219C206.4,20.77,202.8,51.448,202.8,51.448Z"/><path class="b" d="M214.913,380.531q.189-4.035.362-8.133c2.177-51.315,2.62-109.523,3.727-160.21H139c-.082,2.6-.184,5.825-.184,5.825-.559,30.246,5.114,149.277,5.658,167.808a2.619,2.619,0,0,0,2.255,2.466c7.29,1.258,19.006.744,26.623-1.033l7.117-.476a3,3,0,0,0,2.384,2.709,48.867,48.867,0,0,0,11.155.874,71.57,71.57,0,0,0,18.418-2.985,3.376,3.376,0,0,0,2.3-3.049Q214.823,382.437,214.913,380.531Z"/><path class="c" d="M136.819,218.013c-.186,10.25.135,20.517.413,30.763.4,14.861.936,29.718,1.5,44.574q.874,23.025,1.854,46.047.744,17.81,1.489,35.621c.136,3.381.275,6.762.382,10.144a4.976,4.976,0,0,0,2.319,4.514c1.837,1.065,4.579,1.007,6.648,1.147a82.738,82.738,0,0,0,15.583-.481,67.008,67.008,0,0,0,6.88-1.16c2.508-.575,1.446-4.433-1.063-3.857a72.167,72.167,0,0,1-14.5,1.634c-2.421.054-4.847.017-7.262-.161-1.011-.074-2.022-.168-3.024-.315-.652-.1-1.4-.061-1.566-.78a21.765,21.765,0,0,1-.134-3.9q-.1-2.734-.212-5.467-.682-17.049-1.423-34.1-.941-22.409-1.817-44.82c-.572-14.844-1.113-29.689-1.541-44.538-.31-10.751-.633-21.515-.559-32.272q.007-1.3.031-2.595c.047-2.575-3.953-2.576-4,0Z"/><path class="c" d="M172.355,284.432q.548,30.084,2.78,60.09c.717,9.848,1.519,19.689,2.314,29.53q.33,4.069.656,8.137c.194,2.414-.117,5.526,1.5,7.509,1.59,1.954,4.286,2.036,6.607,2.322a46.969,46.969,0,0,0,7.431.357,78.936,78.936,0,0,0,15.612-2.021c2.143-.516,4.732-.951,6.213-2.732,1.6-1.92,1.33-4.585,1.44-6.932q.718-15.306,1.2-30.621c.7-21.391,1.153-42.79,1.548-64.189.389-21.129.711-42.26,1.132-63.389q.073-3.707.152-7.413c.055-2.575-3.946-2.574-4,0-.43,20.281-.747,40.564-1.1,60.847-.365,20.714-.767,41.428-1.36,62.137q-.433,15.127-1.031,30.249-.292,7.262-.641,14.52c-.037.78.1,1.74-.5,2.336-.643.634-2.007.782-2.851,1.009a60.639,60.639,0,0,1-7.421,1.473,62.249,62.249,0,0,1-14.7.5c-1.173-.118-2.347-.275-3.5-.5-.84-.165-1.26-.323-1.39-1.212-.386-2.627-.423-5.361-.637-8.009-.785-9.737-1.586-19.472-2.32-29.212-1.424-18.9-2.483-37.822-2.955-56.772q-.1-4-.172-8.006c-.046-2.571-4.047-2.58-4,0Z"/><path class="d" d="M144.67,25.617q-.3.93-.533,1.845A56.163,56.163,0,0,0,143.052,46.2c.153-.619.255-1.041.255-1.041.753-3.116,7.356-11.4,11.867-13.583.529-.256,1.185.135,1.367,1.011a5.72,5.72,0,0,1,.068,2.086,1.084,1.084,0,0,0,1.506,1.214c2.524-1.3,6.935-4.484,11.927-6.291a46.512,46.512,0,0,1,10.251.154c1.882.893,10.6,4.55,16.451,16.765.513,1.054,4.574,4.489,6.313,4.8a4.852,4.852,0,0,1,3.284-.4,4.378,4.378,0,0,1,3.466,2.737,6.715,6.715,0,0,1,.381,2.111c.349-.53.545-.826.545-.826,2.681-4.057,3.5-11.685,3.961-14.948a30.156,30.156,0,0,0-.156-9.29c-1.05-6.1-2.965-11.183-7.3-15.823l-.86-.92-4.587-3.789a33.519,33.519,0,0,0-21.729-8.134c-11.468-.272-20.982,3.464-27.676,10.263a26.022,26.022,0,0,0-2.112,2.445A36.79,36.79,0,0,0,144.67,25.617Z"/><path class="c" d="M205.822,16.282c5.012,5.442,7.359,13.114,7.146,20.45a56.323,56.323,0,0,1-1.106,8.662c-.562,3-1.26,6.154-2.988,8.718-1.442,2.141,2.022,4.145,3.454,2.019,1.912-2.838,2.768-6.354,3.391-9.673a60.435,60.435,0,0,0,1.259-10.192,33.232,33.232,0,0,0-8.327-22.813c-1.748-1.9-4.571.937-2.829,2.829Z"/><path class="c" d="M179.283,31.476a34.087,34.087,0,0,1,4.663,2.594q.395.267.779.547c.134.1.267.2.4.3.256.187-.136-.114.211.163.636.508,1.254,1.035,1.851,1.587a33.454,33.454,0,0,1,3.683,4.018,39.455,39.455,0,0,1,4.146,6.842,2.018,2.018,0,0,0,2.736.717,2.042,2.042,0,0,0,.717-2.736c-3.26-6.745-8.32-12.771-14.957-16.387-.723-.394-1.466-.744-2.211-1.1a2.056,2.056,0,0,0-2.736.718,2.017,2.017,0,0,0,.717,2.736Z"/><path class="c" d="M145.235,45.69a8.1,8.1,0,0,1,1.05-2.192,30.307,30.307,0,0,1,2.017-2.912,33.146,33.146,0,0,1,5.815-5.989,14.126,14.126,0,0,1,1.2-.817,5.441,5.441,0,0,0,.656-.371l-.679-.146q-.8-.5-.658-.019a2.887,2.887,0,0,0,.037.643c-.024,1.726.237,3.456,2.2,3.995,1.4.386,2.627-.445,3.782-1.127,1.219-.72,2.42-1.467,3.646-2.174a31.226,31.226,0,0,1,10.539-4.17,2.016,2.016,0,0,0,1.4-2.461,2.048,2.048,0,0,0-2.461-1.4,32.211,32.211,0,0,0-10.2,3.842c-1.374.753-2.714,1.566-4.056,2.374-.525.316-1.05.634-1.583.936-.548.311-.923.214.019.658,1.1.518.5.44.69,0a1.936,1.936,0,0,0,.028-.646c-.031-1.811-.738-3.86-2.763-4.175-1.38-.214-2.7.775-3.752,1.553a35.137,35.137,0,0,0-6.378,6.273c-1.713,2.125-3.69,4.558-4.4,7.255-.658,2.491,3.2,3.554,3.857,1.063Z"/><path class="c" d="M203.205,8.745A36.542,36.542,0,0,0,185.631.525a44.866,44.866,0,0,0-18.5,1.006,36.373,36.373,0,0,0-14.869,8.1,35.444,35.444,0,0,0-9.624,15.79,51.916,51.916,0,0,0-1.523,21.257,2.063,2.063,0,0,0,2,2,2.012,2.012,0,0,0,2-2c-1.395-11.174.289-24.027,8.287-32.561,7.455-7.954,18.655-10.871,29.277-9.955a32.312,32.312,0,0,1,17.7,7.407,2.059,2.059,0,0,0,2.829,0,2.014,2.014,0,0,0,0-2.828Z"/><path class="c" d="M190.57,78.8a35.866,35.866,0,0,0,.659,6.2,8.349,8.349,0,0,0,2.627,4.878c2.7,2.262,6.218,3.351,9.534,4.358a2,2,0,0,0,1.063-3.857c-1.432-.435-2.86-.888-4.252-1.439a18.87,18.87,0,0,1-1.87-.863c-.321-.171-.637-.35-.945-.544q-.222-.139-.438-.289c-.08-.055-.477-.369-.136-.09a7.56,7.56,0,0,1-.706-.645c-.1-.11-.2-.225-.3-.341.317.382.03.014-.021-.07q-.108-.182-.2-.372c.163.347-.114-.344-.115-.348a13.318,13.318,0,0,1-.388-1.441c-.1-.478-.18-.96-.249-1.443.048.339-.028-.217-.036-.283q-.034-.29-.063-.581c-.093-.942-.135-1.887-.168-2.832a2,2,0,1,0-4,0Z"/><path class="c" d="M163.962,86.893c-.013.217-.009.251.012.1s.018-.113-.024.089l-.049.169c.088-.18.1-.206.035-.077a4.118,4.118,0,0,1-.222.373c.159-.234.031-.041-.083.069s-.216.208-.33.307c.29-.251-.155.1-.19.124a7.845,7.845,0,0,1-.815.459c-.041.02-.489.225-.266.129s-.222.085-.265.1c-.274.1-.531.2-.8.319-.347.15.216-.085-.027.012q-.9.359-1.8.685c-2.674.96-5.409,1.758-8.053,2.8a2.061,2.061,0,0,0-1.4,2.461,2.013,2.013,0,0,0,2.46,1.4c2.945-1.158,6-2.013,8.96-3.131q.489-.185.973-.383c.233-.095.461-.205.7-.293.131-.057.1-.04-.105.053.083-.029.166-.06.248-.092a10.888,10.888,0,0,0,2.218-1.06,5.6,5.6,0,0,0,2.832-4.612,2,2,0,0,0-4,0Z"/><path class="c" d="M189.66,81.506a42.177,42.177,0,0,0,7.095-6.591,37.029,37.029,0,0,0,4-5.483,2,2,0,1,0-3.454-2.019,30.133,30.133,0,0,1-1.78,2.67c-.1.14-.205.278-.305.419-.237.332.258-.323.052-.063-.441.554-.882,1.107-1.34,1.647a41.027,41.027,0,0,1-2.962,3.152q-.785.748-1.611,1.451-.467.4-.946.778c-.042.033-.483.376-.255.2-.169.129-.341.257-.512.384a2.049,2.049,0,0,0-.717,2.736,2.021,2.021,0,0,0,2.736.717Z"/><path class="c" d="M181.607,80.814c-7.666,2.92-16.412,4.165-23.9.052a21.641,21.641,0,0,1-8.4-7.822,27.623,27.623,0,0,1-3.3-11.165c-.56-5.6-.464-11.272-.828-16.89-.166-2.556-4.167-2.574-4,0,.351,5.42.3,10.877.772,16.286a34,34,0,0,0,3.455,12.991c4.076,7.73,12.641,12.592,21.213,13.189a37.841,37.841,0,0,0,16.051-2.784,2.059,2.059,0,0,0,1.4-2.46,2.015,2.015,0,0,0-2.461-1.4Z"/><path class="c" d="M161.013,72.5a11,11,0,0,0,5.12,1.367,10.823,10.823,0,0,0,2.657-.219,6.385,6.385,0,0,0,1.1-.342c.324-.13.644-.269.965-.406l.284-.122c-.465.195.027-.005.1-.032a2.047,2.047,0,0,0,1.4-2.46,2.021,2.021,0,0,0-2.46-1.4c-.306.118-.607.247-.909.375l-.285.121c-.011,0-.462.2-.182.079.246-.109-.057.021-.1.039-.089.034-.178.068-.267.1q-.231.079-.468.138c-.171.042-.344.072-.517.105-.274.052.092-.024.17-.022a2.061,2.061,0,0,0-.248.024,9.474,9.474,0,0,1-1.092.025c-.176,0-.351-.015-.526-.03q-.132-.011-.264-.024c-.064-.007-.376-.046-.062,0s0,0-.06-.013c-.087-.014-.173-.029-.259-.046q-.285-.054-.569-.125c-.323-.082-.636-.185-.95-.3-.336-.118.312.154.1.044-.068-.034-.139-.063-.207-.1-.148-.073-.291-.152-.432-.236a2,2,0,0,0-2.019,3.454Z"/><path class="c" d="M173.45,54.579c-.315-1.565.34-5.026,3.245-5.035,3.8.405,3.578,4.647,2.1,6.5C177.584,57.568,174.435,57.935,173.45,54.579Z"/><path class="c" d="M150.836,52.981c-.274-1.537.335-4.945,2.946-4.971,3.41.376,3.187,4.549,1.847,6.384C154.533,55.9,151.7,56.275,150.836,52.981Z"/><path class="c" d="M161.71,57.24c-.55.8-1.082,1.618-1.56,2.464a3.928,3.928,0,0,0-.553,1.671,2.564,2.564,0,0,0,.824,1.993,3.676,3.676,0,0,0,1.458.875,5.594,5.594,0,0,0,.587.118,2.123,2.123,0,0,0,1.542-.2,2,2,0,0,0,.717-2.736,2,2,0,0,0-1.195-.919,4.284,4.284,0,0,1-.682-.153l.478.2a1.613,1.613,0,0,1-.35-.209l.405.313a2.418,2.418,0,0,1-.265-.261l.312.405a.486.486,0,0,1-.064-.1l.2.478a.712.712,0,0,1-.046-.162l.071.531a1.028,1.028,0,0,1,.006-.175l-.072.532a1.592,1.592,0,0,1,.091-.3l-.2.478a11.888,11.888,0,0,1,.871-1.491c.285-.449.577-.895.878-1.333a2.025,2.025,0,0,0,.2-1.541,2.046,2.046,0,0,0-.919-1.2,2.018,2.018,0,0,0-1.541-.2,2.227,2.227,0,0,0-1.2.919Z"/><path class="c" d="M203.806,53.175a3.136,3.136,0,0,1,2.976-.033,1.957,1.957,0,0,1,.943.756c-.313-.368.049.128.106.213.3.445-.012-.172.047.065a7.674,7.674,0,0,1,.257,3.085,12.7,12.7,0,0,1-.869,3.248,10.952,10.952,0,0,1-4.086,4.954c-.281.175-.572.325-.862.483.5-.273-.1.031-.235.074a8.812,8.812,0,0,1-1.57.365c.2-.027-.513.03-.608.033a6.889,6.889,0,0,1-.942-.023,5.29,5.29,0,0,1-1.21-.374c-2.262-1.229-4.284,2.223-2.019,3.454a9.6,9.6,0,0,0,7.575.348,12.774,12.774,0,0,0,6.023-4.945,15.587,15.587,0,0,0,2.707-6.854c.323-2.365.178-4.908-1.386-6.828a7.177,7.177,0,0,0-8.866-1.475c-2.23,1.284-.218,4.741,2.019,3.454Z"/><path class="e" d="M114.305,119.432c5.9-1.62,6.571-6.273,6.7-8.672a62.563,62.563,0,0,0-1.063-10.579c-.877-4.758-2.5-9.715-1.674-24.658.24-3.43.624-6.57.674-9.451.026-1.473.025-2.721.018-3.538-.059-9.406-4.826-20.371-11.486-25.337C99,29.139,91.056,26.947,83,26.925c-11.112-.03-20.251,3.782-26.6,10.5a34.134,34.134,0,0,0-7.68,14.863c-1.152,4.9-.777,10.254-.584,16.193-.011,8.327-.431,17.509-1.065,25.606-.347,4.438-1.275,8.066-1.2,12.014a11.18,11.18,0,0,0,6.586,10.445Z"/><path class="a" d="M55.468,66.517l.129-.036A86.609,86.609,0,0,0,86.657,50.7a74.169,74.169,0,0,0,3.534,9.841c1.579,3.518,6.059,9.687,10.415,11.891l4.9,2.479,1.168-.726a4.716,4.716,0,0,1,3.446-.527,4.257,4.257,0,0,1,3.369,2.662c.879,2.33.114,6.177-1.182,8.409a12.334,12.334,0,0,1-5.01,5.176,9.066,9.066,0,0,1-4.565.733l-.292.625c-.642,1.143-2.115,3.122-2.115,3.122a42.81,42.81,0,0,1-4.371,4.9,40.6,40.6,0,0,0,.4,5.483,14.072,14.072,0,0,0,.867,3.367c1.231,2.965,6.874,4.719,10.385,5.78a46.745,46.745,0,0,1-29.7,10.4c-3.869-.06-7.979-.2-11.62-1.731a15.507,15.507,0,0,1-7.915-7.43c2.71-.934,6.1-2,8.016-2.844,1.953-.671,4.48-2.031,3.911-4.545a23.77,23.77,0,0,1-14.472-6.737c-4.916-4.587-6.74-11.435-7.072-18.9-.191-4.3-.3-8.973-.607-13.653l-.016-.242C50.573,67.777,53.026,67.2,55.468,66.517Z"/><path class="c" d="M93.36,104.033a41.122,41.122,0,0,0,6.909-6.417,36.015,36.015,0,0,0,3.9-5.342,2,2,0,1,0-3.454-2.018,29.335,29.335,0,0,1-1.73,2.6c-.1.136-.2.27-.3.406-.235.329.263-.33.058-.072-.428.539-.857,1.077-1.3,1.6a39.889,39.889,0,0,1-2.88,3.064Q93.8,98.58,93,99.262q-.453.386-.919.757c-.046.036-.484.376-.237.187q-.247.189-.5.373a2.051,2.051,0,0,0-.717,2.737,2.021,2.021,0,0,0,2.736.717Z"/><path class="c" d="M105.629,32.947a36.732,36.732,0,0,0-13.09-6.827,39.633,39.633,0,0,0-13.3-1.053c-8.626.684-16.968,3.862-23.245,9.936-6.755,6.537-10,15.958-10.061,25.212-.035,5.119.247,10.216.115,15.339q-.2,7.844-.754,15.675c-.2,2.787-.49,5.543-.87,8.31a32.366,32.366,0,0,0-.466,7.8,13.277,13.277,0,0,0,7.5,10.941,2.057,2.057,0,0,0,2.736-.718,2.016,2.016,0,0,0-.717-2.736,9.324,9.324,0,0,1-5.551-7.836c-.361-4.438.848-8.922,1.191-13.331a256.955,256.955,0,0,0,.905-28.712c-.152-4.439-.258-8.923.925-13.244a32.289,32.289,0,0,1,5.523-11.285c4.7-6.017,11.9-9.6,19.311-10.912a37.761,37.761,0,0,1,13.632,0A31.651,31.651,0,0,1,102.8,35.775a2.064,2.064,0,0,0,2.828,0,2.012,2.012,0,0,0,0-2.828Z"/><path class="c" d="M85.489,103.258c-7.42,2.826-15.874,4.043-23.138.088a20.957,20.957,0,0,1-8.306-7.792A27.276,27.276,0,0,1,50.92,84.6c-.5-5.348-.427-10.754-.775-16.115-.166-2.556-4.167-2.575-4,0,.335,5.161.307,10.351.723,15.505a33.647,33.647,0,0,0,3.285,12.775c3.98,7.742,12.529,12.575,21.069,13.078a37.045,37.045,0,0,0,15.33-2.727,2.058,2.058,0,0,0,1.4-2.46,2.016,2.016,0,0,0-2.46-1.4Z"/><path class="c" d="M84.88,51.792a48.619,48.619,0,0,0,5.227,12.733c2.377,3.725,5.508,7.557,9.489,9.636,2.28,1.19,4.3-2.26,2.019-3.454-3.469-1.811-6.164-5.176-8.206-8.441a45.264,45.264,0,0,1-4.672-11.537c-.708-2.47-4.569-1.42-3.857,1.063Z"/><path class="c" d="M93.985,100.326a35.866,35.866,0,0,0,.659,6.2,8.35,8.35,0,0,0,2.628,4.878c2.7,2.263,6.218,3.351,9.533,4.358a2,2,0,1,0,1.064-3.857c-1.432-.435-2.861-.888-4.253-1.439a18.765,18.765,0,0,1-1.869-.863c-.322-.17-.638-.35-.945-.544-.148-.093-.3-.189-.438-.288-.08-.056-.477-.37-.137-.091a7.425,7.425,0,0,1-.7-.645c-.105-.11-.2-.225-.3-.341.316.382.03.014-.021-.07a4.154,4.154,0,0,1-.2-.372c.164.347-.113-.343-.115-.348a13.2,13.2,0,0,1-.388-1.441c-.1-.478-.18-.96-.249-1.443.049.339-.028-.217-.036-.282q-.034-.291-.063-.582c-.093-.942-.134-1.887-.168-2.832a2,2,0,0,0-4,0Z"/><path class="c" d="M84.867,49.6C74.19,58.2,61,63.729,47.6,66.314c-2.525.487-1.456,4.343,1.063,3.857A89.447,89.447,0,0,0,87.7,52.423a2.012,2.012,0,0,0,0-2.828,2.047,2.047,0,0,0-2.828,0Z"/><path class="c" d="M65.454,95.28a10.752,10.752,0,0,0,5.006,1.337,10.58,10.58,0,0,0,2.6-.215,6.213,6.213,0,0,0,1.066-.333c.319-.128.635-.265.951-.4.092-.04.183-.083.277-.119-.483.187,0,0,.08-.025a2.167,2.167,0,0,0,1.2-.919,2.044,2.044,0,0,0,.2-1.541,2.022,2.022,0,0,0-2.46-1.4c-.3.117-.6.244-.9.37l-.278.118c-.015.006-.457.2-.17.073.253-.111-.046.016-.095.036-.087.033-.173.066-.26.1-.15.051-.3.1-.455.134s-.334.07-.5.1a1.778,1.778,0,1,0,.18-.023c-.078,0-.162.017-.241.023a9.408,9.408,0,0,1-1.062.025c-.17-.006-.341-.016-.511-.029-.085-.007-.171-.015-.256-.024-.066-.007-.372-.045-.053,0s.014,0-.051-.012c-.084-.014-.168-.029-.251-.045-.186-.036-.37-.076-.554-.122-.314-.079-.619-.179-.924-.287-.332-.117.323.158.107.049-.066-.033-.135-.061-.2-.094-.144-.07-.283-.147-.42-.229a2,2,0,0,0-2.019,3.454Z"/><path class="c" d="M77.573,77.807c-.306-1.521.33-4.887,3.155-4.895,3.693.393,3.478,4.517,2.041,6.323C81.592,80.712,78.531,81.069,77.573,77.807Z"/><path class="c" d="M55.588,76.253c-.266-1.494.326-4.807,2.864-4.832,3.316.365,3.1,4.422,1.8,6.2C59.182,79.087,56.43,79.455,55.588,76.253Z"/><path class="c" d="M66.112,80.365c-.535.779-1.053,1.573-1.517,2.4a3.884,3.884,0,0,0-.546,1.653,2.554,2.554,0,0,0,.818,1.977,3.644,3.644,0,0,0,1.442.865,5.545,5.545,0,0,0,.571.114,2.115,2.115,0,0,0,1.541-.2,2,2,0,0,0,.718-2.736,2,2,0,0,0-1.195-.919,4.265,4.265,0,0,1-.663-.148l.477.2a1.551,1.551,0,0,1-.339-.2l.4.312a2.465,2.465,0,0,1-.258-.253l.313.4a.436.436,0,0,1-.063-.095l.2.478a.662.662,0,0,1-.044-.158l.071.532a1.073,1.073,0,0,1,.005-.17l-.071.532a1.579,1.579,0,0,1,.088-.294l-.2.478a11.623,11.623,0,0,1,.847-1.45q.415-.654.854-1.3a2,2,0,0,0-2.259-2.938,2.233,2.233,0,0,0-1.2.919Z"/><path class="c" d="M107.681,75.914a2.973,2.973,0,0,1,2.837-.033c.08.04.695.468.427.241a4.218,4.218,0,0,1,.478.486c-.323-.376.034.1.095.2.294.442-.019-.189.04.05a7.34,7.34,0,0,1,.248,2.984,11.954,11.954,0,0,1-.331,1.629,11.764,11.764,0,0,1-.506,1.5,10.52,10.52,0,0,1-3.953,4.8c-.273.171-.557.315-.837.47.5-.279-.075.021-.216.067a8.6,8.6,0,0,1-1.526.354,5.016,5.016,0,0,0-.577.031,6.987,6.987,0,0,1-.915-.023,6.038,6.038,0,0,1-1.149-.356c-2.262-1.229-4.284,2.223-2.019,3.454a9.39,9.39,0,0,0,7.408.344,12.484,12.484,0,0,0,5.888-4.833,15.2,15.2,0,0,0,2.639-6.684c.316-2.319.17-4.8-1.363-6.685a7.033,7.033,0,0,0-8.687-1.442c-2.23,1.283-.218,4.741,2.019,3.454Z"/><path class="f" d="M37.653,253.443l4.6-28.319a52.9,52.9,0,0,1-6.683-30.035H26.419c-2.282-2.44-4.059-11.732-1.193-19.839,4.96-14.033,3.477-21.7,7.225-36.208a39.02,39.02,0,0,1,7.582-13.758c4.936-5.94,10.534-7.842,18.185-10.432a15.529,15.529,0,0,0,8.066,7.738c3.641,1.535,7.751,1.671,11.62,1.731a46.819,46.819,0,0,0,30.152-10.763c8.922,2.3,18.808,9.476,21.417,13.387,4.373,6.555,5.85,11.829,6.789,19.591a158.166,158.166,0,0,1,1.131,24.112c-.22,5.918-.335,10.961-1.063,17.862-.81,7.684-3.174,19.648-11.54,20.359l19.6,115.27c.481,2.831.953,5.805.018,8.52a13.682,13.682,0,0,1-5.027,6.146c-12.483,9.409-29.65,8.509-45.225,7.176-22.787-1.949-40.846-19.617-61.015-30.4l-4.1-9.149Z"/><path class="c" d="M68.377,108.424c-.013.216-.009.251.012.1s.018-.113-.023.089l-.049.169c.087-.18.1-.2.034-.077a3.9,3.9,0,0,1-.222.373c.159-.234.031-.041-.083.069s-.216.208-.33.307c.29-.251-.155.1-.189.124a7.965,7.965,0,0,1-.816.459c-.04.02-.488.225-.266.129s-.221.085-.264.1c-.275.1-.532.2-.806.319-.347.15.216-.085-.027.013q-.9.357-1.8.684c-2.674.96-5.408,1.758-8.053,2.8a2.061,2.061,0,0,0-1.4,2.461,2.015,2.015,0,0,0,2.46,1.4c2.945-1.159,6-2.014,8.96-3.131q.489-.186.973-.383c.233-.1.461-.206.7-.294q.2-.086-.105.054c.083-.03.166-.061.248-.093a10.921,10.921,0,0,0,2.219-1.06,5.6,5.6,0,0,0,2.831-4.611,2,2,0,0,0-4,0Z"/><path class="c" d="M108.2,40.476c4.436,4.507,7.1,10.69,8.254,16.848,1.3,6.942-.061,14.057-.323,21.028a85.844,85.844,0,0,0,.7,16.12c.585,3.862,1.517,7.632,1.913,11.528a35.882,35.882,0,0,1,.265,4.443,7.672,7.672,0,0,1-.31,2.347,6.628,6.628,0,0,1-4.93,4.713c-2.467.718-1.418,4.579,1.063,3.857a10.817,10.817,0,0,0,6.769-5.071,13.065,13.065,0,0,0,1.41-5.958c.073-4.907-1.01-9.782-1.92-14.577a71.073,71.073,0,0,1-1.045-14.208c.1-7.578,1.606-15.256.641-22.821-.981-7.693-4.167-15.5-9.661-21.078-1.808-1.837-4.636.992-2.828,2.829Z"/><path class="c" d="M108.263,115.68a44.683,44.683,0,0,1,16.954,9.575c4.227,3.821,6.76,9.626,8.037,15.287,1.665,7.376,2.052,15.2,2.2,22.734a210.324,210.324,0,0,1-.824,22.154,66.357,66.357,0,0,1-1.608,10.663c-.806,3.17-1.958,6.475-4.305,8.847-1.813,1.831,1.014,4.661,2.828,2.828,4.661-4.709,5.938-11.986,6.683-18.3a202.666,202.666,0,0,0,1.252-23.16,135.917,135.917,0,0,0-1.982-24.956,40.57,40.57,0,0,0-3.108-9.825,28.8,28.8,0,0,0-4.985-7.788,43.29,43.29,0,0,0-8.592-6.662,47.724,47.724,0,0,0-11.483-5.25c-2.474-.727-3.531,3.132-1.063,3.857Z"/><path class="c" d="M57.687,112.924c-5.761,1.95-11.585,3.932-16.229,8.014a38.116,38.116,0,0,0-10.936,17.573c-1.8,6.3-2.431,12.884-3.3,19.353a92.54,92.54,0,0,1-1.665,9.249c-.853,3.561-2.3,6.962-3.09,10.527a31.343,31.343,0,0,0-.344,11.451c.392,2.584,1.1,5.411,2.883,7.412,1.714,1.927,4.535-.91,2.828-2.829-.372-.417.2.336-.143-.183-.118-.18-.226-.366-.328-.556a7.8,7.8,0,0,1-.5-1.165,19.94,19.94,0,0,1-.885-3.743,26.566,26.566,0,0,1,.255-8.9c.675-3.32,2.038-6.473,2.883-9.756a83.649,83.649,0,0,0,1.708-8.648c.887-6,1.463-12.021,2.784-17.948a36.806,36.806,0,0,1,8.851-17.228c4.387-4.717,10.345-6.75,16.29-8.763,2.425-.822,1.385-4.686-1.063-3.857Z"/><path class="c" d="M56.492,115.862a17.716,17.716,0,0,0,7.093,7.62c3.505,1.991,7.52,2.588,11.492,2.764a50.356,50.356,0,0,0,22.987-4.184,51.6,51.6,0,0,0,11.507-7.173,2.012,2.012,0,0,0,0-2.828,2.046,2.046,0,0,0-2.828,0,46.323,46.323,0,0,1-18.731,9.2,43.025,43.025,0,0,1-10.324,1.061c-3.554-.055-7.277-.15-10.605-1.55a14.008,14.008,0,0,1-7.138-6.925c-1.132-2.312-4.583-.287-3.453,2.019Z"/><path class="a" d="M46.65,124.589a32.049,32.049,0,0,1,5.255-7.486c1.611-1.584,4.868-2.574,8.589-2.808a46.906,46.906,0,0,0-4.849,7.438,97.889,97.889,0,0,0-9.311,26.812c-3.894,5.919-5.037,16.033-3.111,22.143-8.946,13.965-10.87,35.478-2.089,52.418A45.5,45.5,0,0,1,21.585,231.8a7.661,7.661,0,0,1-3.731.011,5.6,5.6,0,0,1-3.449-4.7,14.961,14.961,0,0,1,.823-6.052c3.473-11.992,8.959-23.3,13.1-35.074,3.792-10.788,7.793-21.712,9.259-33.053A88.425,88.425,0,0,1,46.65,124.589Z"/><path class="c" d="M39.587,152.931a79.955,79.955,0,0,1,4.624-17.979c1.919-5.195,4.246-10.713,7.815-15.016a8.052,8.052,0,0,1,2.9-2.439,16.546,16.546,0,0,1,5.566-1.2l-1.414-3.414a67.925,67.925,0,0,0-9.2,16.628,98.871,98.871,0,0,0-5.62,19.305c-.465,2.517,3.39,3.6,3.857,1.064a99.034,99.034,0,0,1,5.28-18.456,62.475,62.475,0,0,1,8.515-15.713c.954-1.217.5-3.551-1.414-3.414-3.466.248-7.379.909-10,3.394a28.94,28.94,0,0,0-4.9,6.683,83.577,83.577,0,0,0-7.762,19.352,76.646,76.646,0,0,0-2.245,11.207,2.012,2.012,0,0,0,2,2,2.049,2.049,0,0,0,2-2Z"/><path class="c" d="M35.587,152.931a115.415,115.415,0,0,1-5.107,20.7c-2.221,6.773-4.594,13.513-7.214,20.143-2.58,6.532-5.334,13-7.668,19.625a65,65,0,0,0-2.984,9.891c-.573,3.192-.237,6.732,2.3,9.043,2.865,2.613,6.88,1.584,10.249.723a48.9,48.9,0,0,0,10.825-4.234c2.274-1.208.256-4.662-2.019-3.454a44.158,44.158,0,0,1-8.58,3.482,42.548,42.548,0,0,1-4.54,1.053c-1.2.205-2.453.291-3.364-.644-2.084-2.139-.917-5.668-.2-8.124.924-3.142,1.986-6.241,3.122-9.312,2.273-6.151,4.843-12.186,7.228-18.293,2.423-6.2,4.625-12.508,6.7-18.836a120.768,120.768,0,0,0,5.25-21.768,2.01,2.01,0,0,0-2-2,2.051,2.051,0,0,0-2,2Z"/><path class="c" d="M42.771,151.1c-2.56,6.1-3.418,13.726-1.477,20.121l.2-1.541c-7.619,12.006-9.7,27.351-6.81,41.157a53.477,53.477,0,0,0,4.095,12.027c1.106,2.323,4.556.295,3.454-2.019a53.648,53.648,0,0,1-1.265-41.278,43.715,43.715,0,0,1,2.775-5.867c.494-.873,1.478-1.979,1.478-3.011a25.89,25.89,0,0,0-.7-3.319,29.382,29.382,0,0,1,2.106-15.207,2.012,2.012,0,0,0-1.4-2.46,2.052,2.052,0,0,0-2.46,1.4Z"/><path class="a" d="M34.822,169.408c-2.705-1.871-4.083-7.9-2.884-12.479,1.115-4.256,2.512-8.144,6.29-10.868,3.438-2.479,7.416-2.51,11.554-1.524.563.157,1.722.475,1.722.475,2,.546,3.82,1.56,4.292,3.3a3.534,3.534,0,0,1-2.139,4.3c1.7.936,2.7,2.1,2.5,3.842s-1.113,3-2.729,3.083c.993.637,1.006,2.329.6,3.385s-1.4,2.743-2.754,2.647c.818.881.308,2.3-.317,3.625a5.669,5.669,0,0,1-3.831,2.514A16.667,16.667,0,0,1,34.822,169.408Z"/><path class="c" d="M35.831,167.681c-1.062-.785-1.586-2.448-1.9-3.685a13.807,13.807,0,0,1-.321-5.293c.471-3.313,1.839-7.141,4.164-9.594,2.965-3.127,7-3.667,11.052-2.742a12.773,12.773,0,0,1,4.094,1.379c.923.607,1.646,2.35.208,2.937a2.03,2.03,0,0,0-.478,3.655c.731.421,1.5.863,1.538,1.774.017.448-.2,1.369-.753,1.424-1.5.15-2.924,2.221-1.414,3.414.759.6-.334,2.607-.739,2.618-1.377.039-2.676,1.725-1.727,3.01.522.707-.532,2.074-1.248,2.537a8.357,8.357,0,0,1-4.534.914,14.312,14.312,0,0,1-7.939-2.348c-2.142-1.44-4.147,2.024-2.019,3.454a18.444,18.444,0,0,0,12.671,2.692,8.577,8.577,0,0,0,5.648-2.816c1.349-1.66,2.257-4.581.875-6.452l-1.727,3.009c4-.112,7.006-6.729,3.568-9.446l-1.415,3.414a5.039,5.039,0,0,0,4.658-4.552c.411-2.75-1.131-4.778-3.424-6.1l-.478,3.656a5.626,5.626,0,0,0,1.321-9.843,13.591,13.591,0,0,0-4.689-1.948,20.173,20.173,0,0,0-6.675-.782c-8.907.622-14.151,9.391-14.617,17.653-.229,4.071.844,8.973,4.284,11.515a2.015,2.015,0,0,0,2.737-.718A2.048,2.048,0,0,0,35.831,167.681Z"/><path class="c" d="M54.188,150.683a37.364,37.364,0,0,0-4.632-1.043c-1.017-.18-2.041-.333-3.068-.449a10.972,10.972,0,0,0-2.041-.093,2,2,0,0,0,0,4,10.734,10.734,0,0,1,1.987.087c.2.022.4.049.6.073.251.03-.491-.07-.136-.017.116.017.232.033.348.051q.684.1,1.367.226a37.217,37.217,0,0,1,4.512,1.022,2.018,2.018,0,0,0,2.46-1.4,2.042,2.042,0,0,0-1.4-2.46Z"/><path class="c" d="M53.379,157.612a34.284,34.284,0,0,0-9.623-2.062,2.008,2.008,0,0,0-2,2,2.049,2.049,0,0,0,2,2q.546.04,1.091.1c.09.011.179.023.269.033.276.033-.4-.059-.12-.016.186.029.373.055.56.084q1.23.195,2.446.466a30.045,30.045,0,0,1,4.314,1.247,2.008,2.008,0,0,0,2.46-1.4,2.056,2.056,0,0,0-1.4-2.46Z"/><path class="c" d="M52.288,163.841a17.621,17.621,0,0,0-4.146-1.364,32.712,32.712,0,0,0-5.061-.7,2.012,2.012,0,0,0-2,2,2.045,2.045,0,0,0,2,2c.361.021.722.048,1.081.084.176.018.351.037.527.058l.265.033c.275.032-.405-.06-.131-.018.756.116,1.508.241,2.255.4.67.146,1.336.313,1.991.515.278.086.554.178.826.28.078.03.155.064.234.091.226.078-.423-.192-.216-.092.118.057.239.109.356.167a2,2,0,1,0,2.019-3.454Z"/><path class="a" d="M93.7,225.988a18.721,18.721,0,0,0,3.547-1.38c3.677-1.977,10.9-7.65,12.173-11.106.842-4.092.036-8.1-1.677-12.3a12.253,12.253,0,0,0-1.506-2.263,14.869,14.869,0,0,0-3.2-2.555,6.98,6.98,0,0,0-2.444-1.19,19.537,19.537,0,0,0-2.257-.459c-1.772-.117-3.553-.232-5.695-.269-3.156-.055-5.488-.1-6.761.612a2.683,2.683,0,0,0-1.182,1.68A2.387,2.387,0,0,0,85.457,199a12.453,12.453,0,0,0,4.455,2.16l1.517.4c-4.291,1.566-7.516,2.38-11.2,3.572-4.055,1.312-4.044,2.45-4.073,3.788a1.858,1.858,0,0,0,2.2,2.012l-1.428.116c-2.952.179-4.442,1.236-4.351,3.353.093,2.188,2.85,2.385,4.568,2.361-.043.1-.087.207-.087.207a2.654,2.654,0,1,0,.462,5.287l1.494-.011c-1.357.16-1.79.887-1.8,2.142a2.607,2.607,0,0,0,1.254,2.214,10.272,10.272,0,0,0,4.646.393c3.681-.281,6.6-.549,10.043-.872C93.333,226.086,93.512,226.039,93.7,225.988Z"/><path class="c" d="M91.985,199.233c-2.725,1.027-5.5,1.905-8.286,2.743-1.253.376-2.506.751-3.752,1.152a13.33,13.33,0,0,0-3.665,1.611A4.825,4.825,0,0,0,74.16,209.1a3.9,3.9,0,0,0,2.072,3.414c1.374.674,2.879.348,4.325.15,3.21-.44,6.384-1.118,9.546-1.818a2,2,0,1,0-1.063-3.857c-2.458.544-4.923,1.071-7.406,1.49-1.083.183-1.887.3-2.84.408-.231.026-.461.041-.693.056.245-.016-.182.033-.139-.018.007-.007.182.079.171.106,0,0,.025.089-.071-.069.006.011.176.194.134.211l.027.083-.053-.166q-.065-.3-.025-.08c.016.119.02.12.014,0,0-.226.027-.455.023-.68-.006-.339-.05.486-.017.15.008-.08.131-.491.015-.137s.017-.059.094-.133c-.209.2-.2.232-.007.035.138-.137.293-.237.034-.057a6.666,6.666,0,0,1,.6-.372A32.867,32.867,0,0,1,85,205.761c2.708-.814,5.4-1.673,8.046-2.671a2.056,2.056,0,0,0,1.4-2.46,2.015,2.015,0,0,0-2.46-1.4Z"/><path class="c" d="M76.932,209.053c-2.123.151-4.447.66-5.66,2.6a4.523,4.523,0,0,0,.835,5.836,7.948,7.948,0,0,0,5.135,1.28c1.8-.032,3.606-.181,5.4-.326,2.365-.189,4.731-.408,7.085-.707a2.064,2.064,0,0,0,2-2,2.012,2.012,0,0,0-2-2,120.993,120.993,0,0,1-12.335,1.029c-.391.01-.783.011-1.175-.009-.184-.009-.368-.024-.552-.042.417.04-.119-.022-.209-.04a5.18,5.18,0,0,1-.7-.195c.319.116-.033-.033-.152-.094-.19-.127-.187-.124.009.011l-.115-.117c.142.192.152.192.032,0,.089.217.1.212.029-.016l.025.149a3.8,3.8,0,0,1,0-.385c0,.413.022-.052.042-.164q.113-.327-.021.019a2.6,2.6,0,0,1,.167-.276c-.375.337.109-.066.127-.077-.373.234.186-.082.263-.12.122-.059.111-.056-.032.009.131-.048.264-.091.4-.129a6.314,6.314,0,0,1,1.406-.23,2.049,2.049,0,0,0,2-2,2.016,2.016,0,0,0-2-2Z"/><path class="c" d="M90.34,219.294c-3.375.384-6.755.7-10.149.859-.74.035-1.48.064-2.221.091-.224.009-.447.015-.67.033l-.216,0c.154.025.163.021.026-.011-.19-.035.13.115-.147-.06q-.265-.176-.1-.064c.105.077.081.047-.074-.09-.168-.315.037.087-.069-.1-.094-.164-.145-.332-.058-.062a2.533,2.533,0,0,1-.088-.309l.028.233c-.088-.108-.013-.243.018-.349-.066.227.044-.111.1-.194.074-.115.074-.117,0-.007l.146-.145c-.221.176.233-.138.26-.15-.315.14.365-.045-.063,0a2.061,2.061,0,0,0,2-2,2.012,2.012,0,0,0-2-2,4.651,4.651,0,1,0,.574,9.282c4.252-.205,8.471-.481,12.7-.962a2.061,2.061,0,0,0,2-2,2.012,2.012,0,0,0-2-2Z"/><path class="c" d="M90.444,199.233c-1.056-.3-2.85-.757-3.573-1.647-.594-.732.355-.941.966-1.038a39.086,39.086,0,0,1,8,.033,20.457,20.457,0,0,1,3.607.4,9.939,9.939,0,0,1,3.659,1.848,9.136,9.136,0,0,1,3.38,4.694,18.511,18.511,0,0,1,1.12,8.792,1.761,1.761,0,0,1-.278.952,10.764,10.764,0,0,1-.675,1.041,20.023,20.023,0,0,1-2.094,2.293c-3.028,2.953-6.729,6.012-10.825,7.291a21.305,21.305,0,0,1-4.454.6q-2.608.234-5.219.441c-1.335.1-3.031.439-4.331,0-.561-.191-.4-.242-.5-.832,0-.018-.017.017-.017.021a.453.453,0,0,1-.268.194,3.187,3.187,0,0,1,.6-.127,2.014,2.014,0,0,0,1.4-2.46,2.048,2.048,0,0,0-2.46-1.4c-3.623.587-4.244,5.3-1.692,7.547,1.384,1.217,3.629,1.272,5.37,1.192,1.953-.091,3.905-.292,5.853-.463a40.46,40.46,0,0,0,6.031-.631,18.4,18.4,0,0,0,4.719-1.918,45.178,45.178,0,0,0,7.009-5.137c1.967-1.715,4.135-3.709,5.252-6.117a12.287,12.287,0,0,0,.694-5.658,24.4,24.4,0,0,0-1.156-6.013,14.1,14.1,0,0,0-5.286-7.639,13.1,13.1,0,0,0-4.767-2.362,30.005,30.005,0,0,0-5.541-.584,59.486,59.486,0,0,0-6.418-.055,6.72,6.72,0,0,0-4.622,1.623,4.474,4.474,0,0,0-.3,5.855c1.355,1.647,3.76,2.564,5.751,3.129,2.48.7,3.539-3.155,1.063-3.857Z"/><path class="a" d="M124.475,199.184l-6.078-9.052a29.339,29.339,0,0,1-5.57-13.531,52.409,52.409,0,0,1-.421-7.7c.272-5.679,1.526-14.628,3.48-25.775,2.041-10.222,5.643-21.485,12.086-30.46s14.044-15.673,25.863-19.814q2.067-.724,4.047-1.4a17.1,17.1,0,0,0,10.916,6.8,34.765,34.765,0,0,0,14.886-.529A33.114,33.114,0,0,0,198.8,89.331c17.877,6.073,30.707,15.075,37.082,31.1,6.84,17.2,6.626,41.042,3.447,59.272-.739,4.24-3.581,11.063-5.641,14.841-2.685,4.922-7.709,10.558-12.9,14.937-3.905,3.293-6.266,6.355-11.433,4.23Z"/><path class="a" d="M152.163,421.766c-3.3.975-10.333,2.28-14.063,1.666-7.048-1.16-9.033-4.286-9.766-9.419-.4-2.823,1.648-6.09,3.965-7.9,2.66-2.077,9.308-5.02,12.783-7.254,3.875-2.492,5.461-6.753,12.263-6.8,2.036.049,6.107.844,7.571,5.117a2.459,2.459,0,0,0,3.7,1.238,40.731,40.731,0,0,1,7.566-4.179c2.081,1.68,2.758,7.157,2.887,11.187a5.59,5.59,0,0,1-2.765,5.03,35.3,35.3,0,0,1-6.9,3.317c-6.794,2.074-10.663,5.916-16.85,7.878Q152.37,421.7,152.163,421.766Z"/><path class="a" d="M188,426.315c-.26.091-.523.18-.791.265-3.1.983-8.582,1.845-12.468,1.206-7.047-1.16-10.388-4.621-11.122-9.754-.4-2.824,3-5.755,5.322-7.565,2.66-2.077,7.32-4.44,10.794-6.673,3.876-2.492,5.462-6.753,12.264-6.8,2.035.049,6.107.844,7.57,5.117a2.459,2.459,0,0,0,3.7,1.238,40.731,40.731,0,0,1,7.566-4.179c2.081,1.68,2.759,7.157,2.888,11.187a5.591,5.591,0,0,1-2.766,5.03,35.3,35.3,0,0,1-6.9,3.317C197.556,420.686,193.733,424.289,188,426.315Z"/><path class="c" d="M151.632,419.837a45.77,45.77,0,0,1-8.721,1.633,16.446,16.446,0,0,1-8.4-1.1,6.626,6.626,0,0,1-3.786-4.578,6.908,6.908,0,0,1-.275-3.685,8.757,8.757,0,0,1,2.576-4c2.093-1.941,5.026-3.141,7.529-4.451a38.989,38.989,0,0,0,7.583-4.636c1.766-1.519,3.305-3.437,5.526-4.321a8.249,8.249,0,0,1,6.669.054,5.4,5.4,0,0,1,2.652,2.947,4.614,4.614,0,0,0,4.188,3.125c1.952.045,3.573-1.456,5.156-2.406a22.726,22.726,0,0,1,4.381-2.263l-1.946-.514a6.029,6.029,0,0,1,1.5,3.147,27.944,27.944,0,0,1,.711,4.876c.1,1.41.293,2.877-.6,4.088-1.053,1.423-3.234,2.218-4.781,2.975-1.739.85-3.6,1.328-5.388,2.057a48.083,48.083,0,0,0-4.965,2.39c-3.137,1.723-6.167,3.6-9.613,4.655-2.455.751-1.408,4.613,1.063,3.857,5.372-1.642,9.79-5.158,14.97-7.2,5-1.974,12.688-3.742,13.36-10.173a26.4,26.4,0,0,0-.739-7.9c-.425-1.98-1.2-4.8-3.095-5.908-1.126-.658-2.47.119-3.5.613-1.216.581-2.388,1.257-3.541,1.953q-.823.5-1.634,1.019c-.28.181-.959.8-1.277.756-.694-.1-.88-1.469-1.169-1.982-2.239-3.977-6.923-5.246-11.179-4.6a12.878,12.878,0,0,0-6.078,2.775c-1.419,1.123-2.609,2.514-4.048,3.612-3.764,2.87-8.456,4.413-12.419,6.991a13.785,13.785,0,0,0-5.027,5.533,10.388,10.388,0,0,0-.544,7.293c2.809,11.4,17.292,9.726,25.925,7.22C155.162,422.978,154.113,419.117,151.632,419.837Z"/><path class="c" d="M191.913,396.789c.06-2.04.1-4.079.153-6.119a2.018,2.018,0,0,0-2-2,2.04,2.04,0,0,0-2,2c-.054,2.04-.093,4.079-.153,6.119a2.018,2.018,0,0,0,2,2,2.04,2.04,0,0,0,2-2Z"/><path class="c" d="M170.272,388.112a23.962,23.962,0,0,0,.478,4.118,14.377,14.377,0,0,0,.508,1.959,6.966,6.966,0,0,0,.913,1.921,2.185,2.185,0,0,0,1.2.919,2.043,2.043,0,0,0,1.541-.2,2.017,2.017,0,0,0,.919-1.195,1.946,1.946,0,0,0-.2-1.542,5,5,0,0,1-.488-.865c.333.692.03.055-.036-.141s-.136-.424-.2-.638a19.84,19.84,0,0,1-.518-2.625l.071.532a20.03,20.03,0,0,1-.186-2.242,2,2,0,0,0-4,0Z"/><path class="c" d="M153.079,388.644q.178.852.3,1.716l-.072-.532q.115.864.169,1.733a2.116,2.116,0,0,0,.585,1.414,2,2,0,0,0,2.829,0,1.993,1.993,0,0,0,.586-1.414,27.783,27.783,0,0,0-.536-3.98,2,2,0,0,0-3.656-.478,2.195,2.195,0,0,0-.2,1.541Z"/><path class="c" d="M187.464,424.386c-5.446,1.875-12.441,2.692-17.658-.281a8.094,8.094,0,0,1-3.872-4.793,3.549,3.549,0,0,1,.094-3.085,13.82,13.82,0,0,1,3.237-3.471c4.637-3.874,10.5-5.89,14.914-10.07,1.707-1.615,3.37-3.008,5.73-3.5a7.241,7.241,0,0,1,5.912,1.006c1.3.933,1.488,2.224,2.293,3.492a4.493,4.493,0,0,0,4.538,2c1.7-.3,3.209-1.664,4.666-2.525a21.407,21.407,0,0,1,4.045-2.063l-1.946-.515c1.835,1.6,2.01,5.338,2.188,7.662.105,1.383.355,2.9-.389,4.154-.873,1.467-2.9,2.219-4.354,2.962a55.093,55.093,0,0,1-5.412,2.131,43.668,43.668,0,0,0-4.872,2.253c-3.008,1.611-5.89,3.476-9.114,4.642-2.4.869-1.365,4.736,1.064,3.857,4.99-1.805,9.238-5.1,14.186-6.971a57.637,57.637,0,0,0,8.223-3.573c2.5-1.411,4.362-3.3,4.714-6.269a25.629,25.629,0,0,0-.576-7.377c-.383-2.078-1-4.408-2.5-5.985-1.824-1.92-4.613.11-6.442,1.151-1.062.6-2.106,1.243-3.132,1.908-.44.285-1.027.956-1.511.45-.37-.386-.511-1.3-.78-1.777a9.194,9.194,0,0,0-.948-1.346,8.876,8.876,0,0,0-2.52-2.086,11.382,11.382,0,0,0-5.077-1.37,13.153,13.153,0,0,0-6.693,1.589,22.573,22.573,0,0,0-4.418,3.548c-3.5,3.3-8.114,5.1-12.045,7.814a24.545,24.545,0,0,0-5.678,5.15,7.463,7.463,0,0,0-1.4,6.735c2.789,11.377,17.681,11.478,26.6,8.409C190.947,427.41,189.908,423.545,187.464,424.386Z"/><path class="c" d="M40.851,221.374l-10.7,65.854L27.11,305.9a2.063,2.063,0,0,0,1.4,2.461,2.016,2.016,0,0,0,2.46-1.4l10.7-65.855,3.036-18.675a2.062,2.062,0,0,0-1.4-2.46,2.015,2.015,0,0,0-2.46,1.4Z"/><path class="c" d="M194.278,89.974c9.188,2.814,18.432,6.53,25.987,12.608a46.394,46.394,0,0,1,15.091,22.294c3.4,10.587,4.308,21.894,4.077,32.961a142.923,142.923,0,0,1-1.323,16.828,53.552,53.552,0,0,1-3.934,14.286,48.544,48.544,0,0,1-10.17,14.825c-2.292,2.328-4.774,4.477-7.27,6.582a8.944,8.944,0,0,1-3.017,1.878,5.74,5.74,0,0,1-3.832-.453,2.015,2.015,0,0,0-2.46,1.4,2.045,2.045,0,0,0,1.4,2.46,9.039,9.039,0,0,0,7.87-.36c2.407-1.322,4.471-3.455,6.522-5.256a55.254,55.254,0,0,0,12.2-14.469,55.835,55.835,0,0,0,5.669-14.438,113.47,113.47,0,0,0,2.086-17.072c.756-11.91.237-24.139-2.68-35.752-2.5-9.948-7.141-19.178-14.715-26.221-8.514-7.917-19.447-12.591-30.433-15.955-2.467-.756-3.522,3.1-1.064,3.857Z"/><path class="c" d="M163.574,87.394c-8.42,2.939-16.991,5.4-24.276,10.744a59.043,59.043,0,0,0-16.044,18.182,85.564,85.564,0,0,0-9.217,25.881,199.952,199.952,0,0,0-3.555,25.4,41.826,41.826,0,0,0,.737,11.243,33.2,33.2,0,0,0,5.451,12.3c1.457,2.1,4.926.1,3.454-2.019a29.756,29.756,0,0,1-4.69-9.776,37.07,37.07,0,0,1-1.042-10c.16-7.535,1.626-15.148,2.882-22.556,2.794-16.474,9.01-32.821,22.2-43.76a47.228,47.228,0,0,1,10.682-6.58c4.663-2.111,9.655-3.517,14.481-5.2,2.415-.843,1.376-4.709-1.063-3.858Z"/><path class="c" d="M135.518,163.357v24.157c0,2.573,4,2.578,4,0V163.357c0-2.574-4-2.578-4,0Z"/><path class="c" d="M210.831,155.942a47.945,47.945,0,0,1-3.677,17.319c-2.322,5.186-6.249,9.572-9.772,13.973a2.062,2.062,0,0,0,0,2.829,2.014,2.014,0,0,0,2.828,0c3.807-4.754,8.094-9.5,10.55-15.129a53.6,53.6,0,0,0,4.071-18.992c.131-2.573-3.87-2.566-4,0Z"/><path class="c" d="M156.128,92.471c4.986,6.955,13.584,8.936,21.744,8.217a36.322,36.322,0,0,0,22.337-9.942c1.848-1.8-.982-4.626-2.828-2.828a31.887,31.887,0,0,1-19.047,8.726c-6.687.677-14.54-.317-18.752-6.192a2.057,2.057,0,0,0-2.736-.717,2.017,2.017,0,0,0-.718,2.736Z"/><path class="a" d="M175.856,204.157H141.4c-.4,0,0,8.031,0,8.031H184.22l-.1-8.031Z"/><path class="c" d="M205.883,388.851c.041,1.621.033,3.242.08,4.863.023.77.036,1.547.126,2.313a5.926,5.926,0,0,0,2.381,4.133,2.006,2.006,0,0,0,2.737-.718,2.061,2.061,0,0,0-.718-2.736c.4.3-.012-.067-.092-.144q-.141-.165.082.108-.087-.123-.162-.255l-.074-.132c-.1-.2-.093-.18.011.063a1.517,1.517,0,0,1-.149-.431c-.074-.252-.064-.667-.016.112-.007-.119-.025-.237-.035-.355-.064-.792-.082-1.588-.1-2.382-.037-1.479-.032-2.96-.069-4.439a2,2,0,0,0-4,0Z"/><path class="a" d="M26.559,354.764a52.268,52.268,0,0,1-2.712-15.006,93.811,93.811,0,0,1,.605-12.177A4.038,4.038,0,0,1,28.11,323.8c4.754-.2,10.088-.333,15.689-.365l5.352-7.406q4.561-6.8,9.388-13.421l-3.424-7.554s-2.556-5.631-3.476-8.146c-4.265-11.655-2.117-23.7,7.083-33.144a26.874,26.874,0,0,1,8.352-5.643v-5.12c14.062-10.074,35.688-11.261,60.813-2.623,7.561,2.6,20.1,10.494,26.075,20.568l4.7,5.532c5.255,12.755,8.073,26.831,3.477,40.289-3.907,11.442-9.555,22.454-15.132,33.162a273.9,273.9,0,0,1-18.9,31.061c-4.445,6.318-9.68,13.132-16.267,17.354L98.676,391.67c-4.244.529-6.537,1.22-11.7,1.041a93.9,93.9,0,0,1-15.944-1.577A63.592,63.592,0,0,1,42.09,377.222a51.356,51.356,0,0,1-11.449-13.394A49.368,49.368,0,0,1,26.559,354.764Z"/><path class="a" d="M32.951,315.6l-4.841.364V323.8c17.5-.743,42.858-.523,60.448,1.987a20.483,20.483,0,0,1,6.061,2.243,28.669,28.669,0,0,1,6.693,5.045c5.4,5.744,13.009,14.3,17.965,20.211q2.1-4.235,4.265-8.62c-5.655-6.775-10.573-12.241-16.256-18.284a40.164,40.164,0,0,0-6.935-5.8,20.78,20.78,0,0,0-6.4-2.545c-18-2.846-43.315-3.2-60.813-2.456Z"/><path class="c" d="M56.808,301.6q-4.541,6.239-8.85,12.64a2.014,2.014,0,0,0,.718,2.737,2.048,2.048,0,0,0,2.736-.718q4.307-6.4,8.85-12.64a2.007,2.007,0,0,0-.717-2.736,2.057,2.057,0,0,0-2.737.717Z"/><path class="c" d="M33.137,317.584c12.38-.519,24.8-.466,37.175.174,6.189.319,12.375.794,18.525,1.562A30.269,30.269,0,0,1,96.79,321a25.753,25.753,0,0,1,7.553,5.276c2.859,2.689,5.454,5.714,8.083,8.626q4.053,4.489,7.96,9.11c1.666,1.967,4.483-.875,2.828-2.829-4.772-5.636-9.665-11.212-14.8-16.517-4.363-4.5-9.44-7.912-15.715-8.826a288.72,288.72,0,0,0-38.773-2.572c-6.929-.067-13.861.025-20.784.316-2.565.107-2.578,4.108,0,4Z"/><path class="g" d="M158.663,266.482l-4.7-5.532c-5.979-10.074-18.514-17.969-26.075-20.568-25.125-8.638-46.751-7.451-60.813,2.623v5.123A36.853,36.853,0,0,1,86,245.256c6.043.732,12.421,2.488,16.627,4.742,11.144,5.968,14.433,9.184,22.355,20.268,4.551,6.367,8.989,17.063,12.348,25.953l4.061,12.325c-7.516,15.226-15.132,30.642-22.109,44.744l-.96-1.134c-4.94-5.836-11.944-13.689-17.008-19.075a28.669,28.669,0,0,0-6.693-5.045,20.483,20.483,0,0,0-6.061-2.243c-17.59-2.51-42.95-2.73-60.448-1.987a4.038,4.038,0,0,0-3.658,3.777,93.811,93.811,0,0,0-.605,12.177,51.824,51.824,0,0,0,6.794,24.07A51.356,51.356,0,0,0,42.09,377.222a63.592,63.592,0,0,0,28.939,13.912,93.9,93.9,0,0,0,15.944,1.577c5.166.179,7.459-.512,11.7-1.041l13.166-3.322c6.587-4.222,11.822-11.036,16.267-17.354a273.9,273.9,0,0,0,18.9-31.061c5.577-10.708,11.225-21.72,15.132-33.162,4.6-13.458,1.778-27.534-3.477-40.289l-4.7-5.532"/><path class="c" d="M92.227,409.673c2.574,0,2.578-4,0-4s-2.578,4,0,4Z"/><path class="c" d="M139.256,295.687c-2.139-5.652-4.393-11.278-7.02-16.724a81.215,81.215,0,0,0-8.334-13.551,57.36,57.36,0,0,0-8.609-9.609,63.858,63.858,0,0,0-10.965-7.159,49.729,49.729,0,0,0-16.912-5.2,39.385,39.385,0,0,0-16.343,1.11,31.531,31.531,0,0,0-13.521,7.555,34.25,34.25,0,0,0-8.7,14.286,33,33,0,0,0-.121,17.97,77.112,77.112,0,0,0,4.654,11.7,2.015,2.015,0,0,0,2.736.718,2.049,2.049,0,0,0,.718-2.737c-1.257-2.771-2.563-5.554-3.547-8.436a29.991,29.991,0,0,1-1.41-14.636,28.3,28.3,0,0,1,17.869-21.791,35.365,35.365,0,0,1,14.727-2.077,46.423,46.423,0,0,1,15.844,3.972,59.311,59.311,0,0,1,11.034,6.652,45.579,45.579,0,0,1,7.7,7.895,80.094,80.094,0,0,1,8.98,13.848A183.444,183.444,0,0,1,135.4,296.75a2.055,2.055,0,0,0,2.46,1.4,2.015,2.015,0,0,0,1.4-2.46Z"/><path class="c" d="M156.734,267.014c3.3,8.068,5.719,16.638,5.72,25.415,0,9.09-3.277,17.452-6.907,25.65-3.7,8.371-7.907,16.551-12.26,24.6q-6.462,11.95-14.087,23.221c-5.125,7.573-10.571,15.652-18.368,20.72-2.15,1.4-.147,4.863,2.019,3.454,7.162-4.656,12.414-11.55,17.257-18.458A273.9,273.9,0,0,0,145.15,347.6c4.561-8.2,8.872-16.589,12.778-25.118,3.88-8.474,7.744-17.274,8.408-26.676.724-10.237-1.892-20.447-5.745-29.854a2.064,2.064,0,0,0-2.46-1.4,2.012,2.012,0,0,0-1.4,2.46Z"/><path class="a" d="M92.227,407.673c12.57-24.825,79.468-160.427,92.022-186.337l8.215,4.07c-12.28,25.344-77.716,157.984-90.011,182.267"/><path class="a" d="M166.755,408.132c-8.641-18.011-17.219-40.453-30.851-67.792-2.078,4.2-4.124,8.34-6.12,12.373,12.394,25.386,20.532,46.4,28.709,63.458"/><path class="c" d="M68.084,244.732c9.536-6.772,21.4-8.675,32.875-7.994a94.966,94.966,0,0,1,21.359,3.958,56.724,56.724,0,0,1,15.342,6.914c5.7,3.735,11.036,8.466,14.575,14.35,1.326,2.2,4.786.194,3.454-2.019a49.167,49.167,0,0,0-13.61-14.132,55.76,55.76,0,0,0-15.274-7.9c-13.622-4.482-28.5-6.915-42.735-4.136a46.452,46.452,0,0,0-18,7.5,2.056,2.056,0,0,0-.718,2.737,2.017,2.017,0,0,0,2.737.717Z"/><path class="c" d="M182.522,220.327q-6.342,13.085-12.781,26.123-10.167,20.7-20.37,41.392-11.5,23.331-23.024,46.65-10.434,21.111-20.9,42.207-6.945,14-13.941,27.968-.5,1-1.008,2c-1.16,2.292,2.29,4.319,3.454,2.019,4.31-8.513,8.544-17.065,12.788-25.611q10.209-20.555,20.374-41.129,11.526-23.312,23.025-46.635,10.46-21.215,20.894-42.441,6.984-14.214,13.934-28.447.5-1.037,1.007-2.073c1.117-2.307-2.331-4.338-3.454-2.019Z"/><path class="c" d="M190.737,224.4q-6.222,12.84-12.541,25.634-9.915,20.189-19.862,40.36Q147.092,313.2,135.826,336q-10.23,20.7-20.49,41.383-6.8,13.7-13.65,27.384-.48.951-.96,1.9c-1.16,2.292,2.289,4.319,3.454,2.019,4.229-8.354,8.383-16.746,12.549-25.133q9.954-20.04,19.865-40.1,11.268-22.788,22.508-45.589,10.255-20.8,20.487-41.611,6.839-13.918,13.643-27.855.48-.987.959-1.975c1.118-2.307-2.33-4.338-3.454-2.019Z"/><path class="c" d="M134.323,341.637c8.964,18.023,16.787,36.544,24.942,54.937,1.868,4.213,3.772,8.411,5.763,12.567,1.112,2.321,4.562.294,3.454-2.019-7.91-16.509-14.716-33.529-22.391-50.149q-4.035-8.735-8.314-17.355c-1.147-2.305-4.6-.281-3.454,2.019Z"/><path class="c" d="M128.723,355.082c8.053,16.617,15.2,33.628,22.708,50.492,1.732,3.89,3.5,7.766,5.336,11.606,1.111,2.321,4.561.294,3.453-2.019C152.914,399.9,146.573,384.2,139.565,368.8q-3.6-7.913-7.388-15.738c-1.123-2.316-4.573-.291-3.454,2.018Z"/><path class="c" d="M31.774,368.619q-8.441,12.42-16.348,25.188c-1.362,2.193,2.1,4.2,3.453,2.019q7.918-12.759,16.349-25.188c1.45-2.135-2.014-4.138-3.454-2.019Z"/><path class="c" d="M34.6,381.548q-4.657,6.695-8.955,13.627a2,2,0,0,0,3.454,2.019q4.291-6.935,8.954-13.627a2.017,2.017,0,0,0-.717-2.736,2.04,2.04,0,0,0-2.736.717Z"/><path class="c" d="M109.916,222.048c-3.562,3.515-7.116,7.044-10.475,10.756a2,2,0,0,0,2.828,2.829c3.359-3.713,6.913-7.241,10.475-10.757a2,2,0,1,0-2.828-2.828Z"/><path class="h" d="M162.613,401.514c-7.191,1.62-10.741,9.047-9.079,16.429,1.861,8.258,8.219,12.8,15.3,11.206,7.358-1.657,10.87-8.479,9.021-16.685C176.186,405.033,169.779,399.9,162.613,401.514Z"/><path class="h" d="M101.7,405.255c-7.818-1.389-14.441,4.508-15.868,12.532-1.6,8.979,2.825,16.143,10.528,17.512,8,1.422,14.331-3.89,15.917-12.811C113.715,414.409,109.492,406.64,101.7,405.255Z"/><path class="c" d="M162.082,399.586c-6.481,1.555-10.541,7.342-10.925,13.833-.369,6.256,2.7,13.269,8.335,16.358a14.414,14.414,0,0,0,16.711-2.383c4.517-4.491,5.089-11.784,2.97-17.551-2.617-7.118-9.428-11.87-17.091-10.257-2.518.53-1.452,4.386,1.063,3.857,10.411-2.191,16.864,12.3,11.151,20.069a10.362,10.362,0,0,1-11.629,3.348c-4.471-1.661-7.107-6.647-7.481-11.2-.455-5.521,2.332-10.87,7.959-12.22C165.647,402.843,164.588,398.985,162.082,399.586Z"/><path class="a" d="M164.7,410.768c-2.376.535-3.548,2.988-3,5.426.614,2.728,2.715,4.229,5.055,3.7,2.43-.547,3.59-2.8,2.98-5.511C169.181,411.93,167.065,410.234,164.7,410.768Z"/><path class="c" d="M164.166,408.839a6.214,6.214,0,0,0-4.593,5.894,7.213,7.213,0,0,0,3.413,6.524,6.123,6.123,0,0,0,7.171-1.017,6.9,6.9,0,0,0,1.28-7.135,6.994,6.994,0,0,0-2.821-3.573,6.014,6.014,0,0,0-4.45-.693,2.014,2.014,0,0,0-1.4,2.46,2.048,2.048,0,0,0,2.46,1.4l.125-.026q.328-.056-.162.018a1.256,1.256,0,0,0,.243-.016c.121-.005.24,0,.36,0,.187,0,.2.113-.18-.034.172.067.388.076.567.133.058.018.41.166.087.02s.119.069.178.1.134.078.2.12l.1.064q.255.181-.123-.1c.075.131.286.249.394.359.069.072.134.149.2.222.283.3-.2-.3-.052-.07.123.192.25.377.357.579.024.047.121.325.163.341-.041-.016-.161-.461-.06-.12.061.21.132.413.18.627.026.112.042.225.067.336.066.29-.044-.515-.008-.069a6.694,6.694,0,0,1,.028.763c0,.082-.01.163-.014.245-.02.42.092-.38.022-.114-.045.168-.065.343-.113.511-.031.11-.07.216-.105.325-.1.307.049-.144.074-.169a3.626,3.626,0,0,0-.326.571c-.2.324.271-.268.081-.1-.066.057-.121.137-.183.2s-.1.1-.157.15l-.083.072q-.24.2.144-.111a2.446,2.446,0,0,0-.481.289c-.158.092-.21,0,.162-.059a3.288,3.288,0,0,0-.394.137,2.9,2.9,0,0,0-.53.123l.3-.038c-.076.008-.152.015-.229.019s-.151.007-.226.007c-.113,0-.223-.01-.335-.015-.2-.008-.135-.117.2.029a6.2,6.2,0,0,0-.631-.167c-.3-.091.152.055.177.078a1.721,1.721,0,0,0-.29-.149c-.064-.036-.126-.074-.188-.114-.214-.138-.185-.271.047.053a4.731,4.731,0,0,0-.412-.385c-.053-.056-.1-.116-.154-.172-.268-.289.222.347.027.031-.108-.174-.22-.341-.315-.522a2.943,2.943,0,0,0-.165-.341c.033,0,.169.473.057.116-.067-.215-.141-.425-.2-.645-.026-.109-.05-.218-.071-.328-.1-.51,0,.361-.006-.044-.006-.232-.021-.461-.009-.693a1.426,1.426,0,0,0,.025-.309q-.066.461-.027.228c.01-.06.022-.12.035-.18a3.493,3.493,0,0,0,.205-.69c.019.216-.174.363-.062.152.074-.138.142-.277.225-.411.041-.066.087-.129.129-.194.211-.331-.285.3-.025.041.083-.082.158-.169.243-.249.043-.04.086-.078.131-.116q.173-.145-.176.132a3.648,3.648,0,0,0,.611-.362c-.078.142-.392.138-.14.061.161-.049.319-.1.482-.14a2.018,2.018,0,0,0,1.4-2.46A2.042,2.042,0,0,0,164.166,408.839Z"/><path class="c" d="M102.233,403.327a15.591,15.591,0,0,0-16.619,8.81c-3.022,6.166-3,14.256,1.349,19.8a15.263,15.263,0,0,0,17.26,4.584c6.5-2.638,10-9.577,10.314-16.336.364-7.766-4.4-15.348-12.3-16.858-2.515-.481-3.593,3.374-1.063,3.857a11.62,11.62,0,0,1,9.327,10.747c.449,5.068-1.512,11.149-5.985,13.982a11.264,11.264,0,0,1-13.1-1.048c-4.062-3.614-4.67-9.639-3.157-14.617,1.693-5.569,6.843-10.062,12.911-9.064a2.06,2.06,0,0,0,2.46-1.4A2.015,2.015,0,0,0,102.233,403.327Z"/><path class="a" d="M100.005,414.8c-2.849-.506-5.263,1.643-5.783,4.567-.581,3.272,1.03,5.883,3.837,6.382,2.915.518,5.223-1.418,5.8-4.669C104.383,418.139,102.844,415.308,100.005,414.8Z"/><path class="c" d="M100.537,412.875a6.881,6.881,0,0,0-4.609.72,7.271,7.271,0,0,0-2.918,3.146,8.277,8.277,0,0,0,.74,8.705,6.8,6.8,0,0,0,7.75,1.876,7.9,7.9,0,0,0,4.454-7.086,7.071,7.071,0,0,0-5.417-7.361,2,2,0,1,0-1.064,3.857c.245.047.477.12.717.185.455.122-.355-.212.05.017.082.046.167.086.248.132a2.2,2.2,0,0,0,.3.185c.239.082-.33-.308-.019-.02.14.13.554.4.578.588,0-.011-.269-.4-.063-.074.062.1.128.193.187.293a2.176,2.176,0,0,1,.288.561c-.109-.5-.039-.065,0,.054q.043.137.081.276c.037.141.062.284.1.425.095.4-.011-.4.008.053.01.252.028.5.019.753,0,.1-.015.2-.018.306-.013.51.1-.42-.008.085a5.47,5.47,0,0,1-.428,1.511c.267-.47-.114.194-.18.31s-.153.237-.224.358-.095.286.068-.072a2.186,2.186,0,0,1-.45.5c-.064.061-.132.117-.195.178q-.249.2.1-.07c-.07.05-.142.1-.215.146-.162.1-.35.173-.508.28-.219.146.466-.144.059-.031-.083.023-.164.054-.248.078-.127.036-.255.06-.383.09-.382.091.135-.037.135-.014a5.3,5.3,0,0,1-.827.011c-.458,0,.31.092.03.012-.112-.032-.235-.042-.349-.069s-.625-.113-.656-.2c0-.009.453.228.111.041-.116-.063-.234-.12-.347-.188-.074-.045-.145-.1-.219-.141-.355-.212.269.262-.005,0-.156-.15-.306-.3-.456-.456-.306-.318.225.374,0-.007-.045-.074-.1-.145-.142-.22-.057-.094-.1-.194-.161-.288l-.031-.059q-.137-.294.037.11c-.149-.131-.208-.611-.249-.789-.022-.092-.037-.186-.059-.278-.107-.459.016.332,0,.029-.011-.226-.033-.45-.032-.676,0-.263.021-.523.047-.784-.05.509.011-.019.03-.11.031-.154.067-.307.11-.458q.042-.15.09-.3c.033-.1.067-.194.1-.29q-.159.363-.021.059c.116-.221.226-.442.361-.653a2.54,2.54,0,0,1,.25-.363c-.352.381,0,.021.059-.04.082-.088.166-.173.253-.254q.078-.075.159-.144.252-.209-.073.048c.113-.18.481-.3.659-.4l.063-.032c.2-.092.169-.081-.092.034a1.476,1.476,0,0,1,.4-.132,2.438,2.438,0,0,0,.345-.08q.228-.042-.178.017c.1-.011.192-.019.289-.023s.2-.006.293,0c.119,0,.77.09.22,0a2.051,2.051,0,0,0,2.46-1.4A2.023,2.023,0,0,0,100.537,412.875Z"/><path class="h" d="M18.2,401.576c-7.818-1.39-14.441,4.507-15.868,12.531-1.6,8.979,2.825,16.143,10.528,17.513,8,1.421,14.331-3.891,15.917-12.812C30.215,410.729,25.992,402.96,18.2,401.576Z"/><path class="c" d="M18.733,399.647a15.593,15.593,0,0,0-16.619,8.81c-3.022,6.166-3,14.257,1.349,19.8a15.263,15.263,0,0,0,17.26,4.584c6.5-2.638,10-9.577,10.314-16.335.364-7.767-4.4-15.349-12.3-16.859-2.515-.481-3.593,3.374-1.063,3.857A11.62,11.62,0,0,1,27,414.251c.449,5.068-1.512,11.149-5.985,13.983a11.267,11.267,0,0,1-13.1-1.048c-4.062-3.614-4.67-9.64-3.157-14.618C6.452,407,11.6,402.506,17.67,403.5a2.06,2.06,0,0,0,2.46-1.4A2.015,2.015,0,0,0,18.733,399.647Z"/><path class="a" d="M16.505,411.123c-2.849-.506-5.263,1.643-5.783,4.567-.581,3.272,1.03,5.883,3.837,6.382,2.915.518,5.223-1.418,5.8-4.669C20.883,414.459,19.344,411.628,16.505,411.123Z"/><path class="c" d="M17.037,409.2a6.881,6.881,0,0,0-4.609.72,7.271,7.271,0,0,0-2.918,3.146,8.277,8.277,0,0,0,.74,8.705A6.8,6.8,0,0,0,18,423.642a7.9,7.9,0,0,0,4.454-7.086,7.071,7.071,0,0,0-5.417-7.361,2,2,0,1,0-1.064,3.857c.245.047.477.121.717.185.455.122-.355-.211.05.017.082.047.167.086.248.132a2.1,2.1,0,0,0,.3.185c.239.082-.33-.308-.019-.02.14.13.554.4.578.588,0-.011-.269-.4-.063-.074.062.1.128.193.187.293a2.176,2.176,0,0,1,.288.561c-.109-.5-.039-.065,0,.054.029.091.056.184.081.276.037.141.062.284.1.425.095.4-.011-.4.008.053.01.252.028.5.019.753,0,.1-.015.2-.017.306-.014.511.1-.42-.009.086a5.473,5.473,0,0,1-.428,1.51c.267-.47-.114.194-.18.31s-.153.237-.224.358-.095.287.068-.071a2.2,2.2,0,0,1-.45.5c-.064.061-.132.117-.2.178q-.249.2.1-.07c-.07.051-.142.1-.215.146-.162.1-.35.174-.508.28-.219.147.466-.144.059-.031-.083.023-.164.054-.248.078-.127.036-.255.06-.383.09-.382.091.135-.037.136-.014a5.193,5.193,0,0,1-.828.011c-.458,0,.31.092.03.012-.112-.032-.235-.042-.349-.069s-.625-.113-.656-.2c0-.009.454.229.111.041-.116-.063-.233-.12-.347-.188-.074-.045-.145-.1-.219-.141-.355-.212.269.262,0,0-.156-.15-.306-.3-.456-.456-.306-.318.225.375,0-.006-.045-.075-.1-.146-.142-.221-.057-.094-.1-.194-.161-.288l-.031-.059q-.136-.294.037.111c-.149-.132-.208-.612-.249-.789-.022-.093-.037-.186-.059-.279-.107-.459.016.332,0,.029-.011-.226-.033-.449-.032-.676,0-.262.021-.523.047-.784-.05.51.011-.018.03-.11.031-.154.067-.307.11-.458q.042-.15.09-.3c.033-.1.067-.194.1-.29q-.159.363-.021.059c.116-.221.226-.442.361-.653a2.54,2.54,0,0,1,.25-.363c-.351.381,0,.021.059-.04.082-.088.166-.172.253-.254q.078-.075.159-.144.252-.208-.072.048c.112-.18.48-.3.658-.4l.063-.032c.2-.092.169-.081-.092.034a1.488,1.488,0,0,1,.4-.132,2.438,2.438,0,0,0,.345-.08q.228-.042-.178.017c.1-.011.192-.018.289-.023s.195-.006.293,0c.119,0,.77.091.22,0a2.051,2.051,0,0,0,2.46-1.4A2.023,2.023,0,0,0,17.037,409.2Z"/><path class="c" d="M28.11,325.8c13.188-.554,26.423-.535,39.607.127,6.377.32,12.759.788,19.092,1.621a19.662,19.662,0,0,1,7.859,2.84,35.158,35.158,0,0,1,7.483,6.521q7.587,8.22,14.835,16.75c1.666,1.967,4.484-.874,2.829-2.828q-6.66-7.866-13.643-15.453a48.5,48.5,0,0,0-7.236-6.961,26.647,26.647,0,0,0-8.72-4.323,60.337,60.337,0,0,0-9.109-1.2c-3.36-.333-6.727-.588-10.1-.79-6.951-.418-13.915-.617-20.878-.669q-11.013-.082-22.022.361c-2.565.108-2.579,4.108,0,4Z"/><path class="c" d="M28.11,321.8a5.951,5.951,0,0,0-4.689,2.773c-1.055,1.688-1.069,3.764-1.233,5.689a71.715,71.715,0,0,0-.164,12.442,53.217,53.217,0,0,0,7.626,23.349c8.811,14.136,24.367,23.507,40.441,26.92a93.97,93.97,0,0,0,16.155,1.708,75.237,75.237,0,0,0,12.43-1.015,2.064,2.064,0,0,0,2-2,2.012,2.012,0,0,0-2-2,83.13,83.13,0,0,1-9.682,1.067,96.574,96.574,0,0,1-12.921-.78,63.214,63.214,0,0,1-21.658-6.791,59.278,59.278,0,0,1-18.174-14.707,47.317,47.317,0,0,1-9.275-19.712,52.5,52.5,0,0,1-1.105-13.006c.067-2.095.2-4.188.4-6.275.116-1.251.13-3.511,1.851-3.662a2.053,2.053,0,0,0,2-2,2.015,2.015,0,0,0-2-2Z"/><path class="a" d="M90.628,260.626c-7.766-.914-15.128,1.717-19.78,8a21.071,21.071,0,0,0-2.6,6.064c-1.061,4.133-.042,8.437-.529,12.629-.455,3.926-1.5,7.876.061,11.714,1.96,4.805,6.928,7.079,11.511,8.694a26.425,26.425,0,0,0,11.85,1.078,16.892,16.892,0,0,0,11.03-5.766,5.92,5.92,0,0,0,2.961.757,7.459,7.459,0,0,0,3.225-1.03,19.068,19.068,0,0,0,2.226-1.379,7.272,7.272,0,0,0,2.556-6.9,4.658,4.658,0,0,0-2.886-3.4l.9-1.742c1.832-2.854,2.149-8.77,1.827-12.228a19.364,19.364,0,0,0-.764-4.076c-1.942-6.12-7.99-10.15-14.2-11.785Z"/><path class="c" d="M90.628,258.626A23.684,23.684,0,0,0,73.4,263.184a20.325,20.325,0,0,0-7.648,16.627c.014,1.881.159,3.76.1,5.642-.055,1.848-.386,3.666-.624,5.5-.465,3.576-.379,7.2,1.468,10.4a16.093,16.093,0,0,0,6.372,5.87,31.447,31.447,0,0,0,8.675,3.249c7.384,1.48,15.835.325,21.242-5.321,1.78-1.86-1.044-4.692-2.829-2.829-4.04,4.22-10.073,5.2-15.677,4.56a25.993,25.993,0,0,1-7.794-2.315,15.213,15.213,0,0,1-5.846-4.184c-1.82-2.352-2.045-5.21-1.769-8.074a75.637,75.637,0,0,0,.757-9.674c-.1-3.154-.162-6.13.886-9.147a14.755,14.755,0,0,1,3.956-6.154c4.308-4.053,10.208-5.34,15.961-4.706a2.012,2.012,0,0,0,2-2,2.045,2.045,0,0,0-2-2Z"/><path class="c" d="M108.637,292.773c-.483.067.239.028.332.026q.354.032-.02-.01c.112.02.224.045.334.075a3.94,3.94,0,0,1,.489.161c-.426-.175.215.153.289.191q.28.2.019-.009c.091.073.179.149.264.229.129.121.245.25.364.38-.276-.3.148.234.2.32.059.1.115.21.166.318q-.123-.3,0,.028c.051.179.1.355.142.535.04.23.042.218.006-.034.013.113.022.226.029.34a7.106,7.106,0,0,1-.041,1.229c.055-.468-.065.273-.085.356-.056.236-.122.47-.2.7-.011.033-.222.585-.059.2a6.429,6.429,0,0,1-.32.644c-.116.207-.246.4-.377.6-.225.34.2-.166-.118.14-.162.158-.318.322-.483.477s-.171.144.01,0l-.248.17a15.945,15.945,0,0,1-2.2,1.309c-.27.128-.539.261-.813.379.246-.106-.407.143-.48.164s-.616.141-.268.089a3.607,3.607,0,0,1-.588.023c-.134,0-.267-.013-.4-.02-.51-.029.271.1-.177-.029a4.927,4.927,0,0,1-1.309-.482,2,2,0,0,0-2.019,3.454,7.6,7.6,0,0,0,6.018.761,16.22,16.22,0,0,0,5.237-2.931c2.886-2.448,4.021-7.7,1.738-10.882a6.611,6.611,0,0,0-6.5-2.753,2,2,0,0,0-1.4,2.46,2.064,2.064,0,0,0,2.46,1.4Z"/><path class="c" d="M97.486,263.178c5.106,1.383,10.479,4.46,12.531,9.611a20.282,20.282,0,0,1,1.043,8.336c-.1,2.4-.352,5.109-1.633,7.2-1.346,2.2,2.112,4.215,3.454,2.019,1.62-2.651,2.025-6,2.171-9.046a23.552,23.552,0,0,0-1.376-10.056c-2.595-6.279-8.773-10.2-15.126-11.925-2.488-.674-3.55,3.184-1.064,3.857Z"/><path class="c" d="M80.734,286.7c.175,1.286-.531,4.058-2.877,3.907-3.046-.535-2.651-3.963-1.363-5.388C77.549,284.047,80.11,283.921,80.734,286.7Z"/><path class="c" d="M94.9,289.073c.175,1.286-.531,4.058-2.877,3.906-3.046-.534-2.651-3.962-1.363-5.387C91.718,286.425,94.279,286.3,94.9,289.073Z"/><path class="c" d="M78.152,299.654a6.567,6.567,0,0,0,3.986,2.584,6.868,6.868,0,0,0,5.118-.4,2,2,0,0,0-2.019-3.454,2.348,2.348,0,0,1-.3.15l.478-.2a3.839,3.839,0,0,1-.92.235l.532-.072a6.04,6.04,0,0,1-1.5-.016l.531.072a7.739,7.739,0,0,1-1.895-.512l.478.2a5.32,5.32,0,0,1-1.091-.626l.4.313a3.311,3.311,0,0,1-.567-.549l.313.4c-.036-.048-.071-.1-.1-.147a2,2,0,0,0-3.454,2.019Z"/><path class="c" d="M87.264,272.864a8.013,8.013,0,0,0,1.874,5.058,7.842,7.842,0,0,0,3.982,2.61,2,2,0,1,0,1.063-3.857,6.283,6.283,0,0,1-.7-.244l.478.2a6.247,6.247,0,0,1-1.281-.748l.4.312a6.517,6.517,0,0,1-1.166-1.169l.313.4a6.417,6.417,0,0,1-.783-1.358l.2.478a6,6,0,0,1-.388-1.459l.072.532c-.03-.254-.05-.508-.067-.762a2.124,2.124,0,0,0-.586-1.414,2,2,0,0,0-3.414,1.414Z"/><path class="a" d="M60.189,314.267c-1.872.323-4.563.164-5.968-1.276a5.465,5.465,0,0,1-1.343-3,5.622,5.622,0,0,1,.292-2.9,5.966,5.966,0,0,1,2.949-2.821,7.045,7.045,0,0,1,4.378-.427,7.2,7.2,0,0,1,3.65,1.886,3.759,3.759,0,0,1,1.125,1.916,4.073,4.073,0,0,1-.446,2.747A6.825,6.825,0,0,1,60.189,314.267Z"/><path class="a" d="M99.06,322.284a5.941,5.941,0,0,1,3.059-5.024,8.6,8.6,0,0,1,7.921.2c2.384,1.417,4.51,3.454,4.761,6.575a6.153,6.153,0,0,1-5.326,5.647c-3.228.172-4.065-.283-6.511-2.4-1-.865-3.149-1.63-3.6-2.872A5.265,5.265,0,0,1,99.06,322.284Z"/><path class="c" d="M79.947,271.546a7.634,7.634,0,0,0,3.308,7.966,2.016,2.016,0,0,0,2.736-.718,2.043,2.043,0,0,0-.717-2.736q-.207-.134-.4-.284l.405.312a5.583,5.583,0,0,1-.92-.93l.312.4a5.988,5.988,0,0,1-.74-1.275l.2.478a5.967,5.967,0,0,1-.388-1.423l.071.532a5.622,5.622,0,0,1-.007-1.39l-.071.531c.019-.136.042-.27.07-.4a2.133,2.133,0,0,0-.2-1.542,2,2,0,0,0-3.655.478Z"/><path class="c" d="M59.657,312.339c-.369.06,0,0,.061,0-.109.012-.218.024-.328.034-.227.019-.455.032-.682.036s-.47,0-.7-.012c-.119-.006-.237-.017-.355-.025-.568-.039.382.089-.175-.022-.2-.041-.4-.081-.6-.134-.113-.03-.224-.063-.335-.1-.056-.018-.4-.143-.163-.05s-.093-.048-.147-.075c-.1-.052-.2-.106-.29-.165-.052-.032-.335-.237-.135-.08s-.128-.13-.166-.166c-.252-.238-.131-.132-.063-.044a3.374,3.374,0,0,1-.214-.325c-.041-.07-.321-.715-.214-.409a7.481,7.481,0,0,1-.225-.758c-.03-.128-.056-.257-.08-.386-.1-.554-.015.311-.026-.287a6.682,6.682,0,0,1,.02-.849c-.011.1-.068.3.024-.1.032-.137.072-.272.1-.408.012-.052.137-.382.007-.079a2.883,2.883,0,0,1,.169-.321c.047-.08.1-.157.15-.235.107-.162-.138.127.1-.119.182-.188.363-.371.558-.546.291-.261.129-.106.056-.052.1-.076.21-.149.318-.219a6.127,6.127,0,0,1,.649-.37,4.164,4.164,0,0,1,.739-.252,5.472,5.472,0,0,1,2.931.113q.178.051.354.111c.053.018.408.152.177.058-.176-.071.3.152.385.2.2.111.4.232.585.361.1.067.192.135.285.2-.328-.248.144.13.165.149.089.076.509.5.321.268a3.006,3.006,0,0,1,.409.679c-.159-.367.032.4.006.118.012.137.005.274.014.411.024.358.041-.051,0,.143-.025.127-.056.251-.093.374-.027.092-.161.414-.054.18a7.912,7.912,0,0,1-.452.822q-.213.348-.455.676c-.186.251.183-.213-.023.02-.1.113-.2.227-.3.336-.184.2-.381.375-.582.552-.231.2.237-.161-.015.014-.121.083-.242.167-.368.243-.1.06-.2.119-.307.173-.083.043-.538.184-.169.084-.292.079-.57.175-.869.232a2.011,2.011,0,0,0-1.4,2.46,2.052,2.052,0,0,0,2.46,1.4,9,9,0,0,0,6.359-6.032c1.068-3.317-1.176-6.326-4.129-7.618a9.211,9.211,0,0,0-9.834,1.338c-2.626,2.276-2.914,6.209-1.308,9.173,1.73,3.19,5.672,3.669,8.912,3.139a2.007,2.007,0,0,0,1.4-2.46A2.057,2.057,0,0,0,59.657,312.339Z"/><path class="c" d="M105.057,305.62a37.173,37.173,0,0,1,7.985,7.943,23.183,23.183,0,0,1,2.826,4.61,6.957,6.957,0,0,1,.586,2.68,4.253,4.253,0,0,1-.156,1.177c-.05.179-.173.389-.2.565-.113.687-.67-1.2.938.038l.718.717-.119-.205c-1.289-2.228-4.747-.216-3.454,2.018a2.863,2.863,0,0,0,4.033.963,5.453,5.453,0,0,0,2.062-3.535c.589-2.927-.434-5.788-1.926-8.277a41.9,41.9,0,0,0-11.272-12.148,2.014,2.014,0,0,0-2.736.718,2.046,2.046,0,0,0,.717,2.736Z"/><path class="c" d="M101.06,322.284c.053-.681-.047.173.02-.225.025-.145.057-.289.092-.432.044-.181.1-.358.153-.535,0-.008.125-.354.04-.147a4.121,4.121,0,0,1,.926-1.408,3.259,3.259,0,0,1,1.324-.731,7.32,7.32,0,0,1,2-.4,6.251,6.251,0,0,1,3.79,1.016,8.753,8.753,0,0,1,2.475,2.228,4.631,4.631,0,0,1,.739,1.524c.043.148.08.3.113.449.075.333.059.284.045.174a1.587,1.587,0,0,1-.034.784c-.086.284-.182.6-.192.618a5.721,5.721,0,0,1-.483.816c.122-.173-.271.312-.357.4s-.2.195-.3.288c-.017.017-.487.386-.233.2a3.9,3.9,0,0,1-1.23.665c-.157.048-.752.151-.31.1a11.231,11.231,0,0,1-1.131.045c-.31,0-.616-.014-.926-.026-.11,0-.515-.075-.1,0-.111-.019-.221-.039-.331-.064-.212-.048-.415-.117-.62-.183.426.137-.252-.134-.4-.224a7.427,7.427,0,0,1-1.368-1.018,14.512,14.512,0,0,0-1.885-1.387c-.334-.2-.671-.395-1-.606-.117-.076-.235-.152-.348-.234s-.112-.08,0,.006c-.074-.061-.145-.126-.213-.194-.04-.041-.277-.338-.139-.141.06.086,0-.085-.016-.153a3.854,3.854,0,0,1-.106-1.209,2,2,0,0,0-4,0,6.677,6.677,0,0,0,.639,3.294,5.863,5.863,0,0,0,2.071,2.027c.626.414,1.309.747,1.912,1.195-.405-.3.23.213.251.231.119.1.238.2.359.3.445.366.9.728,1.372,1.055a8.849,8.849,0,0,0,9.2.195,8.574,8.574,0,0,0,3.551-4.329,7.323,7.323,0,0,0-.537-5.671,11.568,11.568,0,0,0-9.493-6.177,9.881,9.881,0,0,0-6.6,2.016,8.425,8.425,0,0,0-2.727,5.864,2.017,2.017,0,0,0,2,2A2.039,2.039,0,0,0,101.06,322.284Z"/><path class="a" d="M124.5,220.3a14.075,14.075,0,0,1-5.414-4.962,13.288,13.288,0,0,1-2.615-8.014,22.4,22.4,0,0,1,.646-5.036,20.074,20.074,0,0,1,4.934-7.65c2.025-2.077,4.98-2.769,6.894-3.481a27.855,27.855,0,0,1,6.364-.932,13.13,13.13,0,0,1,5.834,1.213c3.363,1.489,5.87,4.418,7.858,7.508,1.006,1.565,1.937,3.511,1.15,5.211h-4.926c-1.073,3.414-.6,5.8.522,8.9a12.5,12.5,0,0,1,.368,1.278c.274,2.981-2.3,4.322-4.9,2.383-.4-.3-.806-.591-1.178-.9-.768,1.077-4.286,2.635-5.817,2.439a6.013,6.013,0,0,1-4.852,2.444,5.119,5.119,0,0,1-3.683.133C125.264,220.664,124.871,220.487,124.5,220.3Z"/><path class="a" d="M188.819,196.985c-2.919.2-5.86.323-8.15,1.893-1.55,1.062-4.284,4.319-6.059,7.094a15.071,15.071,0,0,0-2.2,6.286c-.113,1.961,1.237,4.15,3.205,4.2,1.772.044,2.892-1.514,3.87-3.1-2.507,1.492-1.91,5.73-.181,7.015a3.842,3.842,0,0,0,3.979.313,5.117,5.117,0,0,0,1.905-1.93c.392,1.555.478,3.106,1.5,4.27a3.545,3.545,0,0,0,3.033,1.042,3.671,3.671,0,0,0,2.687-1.57l1.942-2.956c-.812,2.232-.787,3.419-.2,5.006a3.465,3.465,0,0,0,2.131,1.508,4.1,4.1,0,0,0,2.388-.435c1.79-1.272,5.239-5.465,6.129-6.61,1.573-2.023,3.916-3.345,5.48-5.375.76-.987,2.165-5.046.22-7.8-1.545-2.366-3.148-4.793-5.479-6.394-2.153-1.478-5.542-4.77-9.819-3.752A16.961,16.961,0,0,1,188.819,196.985Z"/><path class="c" d="M182.934,204.96c-1.183,1.454-2.327,2.938-3.366,4.5-.873,1.31-1.588,2.78-2.559,4.02-.6.771-1.425,1.427-2.164.437-.825-1.1-.326-2.654.049-3.823a22.482,22.482,0,0,1,5.6-8.4c2.134-2.181,4.844-2.473,7.874-2.681a31.7,31.7,0,0,0,5.158-.637c1.568-.372,2.774-1.149,4.436-.768a11.191,11.191,0,0,1,3.888,1.964,28.368,28.368,0,0,1,3.3,2.541,23.187,23.187,0,0,1,3.172,4.041,5.346,5.346,0,0,1,1.106,3.965c-.4,3.011-3.071,4.358-5.11,6.413-2.072,2.089-3.712,4.57-5.849,6.617-.226.216-.453.433-.693.633-.263.218.058.078-.355.2a1.36,1.36,0,0,1-1.47-.321c-.264-.238-.014-.017.019.053a2.959,2.959,0,0,1-.167-.57,3.29,3.29,0,0,1-.082-.88,9.006,9.006,0,0,1,.733-2.678,2.017,2.017,0,0,0-1.4-2.461,2.046,2.046,0,0,0-2.461,1.4,9.294,9.294,0,0,0-.575,5.968,5,5,0,0,0,4.417,3.574c3.711.24,6.242-3.4,8.371-5.931a33.632,33.632,0,0,1,3.372-3.736c1.447-1.28,3.206-2.517,4.126-4.266a10.636,10.636,0,0,0,1.169-5.052c-.053-2.336-1.093-4.082-2.38-5.953a26.782,26.782,0,0,0-8.743-7.988,10.8,10.8,0,0,0-6.015-1.635,12.143,12.143,0,0,0-3.008.78,14.787,14.787,0,0,1-3.085.589c-4.049.385-8.3.26-11.58,3.043a28.82,28.82,0,0,0-4.19,4.754,22.172,22.172,0,0,0-3.188,5.614c-.851,2.28-1.317,4.814-.2,7.085a5.14,5.14,0,0,0,5.663,2.966c2.242-.522,3.573-2.524,4.693-4.368a54.625,54.625,0,0,1,4.312-6.178,2.058,2.058,0,0,0,0-2.828,2.015,2.015,0,0,0-2.829,0Z"/><path class="c" d="M175.98,215.142a7.137,7.137,0,0,0,1.675,6.44,5.816,5.816,0,0,0,6.872.688c1.825-1.132,2.654-3.056,3.688-4.836q.862-1.482,1.852-2.886c.693-.984,1.225-1.665,1.987-2.588a2.045,2.045,0,0,0,0-2.828,2.022,2.022,0,0,0-2.828,0,49.986,49.986,0,0,0-3.561,4.806q-.75,1.167-1.409,2.388c-.177.328-.351.657-.537.981-.092.16-.186.319-.285.475-.038.059-.373.546-.259.394s-.205.23-.248.276c-.061.063-.523.458-.195.215a4.334,4.334,0,0,1-.459.285c-.327.184.165,0-.232.076-.058.011-.613.074-.22.055a4.98,4.98,0,0,1-.573,0c.4.028-.127-.036-.219-.062-.123-.035-.243-.075-.362-.121q.236.093.047,0a2.637,2.637,0,0,1-.245-.146q.222.189.072.057c-.086-.079-.4-.505-.163-.144-.1-.146-.181-.3-.267-.448-.253-.452.076.316-.083-.2-.056-.182-.112-.362-.155-.549-.02-.09-.078-.585-.05-.237-.015-.2-.025-.392-.021-.588,0-.131.009-.261.02-.392-.033.209-.027.194.015-.045a2,2,0,1,0-3.857-1.064Z"/><path class="c" d="M183.561,220.66c.468,2.193,1.444,4.156,3.632,5.033a5.884,5.884,0,0,0,5.5-.689c1.565-1.143,2.448-3.108,3.467-4.716a23.333,23.333,0,0,1,3.206-4.192,2,2,0,0,0-2.828-2.828,49.307,49.307,0,0,0-5.613,7.836c-.028.042-.341.522-.2.321.113-.159-.21.217-.258.266-.148.15.228-.114-.081.061-.041.023-.546.284-.151.116a3.531,3.531,0,0,1-.511.163c-.053.013-.53.085-.272.062.236-.022-.318-.015-.378-.008-.2.021.23.078-.116-.015a4.045,4.045,0,0,1-.537-.162c.362.153-.148-.119-.178-.139.23.15.02,0-.082-.1-.084-.095-.084-.088,0,.023l-.11-.163a5.672,5.672,0,0,1-.279-.514c.148.332-.068-.236-.073-.253-.12-.383-.2-.775-.289-1.167a2.014,2.014,0,0,0-2.46-1.4,2.046,2.046,0,0,0-1.4,2.46Z"/><path class="c" d="M145.906,206.157h29.95c2.574,0,2.578-4,0-4h-29.95c-2.574,0-2.578,4,0,4Z"/><path class="c" d="M147.091,214.188h25.318c2.574,0,2.578-4,0-4H147.091c-2.574,0-2.578,4,0,4Z"/><path class="c" d="M134.664,207.662a19.227,19.227,0,0,0,2.086,7.144,7.545,7.545,0,0,0,2.22,2.709,10,10,0,0,0,3.13,1.884,4.552,4.552,0,0,0,5.455-2.149,5.57,5.57,0,0,0,.479-3.522c-.182-.945-.611-1.856-.885-2.777a15.56,15.56,0,0,1-.432-1.8c-.017-.1-.034-.2-.048-.295.054.386-.016-.242-.018-.259-.02-.266-.031-.532-.03-.8a7.606,7.606,0,0,1,.136-1.564,15.47,15.47,0,0,1,.579-2.092,2.012,2.012,0,0,0-1.4-2.46,2.048,2.048,0,0,0-2.46,1.4,13.657,13.657,0,0,0-.766,6.112,17.587,17.587,0,0,0,.641,3.027c.142.462.313.914.463,1.373a6.372,6.372,0,0,0,.334,1.086c-.024,0-.029-.556-.03-.244,0,.094.012.189.013.283,0,.162-.048.531.019.169-.033.178-.12.365-.139.542-.02.2.023-.087.055-.13a1.937,1.937,0,0,0-.145.25c.037-.07.3-.291.054-.074a.913.913,0,0,0-.148.143c-.1.155.085-.085.136-.1-.062.024-.113.079-.176.1-.21.083.171-.064.166-.063a2.679,2.679,0,0,0-.266.079c-.095.03-.246-.007-.016.01.292.021-.039-.012-.1-.015l-.228-.011c.094.005.405.1.06-.007-.163-.052-.328-.09-.488-.154.316.127-.09-.065-.189-.123a7.667,7.667,0,0,1-.675-.463,6.192,6.192,0,0,1-1.52-1.436,13.281,13.281,0,0,1-1.19-2.747,16.6,16.6,0,0,1-.474-1.635c-.066-.286-.125-.575-.169-.866.007.047.027.233,0,0-.019-.174-.03-.348-.04-.523a2,2,0,0,0-4,0Z"/><path class="c" d="M152.112,204.615c1.158-3.263-1.084-6.468-2.979-8.946a18.878,18.878,0,0,0-6.981-5.958c-4.563-2.074-9.9-1.786-14.576-.189a18.336,18.336,0,0,0-7.519,4.25,21.507,21.507,0,0,0-4.87,7.984,18.006,18.006,0,0,0-.62,7.555,17.421,17.421,0,0,0,4.086,8.737c1.871,2.3,4.762,4.664,7.813,5.013a7.529,7.529,0,0,0,2.606-.178c.911-.217,1.865-.3,2.757-.588a7.776,7.776,0,0,0,4.115-3.027l-1.727.991a9.262,9.262,0,0,0,4.325-1.069,7.369,7.369,0,0,0,3.3-2.478c1.408-2.164-2.053-4.171-3.454-2.019.18-.276-.241.172-.4.278a8.958,8.958,0,0,1-1.365.724,5.208,5.208,0,0,1-2.4.564,2.011,2.011,0,0,0-1.727.991,3.776,3.776,0,0,1-2.482,1.387c-1.139.2-2.514.735-3.652.331a11.121,11.121,0,0,1-4.635-3.457,13.307,13.307,0,0,1-2.823-12.237,16.354,16.354,0,0,1,3.444-6.1,12.193,12.193,0,0,1,5.375-3.484c3.259-1.131,6.961-1.991,10.406-1.19a13.008,13.008,0,0,1,6.594,4.075,23.459,23.459,0,0,1,2.341,3.048c.765,1.167,1.705,2.494,1.2,3.926-.862,2.431,3,3.477,3.858,1.064Z"/><path class="c" d="M128.647,210.307a27.716,27.716,0,0,0,1.59,4.359,13.21,13.21,0,0,0,2.409,3.694,2,2,0,1,0,2.828-2.828c-.1-.1-.194-.206-.286-.313-.053-.061-.1-.124-.156-.187-.181-.219.137.152.13.169a5.787,5.787,0,0,0-.528-.776,16.245,16.245,0,0,1-.944-1.778c-.064-.14-.125-.28-.187-.421-.166-.375.134.332.044.1-.028-.071-.058-.142-.087-.213-.128-.319-.248-.641-.363-.965q-.333-.944-.593-1.91a2,2,0,0,0-3.857,1.064Z"/><path class="c" d="M122.6,212.467a17.482,17.482,0,0,0,1.969,4.478,11.12,11.12,0,0,0,3.084,3.429,2.011,2.011,0,0,0,2.736-.717,2.051,2.051,0,0,0-.717-2.737c-.15-.1-.4-.365.094.084-.081-.074-.169-.141-.25-.215-.154-.139-.3-.286-.44-.437s-.294-.335-.437-.507c-.216-.259.317.429.006,0-.072-.1-.142-.2-.212-.3a16.108,16.108,0,0,1-1.562-2.863l.2.478a15.111,15.111,0,0,1-.616-1.765,2,2,0,0,0-3.857,1.063Z"/></svg>