<?xml version="1.0" encoding="utf-8"?>
<!-- Uploaded to: SVG Repo, www.svgrepo.com, Generator: SVG Repo Mixer Tools -->
<svg width="800px" height="800px" viewBox="0 -4.67 305.087 305.087" xmlns="http://www.w3.org/2000/svg"><defs><style>.a{fill:#ffffff;}.b{fill:none;}.c{fill:#957f6e;}.d{fill:#211715;}.e{fill:#85807f;}.f{fill:#7abee6;}.g{fill:#afd8f0;}.h{fill:#febe69;}</style></defs><path class="a" d="M128.125,64.492a6.089,6.089,0,0,1,4.4-1.612A5.652,5.652,0,0,1,137.6,65.7c1.725,2.991,1.652,8.5.494,11.914-.82,2.415-2.163,6.109-5.4,8.759a6.712,6.712,0,0,1-5.175,1.493l-.5-.084a39.437,39.437,0,0,1-1.78,4.834c-1.317,3.573-8.6,16.11-17.8,20.989a51.17,51.17,0,0,0,.672,5.262c.5,2.753.332,5.208,4.164,6.593.125.046,3.254,1.5,6.427,2.972-3.436,4.387-11.148,12.5-29.175,12.5-17.327,0-25.125-7.5-28.761-11.98,3.327-1.624,6.759-3.442,6.892-3.491,3.831-1.385,3.665-3.84,4.163-6.593.274-1.595.49-3.065.621-4.607-4.538-1.979-8.575-5.321-12.407-9.907A46.3,46.3,0,0,1,51.25,87.775a6.586,6.586,0,0,1-5.6-1.4c-3.238-2.65-4.581-6.344-5.4-8.759-1.158-3.411-1.231-8.923.494-11.914a5.65,5.65,0,0,1,5.076-2.82,6.089,6.089,0,0,1,4.4,1.612S41.1,30.225,88.877,30.225,128.125,64.492,128.125,64.492Z"/><path class="b" d="M268.524,83.155c3.289-7.575,1.643-20.415.325-26.815q-.237-1.167-.548-2.315a39.454,39.454,0,0,0-2.591-6.895A45.725,45.725,0,0,0,242.259,25.2a41.569,41.569,0,0,0-18.254-3.233c-20.893-1.148-40.825,14.568-44.857,34.374-1.1,5.344-.961,14.475.04,18.737,0,0,1.334,5.779,1.921,7.54"/><path class="c" d="M187.361,148.653c-11.617,1.928-19.029-7.292-18.975-13.932a77.715,77.715,0,0,1,2.368-16.562c1.841-6.576,3.155-18.141,3.155-34.177-.785-23.662,5.439-40.821,15.251-50.215,5.915-5.662,19.244-13.377,34.219-13.377a54.366,54.366,0,0,1,21.739,4.164l3.321,1.346,3.344,1.957c2.888,1.691,3.918,3.14,6.89,5.987,7.463,7.151,12.65,20.017,13.477,31.539.238,3.324.705,11.262.485,17.957a124.721,124.721,0,0,0,4.777,34.052c1.914,6.464,4.483,14.781,2.416,21.2-2.522,7.832-11.567,12.652-19.423,9.854"/><path class="a" d="M240.082,54.834c-11.758,10.711-36.294,22.941-54.589,28.993a6.107,6.107,0,0,0-3.409-.889,5.5,5.5,0,0,0-4.937,2.743c-1.677,2.909-1.606,8.27-.48,11.587.8,2.349,2.1,5.942,5.253,8.519a6.408,6.408,0,0,0,5.446,1.365,45.05,45.05,0,0,0,8.546,16.123c3.727,4.461,7.653,7.711,12.068,9.636-.129,1.5-.339,2.93-.6,4.48-.484,2.678-.323,5.066-4.05,6.413-.055.02-.7.32-1.687.775,3.614,4.319,10.485,10.6,24.74,10.6,13.65,0,20.378-5.415,24.049-9.648-1.98-.932-3.6-1.695-3.691-1.729-3.726-1.347-3.581-3.735-4.049-6.413-.3-1.71-.522-3.409-.655-5.126,8.948-4.75,16.021-16.933,17.3-20.406a38.471,38.471,0,0,0,1.732-4.7l.483.082a6.526,6.526,0,0,0,5.033-1.453c3.149-2.577,4.456-6.17,5.253-8.519,1.126-3.317,1.2-8.678-.481-11.587a5.494,5.494,0,0,0-4.936-2.743,6.085,6.085,0,0,0-3.544.976c-5.588-3.307-11.6-8.075-15.706-14.483a113.485,113.485,0,0,1-7.085-13.894"/><path class="d" d="M270.235,83.34a129.713,129.713,0,0,0,4.918,34.874c2.447,8.283,6.149,19.367-1.943,25.769a12.894,12.894,0,0,1-12.167,2.148c-2.929-1-4.187,3.632-1.276,4.628,9.33,3.192,20.08-2.79,22.59-12.265,1.448-5.465.249-11.367-1.182-16.7-1.561-5.819-3.312-11.521-4.338-17.473a135.12,135.12,0,0,1-1.8-20.977c-.045-3.086-4.845-3.095-4.8,0Z"/><path class="d" d="M250.571,29.93a19.972,19.972,0,0,1,3.9,3.128c1.41,1.405,2.884,2.763,4.206,4.252A40.727,40.727,0,0,1,264.851,47a58.116,58.116,0,0,1,5.124,21.986c.262,4.779.407,9.572.26,14.357-.094,3.09,4.706,3.087,4.8,0,.138-4.5.015-9-.214-13.49a79.578,79.578,0,0,0-1.2-11.338A53.754,53.754,0,0,0,263,35.012c-1.453-1.782-3.134-3.338-4.754-4.964a27.054,27.054,0,0,0-5.253-4.263c-2.658-1.588-5.075,2.561-2.423,4.145Z"/><path class="d" d="M245.756,22.239a58.267,58.267,0,0,0-24.348-4.2,55.612,55.612,0,0,0-24.371,7.154A43.61,43.61,0,0,0,182.943,37.28,54.92,54.92,0,0,0,174.5,55.4a96.235,96.235,0,0,0-2.991,28.584c.1,3.081,4.9,3.094,4.8,0-.448-14.3,1.292-29.743,9.223-42.03a36.661,36.661,0,0,1,11.55-11.215,51.473,51.473,0,0,1,21.3-7.666,53.921,53.921,0,0,1,26.094,3.8,2.417,2.417,0,0,0,2.953-1.676,2.46,2.46,0,0,0-1.676-2.953Z"/><path class="d" d="M171.509,83.982c0,6.706-.208,13.422-.836,20.1a79.33,79.33,0,0,1-2.064,12.812,77.566,77.566,0,0,0-2.6,16.895,16.309,16.309,0,0,0,4.836,11.9c4.513,4.654,10.864,6.26,17.155,5.28a2.419,2.419,0,0,0,1.676-2.953,2.46,2.46,0,0,0-2.952-1.676,14.253,14.253,0,0,1-12.28-3.838,13.928,13.928,0,0,1-2.979-4.426,10.793,10.793,0,0,1-.609-5.279,79.965,79.965,0,0,1,2.494-15.056,88.279,88.279,0,0,0,2.038-12.77c.7-6.971.917-13.986.922-20.988,0-3.089-4.8-3.094-4.8,0Z"/><path class="d" d="M259.465,103.739a45.769,45.769,0,0,1-2.578,7.819c.284-.7-.1.218-.219.458-.175.366-.359.728-.548,1.087-.464.884-.962,1.751-1.48,2.6a47.066,47.066,0,0,1-10.1,12.021,18.217,18.217,0,0,1-7.372,3.824c-3.007.7-1.734,5.33,1.276,4.629,5.844-1.362,10.714-5.605,14.531-10.049A51.9,51.9,0,0,0,261.019,114c.113-.249.219-.5.325-.753.014-.031.361-.859.206-.5-.146.34.015-.021.039-.075.12-.267.231-.538.343-.808q.232-.559.448-1.124a38.041,38.041,0,0,0,1.714-5.72c.624-3.015-4-4.3-4.629-1.276Z"/><path class="d" d="M184.3,104.88a48.069,48.069,0,0,0,10.338,20.589c4.96,5.79,11.367,10.4,19.044,11.546a2.478,2.478,0,0,0,2.952-1.677,2.417,2.417,0,0,0-1.676-2.952c-6.964-1.039-12.427-5.059-16.926-10.311a43,43,0,0,1-9.1-18.471c-.684-3.011-5.313-1.736-4.629,1.276Z"/><path class="d" d="M216.98,116.908a15.925,15.925,0,0,0,7.671,1.785,12.577,12.577,0,0,0,7.834-2.35,2.4,2.4,0,0,0,0-3.394,2.475,2.475,0,0,0-3.394,0c.817-.636-.12.044-.385.182-.207.109-.773.272-.056.05-.214.067-.421.162-.634.231-.27.087-.544.161-.821.225a2.666,2.666,0,0,1-.954.18l.256-.035c-.1.013-.2.023-.3.033-.174.017-.349.032-.523.043q-.63.041-1.262.035-.566,0-1.129-.04c-.173-.012-.345-.026-.517-.043s-.692.026-.126-.011a5.406,5.406,0,0,1-1.657-.368c-.233-.069-.459-.153-.688-.231-.567-.194.463.226-.05-.016q-.426-.2-.843-.421a2.4,2.4,0,0,0-2.422,4.145Z"/><path class="d" d="M223.218,99.113a34.986,34.986,0,0,1,.821,3.757l-.086-.638a2.244,2.244,0,0,1,.014.518l.086-.638a1.249,1.249,0,0,1-.057.234l.242-.574a.843.843,0,0,1-.083.15l.376-.486a.827.827,0,0,1-.123.121l.486-.375a2.571,2.571,0,0,1-.3.158l.573-.242a2.182,2.182,0,0,1-.5.146l.638-.086a1.953,1.953,0,0,1-.471,0l.638.086c-.177-.025-.351-.068-.529-.092a1.823,1.823,0,0,0-.957-.043,1.794,1.794,0,0,0-.892.285,2.4,2.4,0,0,0-.861,3.284,2.3,2.3,0,0,0,1.434,1.1c.446.06.879.172,1.333.192a4.334,4.334,0,0,0,2.018-.488,3.015,3.015,0,0,0,1.641-1.975,4.764,4.764,0,0,0-.018-2.075c-.2-1.21-.485-2.41-.8-3.6a2.4,2.4,0,0,0-2.952-1.676,2.445,2.445,0,0,0-1.676,2.952Z"/><path class="d" d="M238.01,56.749c2.548,5.817,5.27,11.794,9.184,16.838a51.346,51.346,0,0,0,14.188,12.237c2.651,1.6,5.066-2.548,2.423-4.145a45.865,45.865,0,0,1-13.1-11.341c-3.618-4.8-6.152-10.534-8.551-16.012a2.416,2.416,0,0,0-3.284-.861,2.461,2.461,0,0,0-.861,3.284Z"/><path class="d" d="M238.385,53.137A100.363,100.363,0,0,1,220.5,65.483a209.031,209.031,0,0,1-22.684,11.148c-4.18,1.752-8.418,3.369-12.717,4.807-2.915.974-1.665,5.612,1.276,4.628a205.312,205.312,0,0,0,23.637-9.7,175.817,175.817,0,0,0,22.1-12.4,84.726,84.726,0,0,0,9.677-7.435c2.3-2.078-1.108-5.464-3.394-3.394Z"/><path class="d" d="M188.063,82.808a8.851,8.851,0,0,0-9.617-1.44,8.413,8.413,0,0,0-4.415,5.679c-1.529,5.617-.088,12.179,3.131,16.969,2.183,3.247,5.615,6.165,9.791,5.624a2.479,2.479,0,0,0,2.4-2.4,2.413,2.413,0,0,0-2.4-2.4c-3.082.4-5.132-2.143-6.469-4.609a17.681,17.681,0,0,1-2.16-6.736c-.2-2.31-.179-5.07,1.17-7.034-.307.446.082-.083.146-.149,0,0,.507-.453.247-.255a3.265,3.265,0,0,1,1.33-.605,3.839,3.839,0,0,1,3.452.75c2.3,2.051,5.7-1.332,3.394-3.394Z"/><path class="d" d="M263.832,86.2a3.8,3.8,0,0,1,3.279-.787,3.382,3.382,0,0,1,1.5.642c-.229-.173.734.9.393.4,1.347,1.968,1.368,4.722,1.17,7.034a17.693,17.693,0,0,1-2.16,6.736c-1.337,2.466-3.386,5.009-6.469,4.609a2.411,2.411,0,0,0-2.4,2.4,2.461,2.461,0,0,0,2.4,2.4c6.823.885,10.991-6.513,12.694-12.023,1.519-4.915,1.5-12.62-3.316-15.778a8.8,8.8,0,0,0-10.488.969c-2.31,2.061,1.1,5.446,3.394,3.394Z"/><path class="d" d="M203.811,88.349c-.627,2.038-.218,6.728,3.644,7.127,5.1-.03,5.376-5.7,3.658-8.366C209.706,84.927,205.569,84.019,203.811,88.349Z"/><path class="d" d="M244.69,88.349c.627,2.038.218,6.728-3.644,7.127-5.1-.031-5.376-5.7-3.658-8.367C238.8,84.927,242.932,84.019,244.69,88.349Z"/><path class="d" d="M191.218,151.958c1.162-.407,2.288-.992,3.405-1.5q2.63-1.2,5.25-2.424c1.374-.637,2.746-1.277,4.121-1.909.142-.065.287-.126.427-.2.109-.054.337-.15-.183.075-.631.273-.036.025.127-.04.318-.128.637-.257.946-.406a7.1,7.1,0,0,0,3.169-2.923,11.482,11.482,0,0,0,1.079-3.81c.3-1.968.642-3.924.821-5.909a2.419,2.419,0,0,0-2.4-2.4,2.45,2.45,0,0,0-2.4,2.4,45.685,45.685,0,0,1-1.226,7.294c-.078.3.223-.316.023-.079a2.236,2.236,0,0,0-.18.317c-.265.461.152-.066-.142.188-.1.085-.194.188-.29.279.293-.276.066-.039-.027.02-.253.157-.651.389-.814.466-.292.137-.9.368-1.317.562-2.925,1.343-5.839,2.711-8.764,4.054q-1.137.522-2.278,1.039l-.725.322c-.572.254.572-.211.1-.046a2.458,2.458,0,0,0-1.676,2.952,2.421,2.421,0,0,0,2.952,1.676Z"/><path class="d" d="M239.666,132.7c.167,1.851.435,3.686.738,5.519a21.7,21.7,0,0,0,.538,2.888,7.034,7.034,0,0,0,1.922,3.172,7.989,7.989,0,0,0,1.718,1.2,13.716,13.716,0,0,0,1.263.548c.846.326-.541-.268-.222-.1,2.591,1.34,5.3,2.5,7.932,3.746,1.236.584,2.463,1.192,3.724,1.721a2.414,2.414,0,0,0,2.952-1.677,2.463,2.463,0,0,0-1.676-2.952c1.206.5,0-.022-.283-.154q-.848-.4-1.693-.8-2.293-1.083-4.584-2.169c-1.182-.559-2.363-1.121-3.547-1.674-.128-.06-.256-.121-.385-.179l-.1-.044c-.167-.074-.41-.176-.58-.245-.026-.01-.447-.189-.161-.058a7.653,7.653,0,0,1-.714-.384c-.059-.034-.431-.292-.186-.109.217.162-.036-.032-.065-.061-.138-.14-.536-.623-.232-.186-.146-.21-.249-.449-.393-.658s.066.162.074.189c-.049-.161-.113-.317-.161-.479-.065-.219-.118-.442-.165-.666-.11-.525-.181-1.058-.262-1.589-.246-1.626-.506-3.163-.653-4.8a2.465,2.465,0,0,0-2.4-2.4,2.417,2.417,0,0,0-2.4,2.4Z"/><path class="e" d="M64.936,50.8a116.658,116.658,0,0,0-8.489,8.461l-6.226,5.228a6.089,6.089,0,0,0-4.4-1.612,7.257,7.257,0,0,0-1.9.3,51.383,51.383,0,0,1-1.909-15.4A46.667,46.667,0,0,1,61.281,11.27,45.685,45.685,0,0,1,89.061,2.4a46.278,46.278,0,0,1,28.833,9.631c8.71,6.577,17.465,17.88,18.22,35.748a49.627,49.627,0,0,1-1.859,15.348,7.54,7.54,0,0,0-1.728-.252,6.089,6.089,0,0,0-4.4,1.612l-6.179-4.9c-1.994-5.02-6.5-10.566-11.2-14.608a25.007,25.007,0,0,0-7.128-4.484l-7.74-.95c-5.219,2.2-12.58,6.818-16.711,9.113a1.414,1.414,0,0,1-2.015-1.518,7.455,7.455,0,0,0-.178-2.715C76.7,43.3,75.83,42.82,75.152,43.176A56.04,56.04,0,0,0,64.936,50.8Z"/><path class="d" d="M51.918,62.8a9.028,9.028,0,0,0-9.806-1.47,8.585,8.585,0,0,0-4.508,5.8c-1.568,5.76-.088,12.485,3.212,17.395,2.233,3.322,5.739,6.3,10.009,5.749a2.478,2.478,0,0,0,2.4-2.4,2.413,2.413,0,0,0-2.4-2.4c-3.193.415-5.325-2.217-6.71-4.772a18.263,18.263,0,0,1-2.23-6.959c-.2-2.369-.2-5.231,1.212-7.267-.324.467.6-.569.429-.44a3.583,3.583,0,0,1,1.383-.628,4,4,0,0,1,3.615.789c2.3,2.051,5.7-1.333,3.394-3.394Z"/><path class="d" d="M129.822,66.189a3.974,3.974,0,0,1,3.437-.828,3.673,3.673,0,0,1,1.561.667c-.185-.141.748.9.429.44,1.407,2.04,1.415,4.9,1.212,7.267a18.28,18.28,0,0,1-2.23,6.959c-1.385,2.555-3.516,5.187-6.71,4.772a2.412,2.412,0,0,0-2.4,2.4,2.46,2.46,0,0,0,2.4,2.4c6.984.907,11.244-6.674,12.987-12.312,1.552-5.021,1.547-12.916-3.379-16.146a8.982,8.982,0,0,0-10.7.987c-2.31,2.061,1.094,5.446,3.394,3.394Z"/><path class="d" d="M125.445,84.285a47.535,47.535,0,0,1-2.647,8.029c.288-.713-.112.237-.216.455q-.282.591-.589,1.171c-.484.921-1,1.825-1.545,2.714a48.712,48.712,0,0,1-10.325,12.289,18.8,18.8,0,0,1-7.653,3.986c-3.008.7-1.735,5.329,1.276,4.628,6.007-1.4,11.012-5.769,14.932-10.339a53.246,53.246,0,0,0,8.254-12.467c.112-.249.218-.5.324-.752.009-.023.363-.867.2-.5s.049-.1.085-.184c.119-.269.232-.541.344-.812.154-.373.3-.747.444-1.125a38.843,38.843,0,0,0,1.74-5.819c.623-3.015-4-4.3-4.629-1.276Z"/><path class="d" d="M48.161,85.422A49.363,49.363,0,0,0,58.9,106.708c5.072,5.878,11.609,10.542,19.425,11.707a2.478,2.478,0,0,0,2.952-1.676,2.419,2.419,0,0,0-1.676-2.953c-7.1-1.058-12.7-5.132-17.307-10.472a44.316,44.316,0,0,1-9.5-19.168c-.684-3.011-5.313-1.736-4.628,1.276Z"/><path class="d" d="M116.256,7.968a50.875,50.875,0,0,0-47.99-3.589A49.521,49.521,0,0,0,42.018,33.884a52.569,52.569,0,0,0-.6,29.234c.764,2.991,5.4,1.724,4.628-1.276-3.611-14.128-1.061-29.535,8.421-40.87A43.691,43.691,0,0,1,90.191,4.817a44.758,44.758,0,0,1,23.642,7.3c2.6,1.686,5.008-2.467,2.423-4.144Z"/><path class="d" d="M136.733,63.118a55.064,55.064,0,0,0,.724-24.184,47.224,47.224,0,0,0-8.029-18.525,49.128,49.128,0,0,0-6.627-7.415c-2.282-2.074-5.686,1.311-3.394,3.394a44.632,44.632,0,0,1,14.345,32.721A50.051,50.051,0,0,1,132.1,61.842c-.733,3,3.894,4.28,4.629,1.276Z"/><path class="d" d="M81.732,97.749a16.305,16.305,0,0,0,7.853,1.826,12.869,12.869,0,0,0,8.007-2.4,2.4,2.4,0,0,0,0-3.394,2.475,2.475,0,0,0-3.394,0c.812-.633-.144.059-.409.2-.211.111-.779.267-.075.059-.22.065-.433.166-.652.237a12.807,12.807,0,0,1-1.824.416c.345-.057.193-.025-.064,0-.179.018-.358.033-.538.045-.431.027-.864.038-1.3.036q-.581,0-1.161-.042c-.177-.012-.355-.026-.532-.044-.1-.01-.752-.131-.146-.013-.574-.112-1.143-.211-1.7-.379-.239-.071-.471-.157-.707-.237-.573-.2.451.221-.067-.023-.293-.138-.581-.282-.867-.433a2.4,2.4,0,0,0-2.422,4.145Z"/><path class="d" d="M88.176,79.493a35.732,35.732,0,0,1,.844,3.862l-.085-.638a2.385,2.385,0,0,1,.014.534l.086-.638a1.3,1.3,0,0,1-.059.239l.242-.573a.92.92,0,0,1-.084.154l.375-.485a.821.821,0,0,1-.126.124l.485-.375a2.463,2.463,0,0,1-.3.161l.573-.241a2.261,2.261,0,0,1-.516.15l.638-.086a2.01,2.01,0,0,1-.484,0l.638.086c-.182-.025-.361-.07-.544-.094a1.812,1.812,0,0,0-.957-.043,1.774,1.774,0,0,0-.892.285,2.4,2.4,0,0,0-.861,3.283,2.3,2.3,0,0,0,1.434,1.1c.453.061.892.175,1.353.2A4.387,4.387,0,0,0,91.985,86a3.032,3.032,0,0,0,1.656-1.991,4.818,4.818,0,0,0-.018-2.1c-.211-1.244-.5-2.478-.818-3.7a2.476,2.476,0,0,0-1.1-1.434,2.4,2.4,0,0,0-3.526,2.71Z"/><path class="d" d="M68.158,68.443c-.645,2.1-.225,6.918,3.746,7.328,5.249-.031,5.528-5.861,3.761-8.6C74.219,64.925,69.965,63.992,68.158,68.443Z"/><path class="d" d="M110.188,68.443c.645,2.1.225,6.918-3.746,7.328-5.249-.031-5.528-5.861-3.762-8.6C104.127,64.925,108.38,63.992,110.188,68.443Z"/><path class="d" d="M102.409,42.578a31.086,31.086,0,0,1,9.979,7.269,35.012,35.012,0,0,1,7.244,10.388,2.477,2.477,0,0,0,2.953,1.676,2.416,2.416,0,0,0,1.676-2.952A39.81,39.81,0,0,0,116.012,46.7a34.838,34.838,0,0,0-11.18-8.262,2.478,2.478,0,0,0-3.284.861,2.419,2.419,0,0,0,.861,3.284Z"/><path class="d" d="M58.144,60.961A87.675,87.675,0,0,1,73.433,47.036c.62-.423,1.252-.832,1.9-1.213a4.555,4.555,0,0,0,.521-.3c.31-.249.254.044.013-.1a6.841,6.841,0,0,1-1.225-.433,4.359,4.359,0,0,0,.131.632,20.949,20.949,0,0,0,.1,2.676,3.956,3.956,0,0,0,1.914,2.49c1.857.993,3.5.019,5.114-.909,1.476-.849,2.942-1.715,4.414-2.57a99.586,99.586,0,0,1,10.778-5.681,2.414,2.414,0,0,0,.861-3.284,2.463,2.463,0,0,0-3.283-.861,91.449,91.449,0,0,0-9.611,5.007c-1.537.884-3.065,1.784-4.6,2.675a10.016,10.016,0,0,0-1.9,1.091c-.038.038-.367.162-.369.208,0,0,1.2.43,1.222.434.243.039-.015.735.168-.088a3.145,3.145,0,0,0,.019-.713c-.046-2.082-.726-4.616-2.983-5.274-1.775-.517-3.354.6-4.784,1.519A69.135,69.135,0,0,0,63.246,49.1a113.3,113.3,0,0,0-8.5,8.467c-2.063,2.29,1.321,5.7,3.394,3.394Z"/><path class="d" d="M59.588,132.16c2.187-1.009,4.339-2.092,6.482-3.19.727-.372,1.453-.748,2.179-1.122.17-.088.346-.169.513-.263.119-.068.345-.213-.216.1.395-.218.848-.34,1.254-.542a7.42,7.42,0,0,0,3.924-5.174,63.389,63.389,0,0,0,1.12-7.7,2.408,2.408,0,0,0-2.4-2.4,2.463,2.463,0,0,0-2.4,2.4,52.917,52.917,0,0,1-.948,6.425c-.084.384-.211.747-.325,1.121.172-.565.049-.129-.036.026s-.52.67-.1.214c-.121.132-.252.258-.371.392q-.3.255.042-.007c-.111.081-.225.159-.341.232a9.052,9.052,0,0,1-1.516.721c-3.128,1.469-6.14,3.178-9.281,4.627a2.42,2.42,0,0,0-.861,3.284,2.455,2.455,0,0,0,3.283.861Z"/><path class="d" d="M122.872,127.725q-3.036-1.4-6.065-2.8c-1.285-.6-2.56-1.25-3.88-1.769-.716-.281.108.071-.246-.1a6.9,6.9,0,0,1-.682-.369c-.115-.071-.227-.147-.337-.226.229.18.245.186.045.017-.117-.127-.247-.258-.369-.381.428.43-.011-.033-.1-.195s-.173-.6-.158-.3q.119.281.006-.015c-.035-.1-.067-.206-.1-.31-.061-.211-.112-.425-.157-.64a54.189,54.189,0,0,1-.938-6.374,2.452,2.452,0,0,0-2.4-2.4,2.427,2.427,0,0,0-2.4,2.4,65.412,65.412,0,0,0,1.109,7.65,7.422,7.422,0,0,0,3.953,5.234c.4.2.823.371,1.241.535.823.321-.626-.3-.222-.1.167.081.337.154.5.231q1.168.538,2.333,1.08,3.219,1.493,6.44,2.979a2.458,2.458,0,0,0,3.284-.861,2.429,2.429,0,0,0-.861-3.283Z"/><path class="a" d="M12.283,164.374A112.006,112.006,0,0,0,8.726,177.18C6.237,187.953,2.4,265.548,2.4,281.2H179.064c-.715-11.055-1.581-24.46-1.581-24.46-1.11-12.918-6.569-70.166-9.058-80.939-3.1-13.411-6.554-25.8-21.466-35.4a68.759,68.759,0,0,0-11.047-5.866c-3.6-1.521-11.59-4.607-17.047-6.305-3.362,4.341-11.027,12.706-29.337,12.706-18.915,0-26.474-8.934-29.663-13.133-5.8,2.5-12.862,5.667-16.934,7.389a90.2,90.2,0,0,0-12.738,6.59A42.412,42.412,0,0,0,12.283,164.374Z"/><path class="d" d="M115.493,129.763a138.663,138.663,0,0,1,16.6,5.786,66.42,66.42,0,0,1,17.9,9.986,40.574,40.574,0,0,1,11.351,15.043A83.852,83.852,0,0,1,166.2,176.83c.623,2.876,1.009,5.809,1.409,8.723.029.21.057.42.086.63.057.42-.034-.263.044.334q.1.784.206,1.57.208,1.605.407,3.211.435,3.517.841,7.038c1.235,10.669,2.341,21.354,3.4,32.042.816,8.213,1.612,16.429,2.34,24.651q.075.855.149,1.71a2.463,2.463,0,0,0,2.4,2.4,2.417,2.417,0,0,0,2.4-2.4c-.663-7.713-1.412-15.418-2.169-23.122-1.066-10.843-2.177-21.681-3.405-32.507-.924-8.14-1.728-16.363-3.254-24.418-2.156-11.389-6-22.99-14.263-31.434-5.429-5.546-12.361-9.678-19.459-12.711-5.508-2.353-11.147-4.485-16.848-6.321-1.229-.4-2.465-.772-3.716-1.092-3-.765-4.272,3.864-1.276,4.629Z"/><path class="d" d="M59.466,125.376c-4.164,1.785-8.3,3.624-12.453,5.445-3.819,1.675-7.684,3.25-11.406,5.138-7.914,4.012-15.1,9.261-20.136,16.669-4.21,6.189-6.515,13.4-8.277,20.611A80.109,80.109,0,0,0,5.4,183.557C4.28,193.67,3.657,203.845,3.021,214Q1.838,232.866.991,251.753c-.419,9.2-.859,18.413-.978,27.624Q0,280.289,0,281.2c0,3.089,4.8,3.094,4.8,0,0-8.274.428-16.558.786-24.822q.8-18.5,1.9-36.986c.642-10.739,1.309-21.487,2.336-32.2.174-1.815.361-3.629.583-5.439.041-.339.087-.677.129-1.016,0-.027-.083.579,0,.009.026-.177.05-.354.076-.531.082-.555.169-1.109.274-1.659a73.43,73.43,0,0,1,5.616-18.1,41.356,41.356,0,0,1,15.914-17.24c7.359-4.512,15.552-7.61,23.435-11.069q3.014-1.322,6.037-2.623a2.415,2.415,0,0,0,.861-3.284,2.463,2.463,0,0,0-3.284-.861Z"/><path class="d" d="M57.8,129.013a34.571,34.571,0,0,0,19.424,12.9,53.089,53.089,0,0,0,20.429.82,37.333,37.333,0,0,0,14.574-5.18,32.735,32.735,0,0,0,8.333-7.623,2.48,2.48,0,0,0,0-3.394,2.417,2.417,0,0,0-3.394,0A34.626,34.626,0,0,1,114.6,129.5q-.768.786-1.593,1.515a20.246,20.246,0,0,1-1.792,1.439,31.606,31.606,0,0,1-12.291,5.207c-10.107,2.086-21.984,1.055-30.592-4.859a17.294,17.294,0,0,1-2.028-1.561q-.984-.847-1.891-1.781-.787-.809-1.514-1.673c-.229-.271-.451-.548-.675-.824-.089-.109-.174-.222-.261-.332.471.6.073.094-.026-.036a2.478,2.478,0,0,0-3.284-.861,2.417,2.417,0,0,0-.861,3.284Z"/><path class="d" d="M32.437,176.877V279.819c0,3.088,4.8,3.093,4.8,0V176.877c0-3.089-4.8-3.094-4.8,0Z"/><path class="d" d="M140.333,176.877V279.819c0,3.088,4.8,3.093,4.8,0V176.877c0-3.089-4.8-3.094-4.8,0Z"/><path class="f" d="M241.992,152.019a35.459,35.459,0,0,1-15.614,3.162c-15.675,0-22.422-7.6-25.727-11.83-12.3,4.4-29.37,11.313-35.482,17.661-7.434,7.748-9.593,14.842-11.649,22.833a289.722,289.722,0,0,0-8.3,44.806c-1.194,11.645,5.925,25.177,16.227,27.69l74.72,13.954,3.012,14.007a3.228,3.228,0,0,0,3.654,2.85c10.2-1.381,20.985-6.12,31.255-10.467A73.458,73.458,0,0,0,291.129,266.4c9.775-8.279,12.379-20.106,11.348-38.661-.3-11.085-5.063-35.648-7.22-43.44-2.323-8.4-4.214-15.082-11.654-22.831-5.45-5.675-20.681-12.176-32.6-16.617A26.041,26.041,0,0,1,241.992,152.019Z"/><path class="d" d="M199.121,145.268a31.227,31.227,0,0,0,16.515,10.992c9.317,2.49,20.5,1.847,29.02-2.924a28.439,28.439,0,0,0,7.989-6.728,2.469,2.469,0,0,0,0-3.394,2.42,2.42,0,0,0-3.394,0,25.7,25.7,0,0,1-16.272,9.081c-8.3,1.4-17.594.309-24.566-4.6a24.82,24.82,0,0,1-3.367-2.914,36.608,36.608,0,0,1-2.531-2.907,2.414,2.414,0,0,0-3.394,0,2.459,2.459,0,0,0,0,3.394Z"/><path class="d" d="M175.367,195.257c1.872,15.19,2.1,30.547,4.535,45.677a2.418,2.418,0,0,0,2.952,1.676,2.458,2.458,0,0,0,1.676-2.952c-2.368-14.7-2.544-29.64-4.363-44.4a2.475,2.475,0,0,0-2.4-2.4,2.415,2.415,0,0,0-2.4,2.4Z"/><path class="d" d="M162.081,254.027c-7.63-1.947-12.3-9.809-13.948-17.042-1.035-4.553-.488-9.028.065-13.61.649-5.377,1.489-10.731,2.481-16.055,1.611-8.635,3.573-17.239,5.917-25.706,2.315-8.362,6.448-16.743,13.719-21.764a85.043,85.043,0,0,1,13.513-7.258c5.018-2.259,10.149-4.261,15.315-6.152a2.465,2.465,0,0,0,1.677-2.952,2.42,2.42,0,0,0-2.953-1.676c-9.563,3.5-19.36,7.229-28.039,12.629a36.849,36.849,0,0,0-10.033,9.187,44.437,44.437,0,0,0-6.835,13.383c-1.38,4.25-2.4,8.628-3.448,12.969-1.127,4.658-2.163,9.338-3.076,14.043q-1.623,8.351-2.716,16.79c-.689,5.264-1.437,10.442-.555,15.725,1.577,9.453,7.849,19.62,17.64,22.117,2.994.764,4.272-3.864,1.276-4.628Z"/><path class="d" d="M304.877,227.738a151.811,151.811,0,0,0-2.448-20.372c-1.132-6.785-2.409-13.56-3.987-20.256-1.656-7.023-3.651-14.267-7.6-20.385a36.743,36.743,0,0,0-8.493-9.479,63.966,63.966,0,0,0-10.389-6.121,188.455,188.455,0,0,0-22.427-9.225c-2.928-1-4.186,3.631-1.276,4.629a187.592,187.592,0,0,1,18.1,7.219,90.131,90.131,0,0,1,11.221,6,29.551,29.551,0,0,1,7.769,7.441c4.316,5.865,6.4,12.818,8.126,19.805,1.531,6.195,2.728,12.481,3.829,18.764,1.27,7.244,2.551,14.613,2.77,21.979.092,3.082,4.893,3.095,4.8,0Z"/><path class="a" d="M198.259,193.332c10.809.087,13.976-5.067,16.723-8.977,2.94-4.186,3.089-9.328,1.974-14.593-.679-3.19-1.5-6.644-2.117-10.143-1.3-8.671-5.635-17.592-14.176-21.067a31.661,31.661,0,0,0-14.273-2.093c-20.014,1.645-30.467,11.2-29.989,29.744a38.747,38.747,0,0,0,5.073,17.958c2.194,3.68,7.143,7.687,12.233,9.877"/><path class="d" d="M209.462,183.034a15.543,15.543,0,0,1,2-.449,2.312,2.312,0,0,0,1.719-2,1.823,1.823,0,0,0-.043-.957l-.242-.574a2.416,2.416,0,0,0-.861-.861l-.573-.242a2.423,2.423,0,0,0-1.276,0,15.543,15.543,0,0,0-2,.449,2.474,2.474,0,0,0-1.676,2.952l.242.574a2.416,2.416,0,0,0,.861.861l.573.242a2.423,2.423,0,0,0,1.276,0Z"/><path class="d" d="M196.29,170.54a8.89,8.89,0,0,1,2.034-.54l-.638.085a4.675,4.675,0,0,1,.975-.037,2.317,2.317,0,0,0,2.193-1.475,1.815,1.815,0,0,0,.207-.925,2.427,2.427,0,0,0-.7-1.7l-.486-.375a2.385,2.385,0,0,0-1.211-.328,4.076,4.076,0,0,0-.69.006,12.837,12.837,0,0,0-1.367.19,9.351,9.351,0,0,0-1.59.467,2.477,2.477,0,0,0-1.677,2.952,2.431,2.431,0,0,0,1.1,1.435l.574.242a2.423,2.423,0,0,0,1.276,0Z"/><path class="d" d="M212.231,167.894a6.614,6.614,0,0,1,1.578-.37l-.638.086a5.409,5.409,0,0,1,1.137-.059,2.467,2.467,0,0,0,2.4-2.4,2.429,2.429,0,0,0-.7-1.7l-.486-.375a2.4,2.4,0,0,0-1.211-.328,8.657,8.657,0,0,0-1.969.172,6.269,6.269,0,0,0-1.384.342,2.312,2.312,0,0,0-1.72,2,1.823,1.823,0,0,0,.043.957,2.431,2.431,0,0,0,1.1,1.435l.574.242a2.423,2.423,0,0,0,1.276,0Z"/><path class="d" d="M181.7,170.915a7.084,7.084,0,0,0-7.869.814c-2.188,1.923-2.708,5.191-2.151,7.918a12.231,12.231,0,0,0,4,6.49,12.58,12.58,0,0,0,7.261,3.14,2.409,2.409,0,0,0,2.4-2.4,2.464,2.464,0,0,0-2.4-2.4c-.576-.054.193.072-.308-.04-.261-.059-.521-.11-.779-.183q-.32-.09-.632-.2c-.1-.037-.2-.075-.305-.116.212.089.24.1.085.028-.39-.222-.792-.408-1.17-.653-.167-.109-.328-.226-.491-.34.333.234.029.024-.123-.1a11.96,11.96,0,0,1-.929-.872c-.156-.163-.3-.332-.452-.5-.47-.529.23.355-.18-.22a10.847,10.847,0,0,1-.713-1.13c-.1-.194-.2-.392-.295-.592.2.443-.083-.248-.114-.344-.067-.207-.125-.415-.175-.627-.017-.075-.121-.716-.089-.424s-.014-.359-.015-.433a6.869,6.869,0,0,1,.029-.759c-.039.434.024-.079.06-.232.053-.222.123-.438.191-.656.141-.449-.148.171.124-.259.02-.032.416-.595.134-.261a5.264,5.264,0,0,1,.436-.435c-.374.351.044.008.151-.059.432-.271-.325.05.135-.062.189-.045.375-.1.565-.143-.557.13-.017.01.139.007a5.514,5.514,0,0,1,.589.025c-.6-.053.091.044.229.084.588.173-.175-.122.244.085a2.4,2.4,0,0,0,2.423-4.145Z"/><path class="d" d="M198.259,195.732c5.571.007,11.1-1.347,15.1-5.428,3.79-3.865,6.447-8.775,6.624-14.254.121-3.721-.81-7.353-1.6-10.958-.718-3.294-1.17-6.662-2.009-9.925-1.491-5.8-4.418-11.557-9.118-15.4-5.5-4.5-13.014-6.149-20-5.768a48.812,48.812,0,0,0-16.061,3.419,26.062,26.062,0,0,0-16.671,20.87,41.509,41.509,0,0,0,2.138,21.293,27.2,27.2,0,0,0,5.843,9.7,32.6,32.6,0,0,0,9.987,6.825,2.478,2.478,0,0,0,3.284-.861,2.418,2.418,0,0,0-.861-3.284,29.528,29.528,0,0,1-8.142-5.232,20.742,20.742,0,0,1-4.92-7.061,36.854,36.854,0,0,1-3-17.08c.466-8.215,4.033-15.28,11.163-19.3a37.252,37.252,0,0,1,12.774-4.03c5.868-.886,12.2-.765,17.668,1.806,4.729,2.224,8.077,6.517,9.981,11.3a36.687,36.687,0,0,1,2.033,7.537c.588,3.524,1.447,6.993,2.17,10.49a18.741,18.741,0,0,1-.171,9.73,14.38,14.38,0,0,1-2.023,3.676c-.24.342-.48.684-.725,1.022a9.162,9.162,0,0,1-.689.9,12.826,12.826,0,0,1-4.417,3.642,18.807,18.807,0,0,1-8.357,1.567c-3.089,0-3.093,4.8,0,4.8Z"/><path class="d" d="M194.721,151.256a7.256,7.256,0,0,1-.427,1.829l.242-.574a4.245,4.245,0,0,1-.512.847l.375-.486a7.668,7.668,0,0,1-1.332,1.264l.486-.375a8.821,8.821,0,0,1-1.837,1.2l.573-.241a2.557,2.557,0,0,1-.59.157l.638-.085a2.42,2.42,0,0,1-.351,0,2.4,2.4,0,0,0-1.7,4.1,2.628,2.628,0,0,0,1.7.7,4.973,4.973,0,0,0,3.017-.98,21.049,21.049,0,0,0,2.013-1.54,6.883,6.883,0,0,0,1.556-1.917,7.832,7.832,0,0,0,.778-2.627,1.823,1.823,0,0,0,.043-.957,1.8,1.8,0,0,0-.285-.892,2.4,2.4,0,0,0-3.284-.861,2.3,2.3,0,0,0-1.1,1.434Z"/><path class="d" d="M203.31,150.432a7.357,7.357,0,0,1-.06.914l.085-.638a7.35,7.35,0,0,1-.482,1.763l.242-.574a7.613,7.613,0,0,1-.967,1.66l.375-.485a7.423,7.423,0,0,1-1.3,1.289l.486-.376a5.729,5.729,0,0,1-.906.579l.573-.242a1.12,1.12,0,0,1-.274.073l.638-.086a.487.487,0,0,1-.132,0l.638.086-.059-.014.573.241-.052-.024.486.376-.044-.035.375.486-.034-.046.242.573-.022-.058a2.6,2.6,0,0,0-1.1-1.434,2.4,2.4,0,0,0-3.283.861,2.344,2.344,0,0,0-.242,1.849,2.809,2.809,0,0,0,1.255,1.6,2.957,2.957,0,0,0,2.04.26,3.908,3.908,0,0,0,1.456-.68,10.272,10.272,0,0,0,2.482-2.4,9.326,9.326,0,0,0,1.81-5.512,2.4,2.4,0,0,0-4.8,0Z"/><path class="g" d="M184.512,211.222a129.269,129.269,0,0,0,23.72-2.191,49.638,49.638,0,0,0,12.317-5.382l-.5-.55c-7.052-8-17.963-11.207-29.753-11.52-4.186-.111-8.5.218-12.28,2.01-5.733,2.715-9.35,8.268-12.379,13.957A65.959,65.959,0,0,0,184.512,211.222Z"/><path class="a" d="M225.813,209.442l-4.706-5.179-.683-1.918c-1.3-3.634-.8-9.215,3.661-10.09.911-2.291,2.883-3.282,5.195-4.02,5.014-1.6,10.352.941,13.008,5.519,3.011,5.19,2.892,12.358-2.626,15.913"/><path class="d" d="M226.049,246.087a10.612,10.612,0,0,1,4.9,1.269,14.247,14.247,0,0,1,1.284.793c.008,0,.6.437.264.179.185.142.364.294.54.446.384.332.751.684,1.1,1.051q.284.3.55.61c.053.061.47.571.215.245a14.818,14.818,0,0,1,1.549,2.483c.122.244.24.49.347.741-.159-.374.078.223.1.292.158.437.3.881.413,1.331q.087.338.157.677c.018.09.139.814.11.593s.044.509.05.6q.023.345.025.692c0,.464-.024.925-.066,1.387-.051.561.07-.22-.047.284-.071.306-.129.612-.207.916a2.4,2.4,0,1,0,4.628,1.276c2.546-9.878-5.7-20.622-15.914-20.666-3.089-.013-3.093,4.787,0,4.8Z"/><path class="d" d="M240.873,211.739c5.312-3.531,6.958-10.112,4.918-16.024-2.106-6.1-7.92-11.046-14.66-10.285-3.583.4-7.614,2.1-9.118,5.614l1.434-1.1c-5.787,1.28-7.006,8.174-5.337,13.042a2.456,2.456,0,0,0,2.952,1.676,2.422,2.422,0,0,0,1.676-2.952,7.866,7.866,0,0,1-.521-3.608c.009-.167.02-.333.039-.5.048-.415-.059.306.022-.1.064-.322.147-.631.236-.946.032-.114.073-.23.116-.34-.131.338.013-.021.042-.078.072-.138.145-.275.227-.408.026-.042.442-.56.171-.257.11-.123.644-.574.382-.391.138-.1.747-.395.511-.3.345-.132.706-.181,1.047-.328a2.8,2.8,0,0,0,1.409-1.551,5,5,0,0,1,3.052-2.2,8.5,8.5,0,0,1,8.257,1.377,10.762,10.762,0,0,1,2.96,3.773,13,13,0,0,1,1.113,3.829c.3,3.14-.59,6.082-3.35,7.917-2.561,1.7-.16,5.862,2.422,4.145Z"/><path class="d" d="M227.511,207.744q-2.493-2.742-4.985-5.487a35.5,35.5,0,0,0-11.089-8.512,49.426,49.426,0,0,0-16.669-4.3c-6.24-.586-12.98-.58-18.657,2.419-5.807,3.067-9.53,8.839-12.54,14.465-1.456,2.723,2.686,5.151,4.145,2.423,2.386-4.461,5.14-9.165,9.5-11.971,4.824-3.107,10.823-3.049,16.346-2.638a44.135,44.135,0,0,1,14.951,3.511,31.464,31.464,0,0,1,10.422,7.777q2.592,2.853,5.185,5.706c2.082,2.291,5.469-1.111,3.394-3.394Z"/><path class="h" d="M247.721,280.516a3.092,3.092,0,0,1-1.769,1.633c-11.818,4.42-26.391,5.508-44.135,3.059-28.806-4.7-41.552-33.578-41.552-33.578-3.546-11.432-4.031-24.352-2.477-36.538a24.294,24.294,0,0,1,1.384-4.843,4.85,4.85,0,0,1,6.2-2.8,65.952,65.952,0,0,0,19.138,3.769,129.288,129.288,0,0,0,23.721-2.191c22.571-6.063,46.3-34.843,58.562-58.664a2.7,2.7,0,0,1,3.245-1.235,128.246,128.246,0,0,1,14.119,5.429,2.615,2.615,0,0,1,1.58,3.075c-6.325,20.119-11.3,39.782-18.6,62.539-1.671,5.211-8.813,28.028-12.839,41.243,0,0-2.158,6.93-6.317,18.479A5.242,5.242,0,0,1,247.721,280.516Z"/><path class="d" d="M208.24,211.516a57.622,57.622,0,0,0,19.545-9.783,117.036,117.036,0,0,0,18.392-17.081,167.986,167.986,0,0,0,15.553-20.707q3.261-5.108,6.132-10.45c.259-.484.632-1.743,1.066-2.042.333-.229,1.152.195,1.5.305,1.71.543,3.4,1.159,5.075,1.8,1.7.644,3.385,1.311,5.055,2.02.723.307,1.449.614,2.157.952.667.319.767.242.578.891-1.3,4.474-2.736,8.912-4.049,13.384-2.691,9.167-5.267,18.368-7.949,27.539-4.117,14.076-8.646,28.028-13,42.031-3.655,11.739-7.166,23.5-11.265,35.1-.392,1.11-.78,2.222-1.186,3.327-.323.882-.457,1.023-1.336,1.338q-2.655.948-5.389,1.65a70.952,70.952,0,0,1-11.616,1.964,100.948,100.948,0,0,1-13.4.22,86.381,86.381,0,0,1-13.9-1.495c-12.442-2.647-22.664-10.348-30.448-20.154-.311-.393-.039-.044-.338-.436-.16-.212-.32-.423-.478-.636q-.555-.745-1.09-1.506-.918-1.3-1.778-2.645c-.885-1.382-1.724-2.8-2.5-4.24a23.125,23.125,0,0,1-1.139-2.249c-.023-.055-.055-.107-.075-.163-.034-.1.108.148.1.127-.2-.638-.376-1.281-.55-1.925q-.936-3.472-1.515-7.028a83.893,83.893,0,0,1-1.031-14.4q.033-3.678.336-7.346a33.026,33.026,0,0,1,.862-6.164c.405-1.461.742-3.486,2.387-4.026a2.894,2.894,0,0,1,1.975.157c1.044.363,2.089.714,3.149,1.026a73.186,73.186,0,0,0,12.663,2.528,71.948,71.948,0,0,0,12.761-.073,136.208,136.208,0,0,0,14.446-1.8,131.266,131.266,0,0,0,27.514-8.1,135.511,135.511,0,0,0,12.705-6.083c2.713-1.48.293-5.627-2.422-4.145A128.165,128.165,0,0,1,189,208.746a56.038,56.038,0,0,1-12.136-.741q-3.309-.6-6.557-1.5c-2.043-.566-4.119-1.6-6.247-1.738a7.259,7.259,0,0,0-5.616,2.238c-1.578,1.667-2.253,4.147-2.759,6.333a48.3,48.3,0,0,0-.852,7.211q-.276,3.669-.286,7.352a90.64,90.64,0,0,0,1.281,15.437c.546,3.185,1.1,6.731,2.447,9.689a53.488,53.488,0,0,0,3.9,6.883c6.535,10.06,15.561,18.914,26.615,23.835,8.155,3.631,16.893,4.661,25.747,5.04a87.932,87.932,0,0,0,26.375-2.512,57.351,57.351,0,0,0,5.517-1.75c2.6-.986,3.479-2.884,4.368-5.37q2.127-5.943,4.136-11.928c1.543-4.618,2.939-9.28,4.375-13.933,4.163-13.488,8.488-26.926,12.643-40.415,2.968-9.632,5.736-19.323,8.513-29.011,1.348-4.7,2.7-9.4,4.088-14.091q1.023-3.453,2.074-6.9c.652-2.132,2.047-4.807,1.468-7.059-.561-2.182-2.339-3.181-4.245-4.015q-2.821-1.234-5.694-2.349c-1.753-.684-3.517-1.344-5.3-1.947-1.989-.673-4.037-1.369-6.054-.351-1.947.982-2.706,3.235-3.693,5.042s-2.017,3.6-3.078,5.375q-3.334,5.562-7.1,10.854a147.455,147.455,0,0,1-17.162,20.221,83.433,83.433,0,0,1-19.411,14.6,43.679,43.679,0,0,1-9.4,3.638c-2.991.762-1.724,5.393,1.276,4.629Z"/><path class="a" d="M156.3,256.987q-1.179-.8-2.331-1.735c-6.4-5.2-7.5-12.15-7.21-19.351.641-4.152,3.812-9.368,6.287-10.505,3.349-1.539,5.279-1.618,8.735-1.443a38.894,38.894,0,0,0,12.8-1.2,30.194,30.194,0,0,1,8.164-.954c2.864.03,4.378,1.424,4.569,4.051.216,2.965-2.619,5.711-6.153,6.769l-4.861,1.454a45.882,45.882,0,0,0,7.121,1.444c3.285.391,6.478.658,9.825,1.328a4.381,4.381,0,0,1,3.45,3.525,4.673,4.673,0,0,1-4.731,5.645l-3.786.119,1.076,2.315a4.544,4.544,0,0,1-.426,4.75c-.937,6.373-7.6,8.545-13.417,8.852A29.99,29.99,0,0,1,156.3,256.987Z"/><path class="d" d="M181.793,234.931c4.046-1.288,8.357-4.683,7.884-9.405a6.463,6.463,0,0,0-2.96-5.131c-1.886-1.105-4.115-1.061-6.227-.948a35.868,35.868,0,0,0-7.244,1.179,32.9,32.9,0,0,1-7.861.994c-4.788.077-9.483-.646-13.859,1.864-3.5,2-5.8,6.662-6.793,10.4a20.112,20.112,0,0,0-.346,6.44,28.66,28.66,0,0,0,1.044,6.3c2.629,8.868,11.152,14.888,19.875,16.956,8.477,2.01,21.586,1.652,25.357-7.887a2.416,2.416,0,0,0-1.676-2.952,2.457,2.457,0,0,0-2.953,1.676c-1.052,2.661-3.965,3.972-6.554,4.629a27.6,27.6,0,0,1-10.164.419c-6.848-.887-14.464-4.667-17.913-10.886a20.731,20.731,0,0,1-2.274-9.534,13.43,13.43,0,0,1,.5-4.766,17.549,17.549,0,0,1,2.351-4.621,6.04,6.04,0,0,1,2.827-2.431,12.474,12.474,0,0,1,4.717-.94c2.2-.014,4.385.187,6.584.116a40.29,40.29,0,0,0,7.027-.821,49.81,49.81,0,0,1,6.515-1.281,28.539,28.539,0,0,1,3.269-.1,2.759,2.759,0,0,1,1.453.374c-.15-.108.152.155.144.146-.191-.21.108.152.154.241a2.7,2.7,0,0,1,.223.743,2.509,2.509,0,0,1-.237,1.527,6.664,6.664,0,0,1-4.135,3.069c-2.933.934-1.68,5.569,1.276,4.628Z"/><path class="d" d="M171.888,235.17a51.475,51.475,0,0,0,8.675,2.337c3.017.519,6.078.71,9.106,1.149,1.8.261,4.48.211,4.679,2.464a2.218,2.218,0,0,1-2.389,2.493c-3.071.175-3.091,4.976,0,4.8,3.184-.181,6.019-1.894,6.914-5.095a7.007,7.007,0,0,0-3.347-8.172,16.236,16.236,0,0,0-5.25-1.213c-1.985-.274-3.977-.486-5.967-.714a49.671,49.671,0,0,1-11.145-2.677,2.422,2.422,0,0,0-2.952,1.676,2.449,2.449,0,0,0,1.676,2.952Z"/><path class="d" d="M191.959,243.613a37.213,37.213,0,0,1-9.142-.247c-1.274-.155-2.883-.409-4.374-.681q-2.06-.377-4.1-.854a2.4,2.4,0,1,0-1.276,4.628,89.6,89.6,0,0,0,9.47,1.672,37.77,37.77,0,0,0,9.421.282,2.477,2.477,0,0,0,2.4-2.4,2.414,2.414,0,0,0-2.4-2.4Z"/><path class="d" d="M187.177,249.659c-.113-.262.1.438.1.426.126.5.067-.1.041.413,0,.082-.083.764-.01.4-.013.065-.184.609-.113.441s-.2.325-.233.379c.216-.3-.3.233-.014,0a3.155,3.155,0,0,1-1.037.549,6.462,6.462,0,0,1-2.3.38c-.3,0-.606-.021-.908-.047q-.225-.019-.447-.045c-.067-.007-.691-.087-.365-.042.342.047-.246-.038-.31-.048q-.334-.051-.667-.106-.648-.108-1.295-.229c-.953-.177-1.9-.371-2.851-.574q-2.528-.541-5.033-1.179c-2.994-.766-4.272,3.862-1.276,4.629a71.277,71.277,0,0,0,12.493,2.414,10.171,10.171,0,0,0,6.854-1.894c2.592-2.041,2.739-5.458,1.513-8.293a2.415,2.415,0,0,0-3.283-.861,2.461,2.461,0,0,0-.861,3.284Z"/><path class="a" d="M231.081,258.547a20.6,20.6,0,0,0-4.627-3.5c-1.309-.634-3.03-.8-5.627-.726a106.693,106.693,0,0,1-13.333-.652c-2.259-.316-4.4-1.449-6.676-1.336s-4.705,1.538-5.048,3.792a4.873,4.873,0,0,0,1.427,3.919,50.731,50.731,0,0,0,6.647,4.766l.4.227c-1.529,2.838-4.985,6.119-7.8,7a19.605,19.605,0,0,1-8.234,1.214c-2.012-.129-4.478.061-5.763.911a4.167,4.167,0,0,0-1.972,4.041c.188.8,1.488,1.944,2.073,2.519,1.329,1.307,4.41,1.978,8.175,2.216,3.57,7.146,12.364,11.234,21.522,10.31,7.467-.859,18.01-3.539,20.8-5.3.782-.492,2.626-2.153,3.443-2.586,1.57-.834,5.479-1.994,9.331-3.354"/><path class="d" d="M202.589,262.956a13.578,13.578,0,0,1-3.432,4.591,11.506,11.506,0,0,1-5.006,2.674,19.64,19.64,0,0,1-6.32.61c-2.237-.085-4.822.083-6.738,1.364-2.087,1.395-3.587,4.106-2.93,6.646.439,1.695,2.174,3.321,3.584,4.3,2.8,1.932,6.807,2.125,10.079,2.257a83.771,83.771,0,0,0,14.8-.894,2.414,2.414,0,0,0,1.676-2.952,2.463,2.463,0,0,0-2.952-1.676,81.494,81.494,0,0,1-11.342.767,42,42,0,0,1-5.538-.308c-.481-.066-1.148-.189-1.693-.314-.342-.079-.681-.166-1.016-.269s-.744-.26-.632-.208c-.22-.1-.431-.216-.641-.337a3.3,3.3,0,0,1-.318-.211c.069.051.362.322.079.033-.41-.419-1.334-.993-1.5-1.569.063.225.094-.1.131-.195a2.271,2.271,0,0,1,.56-.822,3.341,3.341,0,0,1,1.939-.737c2.017-.283,4.064.12,6.092-.091A24.489,24.489,0,0,0,197.5,274.2a17.391,17.391,0,0,0,9.233-8.826,2.479,2.479,0,0,0-.861-3.283,2.417,2.417,0,0,0-3.284.861Z"/><path class="d" d="M190.119,286.536c5.374,7.117,14.466,10.12,23.165,8.984a100.2,100.2,0,0,0,12.462-2.452c2.845-.747,6.214-1.481,8.687-3.159,1.416-.961,2.691-2.3,4.2-2.886,2.57-1,5.228-1.785,7.83-2.7a2.46,2.46,0,0,0,1.677-2.952,2.422,2.422,0,0,0-2.953-1.676c-2.272.8-4.571,1.52-6.838,2.332a15.259,15.259,0,0,0-4.391,2.2,16.046,16.046,0,0,1-3.064,2.145c-.129.061-.261.119-.392.175.1-.043.382-.151-.081.027-.285.109-.57.217-.857.32-.8.288-1.618.548-2.436.794a96.009,96.009,0,0,1-11.2,2.607,27.8,27.8,0,0,1-11.463.067,18.009,18.009,0,0,1-10.2-6.255,2.477,2.477,0,0,0-3.284-.861,2.417,2.417,0,0,0-.861,3.284Z"/><path class="d" d="M232.779,256.85a22.567,22.567,0,0,0-5.114-3.878,12.161,12.161,0,0,0-4.954-1.057c-4.593-.15-9.18.039-13.76-.466-2.134-.235-4.113-1.062-6.226-1.378a9.022,9.022,0,0,0-6.08,1.093c-3.917,2.4-4.239,7.4-1.1,10.625a33.229,33.229,0,0,0,7.084,5.091c2.681,1.546,5.1-2.6,2.422-4.144-1.138-.656-2.224-1.413-3.3-2.166a14.644,14.644,0,0,1-2.861-2.226c-.946-1.062-1.033-2.237.173-3.035,1.629-1.079,3.575-.406,5.285.081,4.677,1.331,9.7,1.238,14.53,1.3,1.934.025,4.058-.233,5.935.3a7.143,7.143,0,0,1,2.194,1.207c.838.622,1.6,1.351,2.373,2.051,2.286,2.068,5.691-1.316,3.4-3.394Z"/><path class="f" d="M238.665,252.452c-.969.386-1.875.745-2.7,1.069-1.579.623-2.833,1.828-2.654,3.516l5.863,27.265a3.228,3.228,0,0,0,3.654,2.85c10.524-1.424,21.67-6.424,32.231-10.88l-11.439-35.116C258.661,244.294,246.581,249.294,238.665,252.452Z"/><path class="d" d="M262.41,239.084c-4.759,2.981-10.1,5.135-15.257,7.318-2.778,1.176-5.573,2.313-8.373,3.435-2.871,1.149-6.661,2.037-7.661,5.39a7.075,7.075,0,0,0,.142,3.674l.921,4.279,2.7,12.558c.635,2.955,1.3,5.906,1.906,8.867a5.836,5.836,0,0,0,4.1,4.774c1.876.5,3.977-.09,5.833-.459,2-.4,3.971-.9,5.925-1.463a185.053,185.053,0,0,0,23.735-9.172c6.418-2.877,12.927-6.691,18.011-11.6,8.974-8.67,10.837-21.27,10.69-33.209-.023-1.913-.1-3.825-.2-5.736-.166-3.072-4.967-3.091-4.8,0,.593,10.948.536,23.543-6.339,32.514-3.665,4.783-9,8.173-14.192,11.068a148.286,148.286,0,0,1-21.087,9.154,92.591,92.591,0,0,1-11.27,3.444q-1.3.3-2.617.539a6.128,6.128,0,0,1-2.411.305c-.548-.181-.574-.618-.682-1.143-.467-2.274-.976-4.539-1.464-6.808-1.438-6.692-2.93-13.374-4.316-20.077a1.331,1.331,0,0,1-.06-.277c0-.166-.036.254.051.172a3.761,3.761,0,0,1,1.155-.893c.443-.2.94-.367,1.4-.55q3.888-1.543,7.755-3.141c5.424-2.248,10.882-4.514,16.081-7.252.933-.492,1.854-1,2.748-1.564,2.612-1.637.206-5.791-2.422-4.145Z"/></svg>